<?xml version="1.0" standalone="no"?>
<!DOCTYPE svg PUBLIC "-//W3C//DTD SVG 20010904//EN"
 "http://www.w3.org/TR/2001/REC-SVG-20010904/DTD/svg10.dtd">
<svg version="1.0" xmlns="http://www.w3.org/2000/svg"
 width="400.000000pt" height="400.000000pt" viewBox="0 0 400.000000 400.000000"
 preserveAspectRatio="xMidYMid meet">
<metadata>
Created by potrace 1.11, written by Peter Selinger 2001-2013
</metadata>
<g transform="translate(0.000000,400.000000) scale(0.100000,-0.100000)"
fill="#000000" stroke="none">
<path d="M2386 3934 c-9 -8 -16 -19 -16 -23 0 -23 52 -80 97 -107 l51 -30
-111 -39 c-129 -44 -237 -56 -313 -35 -42 12 -48 12 -60 -5 -15 -20 -3 -55 19
-55 7 0 44 -20 83 -43 l72 -43 -46 -24 c-66 -35 -149 -116 -184 -177 -59 -105
-101 -129 -203 -117 -46 6 -54 4 -64 -13 -14 -27 9 -48 72 -64 100 -25 189 1
341 99 44 28 81 50 83 48 2 -2 -5 -24 -16 -50 -11 -25 -41 -126 -66 -224 -25
-97 -58 -205 -75 -239 -33 -67 -122 -163 -169 -183 -85 -35 -20 -90 107 -90
l53 0 -40 -56 c-32 -45 -38 -60 -30 -75 12 -23 38 -23 134 -5 39 8 71 13 73
11 10 -9 -170 -67 -250 -81 -86 -15 -101 -15 -203 0 -60 9 -133 22 -161 28
l-52 11 -12 61 c-35 184 -187 342 -375 391 -33 8 -96 15 -141 15 -144 0 -256
-50 -353 -156 -90 -98 -119 -187 -146 -440 -8 -83 -22 -178 -31 -209 -33 -129
-103 -211 -232 -273 -78 -37 -92 -53 -71 -78 22 -27 176 -15 261 20 176 71
260 134 397 295 112 131 177 181 238 181 l32 0 -35 -57 c-73 -121 -108 -304
-85 -437 7 -37 30 -106 52 -154 31 -66 39 -95 35 -120 -10 -66 -51 -128 -153
-233 -70 -72 -105 -115 -109 -136 -8 -41 18 -95 62 -128 47 -36 151 -159 224
-265 50 -73 60 -96 60 -130 0 -36 7 -48 50 -94 46 -49 50 -56 48 -99 -2 -31 3
-52 15 -65 10 -11 17 -35 17 -60 l0 -42 92 -46 c80 -40 94 -44 114 -33 19 10
34 8 94 -15 l71 -26 59 30 c43 22 60 36 60 50 0 21 -53 103 -101 155 -35 39
-51 72 -109 224 -55 146 -106 252 -161 333 -22 31 -39 63 -39 71 0 7 30 26 68
41 90 37 235 124 299 179 148 127 221 254 248 427 10 70 91 89 193 46 110 -46
219 -42 347 11 120 50 285 181 371 293 38 50 38 50 59 30 28 -26 88 -50 127
-50 55 0 118 40 229 146 98 94 183 154 196 140 19 -19 30 -208 17 -276 -9 -40
-58 -74 -84 -58 -14 9 -27 6 -63 -16 -40 -23 -49 -34 -62 -78 -8 -28 -15 -84
-15 -124 0 -64 3 -75 22 -88 12 -9 31 -16 41 -16 30 0 105 58 148 115 22 30
53 58 69 64 46 15 115 86 128 128 7 26 8 111 3 269 -6 204 -9 234 -27 265 -12
21 -32 38 -51 43 -24 7 -33 18 -42 46 -6 20 -22 47 -35 59 -39 36 -86 30 -208
-27 l-106 -50 -11 59 c-17 83 -70 180 -161 295 -88 110 -145 208 -155 269 l-8
40 22 -27 c32 -40 116 -78 173 -78 46 0 50 -2 64 -35 7 -19 14 -62 14 -95 0
-78 19 -124 61 -146 45 -23 128 -23 163 -1 36 24 66 75 66 112 0 41 -56 364
-69 399 -16 42 -15 43 49 38 100 -7 188 41 206 114 10 37 -10 51 -82 57 -36 2
-67 7 -69 9 -11 10 9 48 25 48 10 0 31 11 47 23 15 13 40 27 55 31 15 3 35 17
44 31 9 14 24 25 34 25 10 0 23 7 30 15 7 8 20 15 29 15 32 0 58 29 65 70 9
60 -5 80 -59 80 -24 0 -46 -4 -49 -9 -3 -5 -15 -7 -26 -4 -11 3 -31 -2 -45
-11 -13 -9 -38 -16 -54 -16 -16 0 -32 -4 -35 -9 -3 -5 -23 -11 -43 -14 -21 -3
-62 -10 -91 -17 -49 -10 -54 -9 -85 13 -35 26 -74 42 -124 52 -17 3 -37 13
-44 21 -23 28 -94 63 -159 79 -36 9 -92 29 -125 46 -76 37 -155 45 -260 26
-87 -15 -122 -10 -167 23 -33 24 -33 24 -52 4z m410 -99 c58 -17 85 -42 113
-105 30 -67 30 -67 -42 -55 -49 8 -73 18 -101 42 -51 46 -77 62 -142 88 l-57
23 44 10 c66 15 129 14 185 -3z m232 -80 c64 -27 112 -86 112 -138 l0 -25 -57
24 c-32 13 -63 24 -69 24 -5 0 -15 21 -21 48 -5 26 -13 55 -18 65 -9 21 4 22
53 2z m-368 -51 c43 -17 53 -34 20 -34 -10 0 -44 -9 -75 -21 -31 -12 -77 -22
-103 -24 -26 -1 -94 -6 -151 -10 -71 -6 -102 -5 -98 2 4 6 26 13 49 17 23 4
87 22 143 41 150 51 158 52 215 29z m1100 -24 c0 -20 -5 -30 -15 -30 -10 0
-15 10 -15 30 0 20 5 30 15 30 10 0 15 -10 15 -30z m-80 -25 c0 -22 -5 -35
-13 -35 -8 0 -14 14 -15 35 -2 26 1 35 13 35 11 0 15 -10 15 -35z m-420 -15
c44 -23 60 -46 60 -87 0 -50 -11 -56 -62 -33 l-46 20 -4 60 c-1 33 1 60 5 60
4 0 25 -9 47 -20z m338 -27 c-2 -27 -7 -48 -13 -48 -5 0 -11 21 -13 48 -3 38
0 47 13 47 13 0 16 -9 13 -47z m-78 0 c0 -43 -14 -93 -24 -93 -8 0 -12 19 -12
55 1 45 4 55 19 55 10 0 17 -7 17 -17z m-730 -44 c-80 -51 -289 -218 -349
-279 -96 -97 -139 -190 -177 -375 -40 -198 -123 -309 -241 -323 l-48 -5 52 57
c76 83 116 173 168 381 58 234 92 305 194 405 80 78 183 142 270 165 25 7 80
14 121 14 l75 1 -65 -41z m631 29 c-1 -5 -1 -40 -1 -79 0 -67 -1 -70 -22 -67
-18 2 -22 8 -20 28 2 14 6 49 9 78 4 39 9 52 19 50 8 -2 15 -6 15 -10z m-373
-42 c22 -8 59 -27 83 -42 79 -50 287 -153 345 -170 67 -19 61 -35 -18 -42 -74
-6 -132 12 -158 48 -24 33 -41 38 -60 15 -11 -13 -8 -25 13 -68 15 -29 35 -77
46 -108 26 -76 75 -380 67 -413 -4 -16 -17 -31 -33 -37 -29 -11 -88 -3 -101
15 -5 6 -12 47 -14 91 -5 86 -32 156 -65 170 -10 4 -47 11 -82 15 -36 5 -75
17 -90 28 -47 34 -82 96 -89 153 -6 45 -10 54 -29 57 -33 5 -46 -30 -51 -139
-7 -149 24 -224 163 -399 41 -52 94 -133 118 -179 52 -105 56 -171 15 -266
-36 -84 -44 -138 -23 -159 12 -12 21 -13 36 -6 10 6 19 16 19 23 0 7 29 20 64
29 35 9 126 44 201 78 76 33 147 62 158 63 37 4 44 -32 50 -264 5 -185 4 -226
-9 -250 -19 -37 -113 -92 -131 -77 -20 16 -16 23 22 41 19 9 41 30 50 47 36
69 27 315 -13 369 -51 69 -114 44 -275 -106 -176 -165 -228 -178 -314 -75 -91
107 -167 176 -232 207 -60 28 -64 29 -76 11 -20 -27 -9 -43 57 -78 59 -31 138
-101 158 -138 13 -24 -35 -86 -147 -190 -140 -131 -268 -194 -398 -194 -66 0
-91 4 -142 27 -70 30 -126 34 -178 13 -34 -15 -35 -14 -35 7 0 30 -23 118 -50
189 -22 60 -45 78 -69 54 -13 -14 -12 -24 11 -93 36 -106 52 -204 44 -272 -26
-227 -174 -396 -472 -538 -164 -77 -173 -100 -95 -222 65 -103 101 -175 151
-311 24 -63 54 -136 66 -162 13 -26 24 -50 24 -53 0 -3 -20 -5 -45 -5 l-45 0
0 50 c0 46 -4 54 -50 105 -40 45 -50 62 -50 91 0 27 -16 58 -70 138 -77 114
-194 253 -234 279 -32 21 -49 52 -41 76 3 10 41 45 83 79 60 45 86 74 108 116
24 47 32 55 49 49 38 -14 117 -9 128 8 20 31 1 49 -50 49 -91 0 -205 108 -280
266 -33 69 -37 87 -41 178 -5 124 13 209 65 310 69 131 195 228 317 242 53 6
75 4 299 -38 94 -17 119 -18 191 -9 239 32 381 109 523 285 132 165 155 240
151 504 -3 185 -3 188 24 245 38 81 77 127 156 185 139 102 216 127 300 98z
m-717 -85 c-49 -49 -90 -81 -108 -85 -27 -6 -115 -54 -187 -101 l-30 -20 29
54 c48 88 144 157 285 205 41 14 78 26 83 26 4 0 -29 -36 -72 -79z m168 -271
c-6 -34 -5 -100 2 -175 8 -100 8 -133 -5 -194 -33 -156 -106 -261 -225 -321
-60 -30 -178 -66 -187 -57 -3 2 34 53 81 113 106 136 139 202 165 329 25 124
54 206 93 265 30 45 79 102 83 97 1 -1 -2 -27 -7 -57z m-1428 -450 c134 -25
272 -127 329 -244 26 -54 50 -146 38 -146 -2 0 -31 -5 -63 -11 -66 -12 -128
-41 -195 -90 -41 -31 -51 -34 -120 -34 -114 -1 -157 -31 -322 -227 -97 -115
-156 -162 -283 -222 -113 -54 -122 -54 -60 5 98 93 132 190 159 454 25 238 56
324 146 409 101 95 231 132 371 106z m2413 -326 c35 -35 21 -53 -81 -101 -99
-46 -233 -96 -240 -89 -2 2 5 23 16 47 18 42 23 46 137 96 66 28 126 54 134
56 8 3 16 6 17 6 1 1 9 -6 17 -15z m-70 -739 l19 -36 -38 -39 c-22 -22 -43
-40 -48 -40 -14 0 -2 137 13 155 15 19 28 10 54 -40z m-2245 -438 c-11 -39
-56 -90 -147 -166 -99 -81 -94 -119 27 -246 146 -152 251 -300 251 -352 0 -43
19 -79 64 -122 20 -19 36 -43 36 -53 0 -15 -9 -18 -54 -18 l-54 0 5 43 c5 42
3 46 -46 95 -43 44 -51 57 -51 89 0 54 -125 237 -252 369 -54 56 -98 109 -98
118 0 10 32 47 71 84 77 72 149 166 175 227 l16 38 34 -34 c32 -32 33 -36 23
-72z m249 -1039 c14 -14 16 -54 2 -63 -17 -11 -90 34 -90 55 0 16 7 20 38 20
21 0 43 -5 50 -12z m220 -48 c27 -36 28 -47 2 -55 -21 -7 -74 7 -122 31 -35
18 -27 42 15 47 75 9 83 7 105 -23z"/>
<path d="M3170 3246 c0 -7 7 -19 15 -26 11 -9 13 -16 5 -24 -25 -25 -4 -76 32
-76 11 0 18 -7 18 -20 0 -24 25 -27 34 -4 17 44 6 86 -34 125 -40 39 -70 50
-70 25z"/>
<path d="M870 2691 c-16 -4 -25 -14 -25 -26 0 -15 6 -19 25 -17 14 2 66 4 115
4 70 1 103 -4 150 -21 77 -29 88 -30 93 -8 10 48 -250 98 -358 68z"/>
<path d="M382 714 c-12 -8 -20 -20 -16 -25 10 -17 -7 -67 -36 -104 -16 -20
-32 -50 -36 -68 -3 -17 -18 -40 -31 -50 -32 -26 -45 -61 -33 -92 5 -14 6 -25
1 -25 -5 0 -24 -12 -41 -27 -28 -23 -31 -31 -28 -70 2 -23 0 -43 -4 -43 -3 0
-20 -12 -37 -26 -41 -34 -44 -92 -6 -129 l24 -25 301 0 301 0 24 25 c43 42 23
132 -33 149 -14 5 -17 14 -14 41 5 40 -17 80 -51 96 -19 8 -22 17 -19 50 4 35
0 44 -32 74 -24 23 -36 43 -36 62 -2 72 -51 150 -116 183 -49 24 -53 24 -82 4z
m112 -324 c13 0 56 -41 56 -53 0 -9 -20 -7 -83 9 -28 6 -28 6 -25 -32 2 -33 7
-40 28 -43 14 -1 37 -12 52 -23 53 -37 29 -118 -39 -134 -16 -4 -34 -11 -40
-17 -9 -6 -13 -6 -13 2 0 6 -12 11 -26 11 -16 0 -38 12 -57 33 l-32 32 27 3
c15 2 38 -4 50 -12 33 -23 38 -20 38 24 0 22 -5 40 -11 40 -6 0 -26 7 -44 16
-42 20 -61 60 -44 97 11 24 62 57 88 57 6 0 11 4 11 9 0 6 12 3 28 -5 15 -7
31 -14 36 -14z"/>
<path d="M382 338 c-18 -18 -15 -36 7 -48 32 -17 41 -12 41 25 0 27 -4 35 -18
35 -10 0 -23 -5 -30 -12z"/>
<path d="M444 216 c-8 -21 -1 -59 12 -63 6 -2 22 5 35 17 l24 20 -24 20 c-28
24 -40 25 -47 6z"/>
</g>
</svg>
