<?xml version="1.0" standalone="no"?>
<!DOCTYPE svg PUBLIC "-//W3C//DTD SVG 1.1//EN" "http://www.w3.org/Graphics/SVG/1.1/DTD/svg11.dtd" >
<svg xmlns="http://www.w3.org/2000/svg" xmlns:xlink="http://www.w3.org/1999/xlink" version="1.1">
<metadata></metadata>
<defs>
<font id="schoolbellregular" horiz-adv-x="898" >
<font-face units-per-em="2048" ascent="1638" descent="-410" />
<missing-glyph horiz-adv-x="634" />
<glyph horiz-adv-x="0" />
<glyph horiz-adv-x="682" />
<glyph unicode=" "  horiz-adv-x="634" />
<glyph unicode="&#x09;" horiz-adv-x="634" />
<glyph unicode="&#xa0;" horiz-adv-x="634" />
<glyph unicode="!" horiz-adv-x="424" d="M176 140q26 -16 40 -48t4 -60q-8 -30 -38 -50q-22 -24 -56 -23t-56 23q-30 22 -38 40q-16 28 -9 56t29 48q6 4 11 9t13 9q18 8 21 8t21 4q6 0 14 -1t12 -3q16 -2 32 -12zM160 1430q0 38 25 58t54 20t54 -20t25 -58q0 -132 3 -265t0 -265t-16 -264t-45 -262 q-10 -38 -38 -50t-57 -4t-49 33t-10 63q30 124 42 251t15 254t0 255t-3 254z" />
<glyph unicode="&#x22;" horiz-adv-x="630" d="M80 1442q0 38 25 58t55 20t55 -20t25 -58q0 -128 -3 -256t-15 -254q-4 -34 -25 -57t-55 -23q-30 0 -57 23t-23 57q14 126 16 254t2 256zM530 926q2 -40 -22 -59t-54 -19t-56 19t-28 59q-4 64 0 129t9 129t8 129t-1 129q-2 34 24 57t56 23q34 0 56 -23t24 -57 q4 -64 1 -129t-8 -129t-9 -129t0 -129z" />
<glyph unicode="#" horiz-adv-x="1220" d="M326 72q-12 -36 -43 -47t-60 -3t-46 33t-5 61q26 74 47 147t39 149q-40 2 -79 4t-79 6q-34 4 -57 25t-23 55q0 30 23 56t57 24q94 -8 194 -12q16 80 31 160t31 162q-52 -4 -102 -9t-100 -11q-34 -4 -57 23t-23 57q0 36 23 56t57 24q58 8 114 12t114 8q16 94 32 185 t34 183q6 34 37 50t61 6q34 -10 48 -38t6 -60q-16 -80 -29 -160t-27 -160q64 0 129 -3t131 -7q20 86 38 172t34 174q6 34 38 50t60 6q34 -10 48 -38t8 -60q-16 -82 -33 -162t-35 -160q46 -8 90 -15t90 -17q38 -8 50 -36t4 -57t-33 -49t-63 -12q-88 18 -174 30 q-12 -50 -23 -99t-23 -99q-6 -30 -12 -59t-12 -59q48 -2 95 -3t93 -3q38 -2 57 -28t19 -56t-19 -54t-57 -22q-54 4 -108 5t-108 3q-18 -94 -38 -185t-54 -181q-12 -30 -38 -47t-60 -7q-30 8 -49 37t-7 61q28 78 48 159t36 165q-62 2 -123 2t-123 2q-20 -84 -43 -167 t-51 -167zM518 898q-16 -84 -31 -167t-31 -167q60 0 120 -1t120 -3q8 40 15 79t15 79q10 44 20 87t20 85q-62 6 -124 8t-124 0z" />
<glyph unicode="$" horiz-adv-x="950" d="M912 1330q34 -4 49 -37t7 -61q-10 -34 -38 -47t-60 -9q-20 2 -26 4h-24t-24 2q-28 0 -55 -1t-55 -3l-68 -4t-68 -8v-20q2 -82 6 -162t0 -160q-2 -8 -2 -16v-16q42 -24 80 -55t68 -71q32 -42 65 -99t54 -118t20 -122t-39 -111q-52 -72 -120 -95t-144 -21q0 -26 1 -51 t1 -53q0 -38 -24 -57t-54 -19t-56 19t-26 57q0 32 -1 62t-3 62q-46 8 -90 15t-86 11q-38 2 -57 28t-19 56t19 53t57 21q44 -2 86 -9t82 -15q0 34 -1 69t1 69q4 70 9 140t11 140q-34 16 -67 31t-67 31q-48 22 -96 47t-84 63q-34 36 -50 87t16 95q34 46 81 82t93 66 q40 26 85 52t91 42q4 54 13 106t29 102q12 30 38 48t60 8q30 -8 49 -38t7 -60q-22 -60 -32 -132q26 4 50 5t48 3q64 4 130 4t130 -10zM398 868q0 62 -3 124t-7 126q-52 -30 -90 -53t-72 -51q-16 -14 -18 -14q-4 -4 -9 -8t-9 -8q10 -16 19 -21t31 -17q22 -14 46 -26l48 -24 q16 -8 32 -14t32 -14zM558 594l-9 9l-9 9l-8 -104t-4 -106q-2 -36 -1 -72t3 -72q38 -2 74 5t58 29q16 16 16 40q0 20 -2 35t-10 39q-14 40 -36 79t-46 75q-4 6 -9 13t-11 13z" />
<glyph unicode="%" horiz-adv-x="1316" d="M900 1004q-86 -178 -188 -352q-52 -88 -105 -180t-113 -179t-132 -163t-160 -134q-32 -22 -61 -10t-44 37t-11 57t36 54q82 52 146 127t116 155q58 88 109 177t105 179q52 88 96 178t90 182q46 90 98 176t128 154q28 26 60 21t54 -26t25 -51t-25 -56q-78 -70 -128 -161 t-96 -185zM884 654q60 30 120 23t111 -39t87 -83t50 -111q12 -52 12 -111t-16 -114t-48 -102t-84 -73q-58 -28 -120 -26t-120 26q-70 28 -117 79t-59 127q-2 14 -3 16t-1 6q0 64 12 119t36 106t59 93t81 64zM1050 192q42 40 53 105t-11 127q-4 14 -3 12t-7 12q-2 2 -10 16 t-2 6q-14 16 -28 27t-34 19q-10 4 -21 5t-15 -1l-14 -7t-18 -13q-22 -22 -40 -53t-28 -63q-4 -10 -6 -19t-4 -19q-2 -4 -4 -17t-2 -9q-2 -20 0 -40q4 -18 10 -35t18 -27q10 -10 27 -18t35 -12q24 -8 38 -11t36 1q18 8 25 12t5 2zM380 1486q36 -6 70 -21t62 -39t50 -55 t34 -65q20 -60 18 -126t-18 -126t-44 -117t-80 -97q-44 -34 -105 -47t-115 -3q-50 8 -85 38t-56 70t-30 88t-9 92q0 84 19 169t69 153l14 18q84 90 206 68zM452 1144q2 22 2 49t-4 39q-4 22 -6 30t-16 22q-34 34 -71 44t-71 -24q-14 -18 -15 -23t-5 -9q0 -2 -4 -12t-4 -14 q-4 -8 -5 -15t-5 -17q-2 -10 -4 -19t-4 -19q-2 -4 -4 -17t0 -9q-4 -16 -4 -33v-33v-40q4 -26 6 -34l4 -16q8 -18 13 -25t5 -9q18 -12 20 -13t6 -1q10 -4 20 0l27 6t19 6q16 4 30 14q36 48 51 90t19 82z" />
<glyph unicode="&#x26;" horiz-adv-x="1160" d="M1080 178q26 -18 36 -48t-8 -60q-16 -28 -49 -38t-59 8q-42 30 -80 64t-74 70q-38 -44 -96 -92q-78 -64 -181 -105t-205 -45q-58 -2 -114 14t-102 56q-52 42 -77 104t-29 126q-6 72 10 143t49 136t79 121t100 102q20 16 38 32l36 32q-6 8 -14 24q-40 74 -65 154t-7 164 q16 76 72 142t130 103t155 36t147 -59q58 -52 82 -120t-8 -144q-28 -66 -75 -119t-99 -101q-28 -26 -55 -52t-55 -54q18 -22 36 -46t38 -46q52 -64 103 -128t103 -128q24 40 46 79t44 77q20 32 51 36t57 -11t38 -44t-8 -61q-30 -52 -60 -102t-64 -98q32 -34 64 -64t70 -58z M454 1174q-40 -50 -34 -110t32 -114q8 -20 22 -40q46 40 90 82t84 88q18 22 35 46t21 50q6 30 -34 64q-24 22 -55 22t-61 -12t-57 -34t-43 -42zM704 256q20 18 38 38q-52 64 -102 128t-102 126q-50 60 -94 118q-40 -32 -77 -64t-67 -72q-40 -52 -69 -118t-31 -134 q0 -32 5 -64t19 -58q12 -22 21 -31t31 -19q28 -14 80 -14q28 0 46 3t46 11q50 14 91 31t85 49l28 22q30 24 52 48z" />
<glyph unicode="'" horiz-adv-x="322" d="M222 926q2 -40 -22 -59t-54 -19t-56 19t-28 59q-4 64 1 129t10 129t8 129t-3 129q-2 34 24 57t56 23q34 0 56 -23t24 -57q4 -64 1 -129t-8 -129t-9 -129t0 -129z" />
<glyph unicode="(" horiz-adv-x="524" d="M480 -164q-60 -16 -110 -5t-89 42t-67 76t-46 97q-34 102 -47 208t-19 212q-6 88 -12 175t-8 175q-2 108 7 235t46 244t110 207t199 124q38 10 63 -9t33 -48t-4 -58t-48 -39q-58 -16 -97 -49t-67 -89q-50 -96 -65 -210t-17 -226q-2 -92 4 -182t12 -182q4 -106 12 -200 t36 -194q4 -14 8 -26t8 -26q6 -18 7 -19t1 -3q6 -14 11 -22t11 -16l12 -18l18 -18q18 -6 20 -7t4 -1q22 2 24 3t6 1q38 10 63 -9t33 -47t-4 -57t-48 -39z" />
<glyph unicode=")" horiz-adv-x="524" d="M44 1626q60 16 109 5t88 -42t68 -77t47 -96q34 -102 46 -208t20 -212q4 -88 10 -175t8 -175q2 -108 -7 -235t-45 -244t-110 -208t-200 -123q-36 -10 -62 9t-34 47t4 57t50 39q58 16 96 50t68 90q50 96 65 210t17 226q2 92 -5 182t-11 182q-6 106 -13 200t-35 194 q-4 12 -8 25t-8 25q-8 20 -9 23t-3 5q-6 20 -18 34l-12 18q-16 16 -18 16q-18 8 -21 9t-5 1q-22 -2 -30 -6q-36 -10 -61 9t-33 48t4 58t48 39z" />
<glyph unicode="*" horiz-adv-x="932" d="M814 1194q38 0 58 -25t20 -55t-20 -55t-58 -25q-38 2 -76 2h-76q32 -58 54 -120t32 -132q4 -32 -24 -56t-56 -24q-36 0 -56 24t-24 56q-6 52 -26 100t-48 94q-40 -72 -93 -133t-125 -103q-34 -20 -63 -9t-44 37t-11 57t38 51q46 28 78 64t60 78q-54 -4 -107 -13t-107 -19 q-38 -8 -63 12t-33 48t4 56t50 36q64 16 129 25t131 15q-40 46 -82 90t-82 90q-26 30 -21 62t27 53t52 24t56 -25q42 -48 87 -96t89 -98q26 50 58 96t72 86q28 26 59 22t52 -25t25 -52t-24 -59q-34 -34 -60 -73t-48 -81h196z" />
<glyph unicode="+" horiz-adv-x="854" d="M746 698q38 0 57 -25t19 -55t-19 -55t-57 -25q-58 -2 -118 0t-118 4q2 -56 3 -110t1 -110q0 -40 -25 -59t-55 -19t-54 19t-24 59q0 56 -2 111t-4 111q-64 0 -125 -4t-125 -14q-32 -4 -60 9t-38 47q-8 28 8 60t48 38q74 12 147 16t149 6q2 48 6 97t8 99q4 32 25 56t55 24 q30 0 57 -24t23 -56q-4 -50 -8 -99t-8 -99q58 -2 117 -3t117 1z" />
<glyph unicode="," horiz-adv-x="294" d="M96 130q10 38 39 50t58 4t48 -34t9 -62q-28 -112 -84 -205t-168 -137q-30 -12 -59 7t-39 49q-10 34 8 59t48 39q34 14 57 40t39 57t26 66t18 67z" />
<glyph unicode="-" horiz-adv-x="954" d="M836 672q38 -2 58 -27t20 -55t-20 -54t-58 -24q-86 2 -173 8t-174 9t-174 -1t-173 -18q-34 -6 -61 7t-37 47q-10 30 6 62t50 36q92 16 184 21t184 3t184 -7t184 -7z" />
<glyph unicode="." horiz-adv-x="286" d="M198 140q26 -16 40 -48t4 -60q-12 -34 -40 -50q-22 -24 -56 -23t-56 23q-30 24 -38 40q-16 28 -9 56t31 48q4 4 10 9t12 9q18 8 21 8t23 4q16 0 24 -4q20 -4 34 -12z" />
<glyph unicode="/" horiz-adv-x="728" d="M600 1506q18 34 49 39t56 -10t38 -45t-5 -64q-90 -176 -165 -359t-145 -368t-142 -369t-158 -362q-16 -30 -49 -37t-61 9q-30 16 -37 48t9 60q86 178 158 362t142 369t145 368t165 359z" />
<glyph unicode="0" horiz-adv-x="958" d="M124 1176q22 48 56 91t77 76t93 52t104 19q108 -2 202 -56t158 -140q46 -62 59 -130t13 -144q2 -122 -14 -246t-48 -244q-14 -52 -32 -106t-45 -104t-64 -91t-87 -67q-90 -46 -163 -32t-130 66t-99 133t-70 168t-44 172t-22 145q-10 112 -1 224t57 214zM722 1042 q-10 46 -45 92t-83 78t-103 42t-103 -16q-66 -36 -101 -94t-50 -127t-16 -142t5 -137q10 -102 39 -214t83 -204l26 -39t30 -33q14 -14 19 -17t5 -5l20 -8l20 -5t6 -1q16 4 22 4q12 4 28 12t32 22l18 18q12 18 17 26t9 16q6 10 12 21t10 21q6 12 8 17t8 21q22 58 36 116 t24 118q10 58 17 116t11 118q0 28 1 55t-1 55v23t-2 23q0 4 -1 14t-1 14z" />
<glyph unicode="1" horiz-adv-x="556" d="M200 8q-34 10 -47 38t-7 60q30 162 42 324t14 325t-1 327t-3 326q0 38 25 57t55 19t55 -19t25 -57q0 -168 3 -337t0 -337t-17 -336t-46 -334q-6 -32 -37 -48t-61 -8z" />
<glyph unicode="2" horiz-adv-x="1052" d="M998 156q8 -28 -7 -61t-49 -39q-210 -28 -424 -14t-420 68q-28 6 -41 24t-15 40t7 44t29 38q106 76 207 158t195 174q42 40 82 84t74 90q36 46 72 98t52 110q12 44 8 87t-22 81t-51 66t-79 42q-52 16 -104 16t-105 -11t-104 -28t-99 -35q-36 -12 -61 5t-33 46t4 60t48 43 q64 22 131 42t135 30t136 4t134 -34q120 -52 184 -163t44 -243q-12 -76 -48 -141t-82 -125q-80 -114 -174 -208q-76 -76 -155 -144t-163 -132q148 -28 299 -33t297 15q34 4 61 -8t37 -46z" />
<glyph unicode="3" horiz-adv-x="1066" d="M592 798q102 -34 200 -89t158 -145q34 -50 46 -107t4 -114t-35 -110t-71 -93q-84 -80 -197 -111t-227 -33q-96 -2 -193 12t-187 52q-30 14 -37 49t9 61q18 30 48 36t60 -8q-10 4 -8 4t7 -2t12 -5t9 -3q10 -4 18 -5t18 -5l40 -8t42 -8q24 -4 30 -4t14 -2q12 0 24 -1t26 -1 q50 -2 104 0q32 2 52 4t48 8q12 4 24 7t24 7l24 6q36 16 59 29t33 23q22 18 32 30t20 32q10 16 17 41t7 41v20q-6 26 -10 36q-24 50 -56 79t-76 55q-48 28 -93 46t-99 34q-22 6 -46 12t-46 10q-4 0 -20 2t-12 2q-8 2 -15 2t-15 2q-28 2 -48 19t-28 41t0 48t36 40 q76 40 150 78t144 84q30 20 58 42t52 50q4 4 11 14t11 22q-2 -4 2 6t4 14q2 12 0 22t-10 22q-10 14 -20 25t-22 23q-28 26 -63 47t-75 25q-48 4 -96 -2t-95 -18t-93 -26t-92 -26q-38 -10 -63 10t-33 49t4 57t50 38q56 14 115 32t119 31t121 16t121 -11q44 -12 93 -37t90 -60 t70 -79t35 -94q8 -48 -4 -91t-36 -80t-58 -69t-70 -58q-34 -26 -71 -48t-75 -44z" />
<glyph unicode="4" horiz-adv-x="1068" d="M970 720q36 -10 48 -38t4 -57t-33 -48t-63 -9q-10 2 -21 4t-21 4q-2 -46 -3 -91t-5 -91q-4 -74 -5 -148t11 -146q6 -34 -8 -61t-48 -37q-28 -10 -60 6t-38 50q-14 80 -15 160t3 160q4 56 6 111t4 111q-138 12 -277 8t-277 0q-30 0 -56 23t-24 57q12 168 16 334t16 336 q2 32 24 56t56 24q30 0 56 -24t24 -56q-12 -150 -15 -297t-13 -295q120 0 237 1t237 -9q-2 160 -19 316t-19 316q0 38 25 57t55 19t55 -19t25 -57q0 -82 6 -163t13 -163t12 -163t5 -163q38 -6 82 -18z" />
<glyph unicode="5" horiz-adv-x="1100" d="M768 750q48 -24 101 -57t98 -75t76 -92t35 -110q4 -62 -29 -113t-81 -85q-16 -12 -33 -21t-35 -19q-10 -4 -21 -9t-23 -9q-32 -14 -58 -26t-52 -22q-56 -22 -120 -44t-129 -32t-128 -1t-117 51q-26 20 -24 55t24 57q26 26 57 24t57 -24l30 -8q-2 2 10 1t14 -1q20 0 28 2 q28 2 63 10t65 18q68 22 127 45t117 51q16 8 35 19t31 21q8 6 22 20l10 18q2 18 0 20l-8 22q-6 12 -12 20t-6 6q-10 10 -19 20t-19 20q-44 40 -98 72q-104 62 -204 100q-56 20 -114 28t-116 20q-62 10 -123 32t-103 70q-20 22 -34 51t-10 61q4 26 7 51t7 53q10 48 18 100 t36 94q34 54 85 89t109 57q114 38 235 40t239 -4q38 -2 58 -28t20 -56t-20 -54t-58 -22q-70 4 -141 6t-141 -6q-58 -4 -123 -21t-101 -53q-20 -18 -28 -33t-14 -45q-8 -30 -13 -61t-9 -63q-2 -10 -3 -17t-3 -17q4 -14 10 -21t2 -5q8 -4 14 -8t14 -8q10 -4 24 -8l28 -8 q60 -16 122 -23t122 -23q58 -16 113 -40t107 -52z" />
<glyph unicode="6" horiz-adv-x="1020" d="M266 -38q-66 20 -103 64t-53 100t-17 118t7 118q4 34 11 69t11 69q-20 8 -33 27t-16 40t6 41t33 34q6 4 13 8t15 8q8 58 16 117t22 117q34 164 105 308t179 274q20 24 55 23t57 -23q24 -26 23 -57t-23 -57q-88 -104 -146 -223t-90 -251q-10 -42 -16 -83t-12 -83 q114 32 238 32q104 0 197 -33t161 -117q30 -38 49 -82t23 -89t-9 -90t-45 -85q-44 -52 -104 -89t-118 -69q-58 -30 -116 -57t-120 -49q-46 -16 -100 -30t-100 0zM268 420q-10 -52 -15 -103t1 -109q2 -14 7 -34t13 -34q14 -16 16 -16q28 -8 34 -6q16 2 27 4t23 6q26 8 51 18 t51 20q52 22 107 50t105 58q22 14 43 27t41 29q-2 0 7 7t13 11q8 8 13 14t9 16q16 30 -2 78q-10 20 -27 41t-35 37q-54 46 -121 54t-135 2q-108 -6 -206 -42q-4 -34 -9 -65t-11 -63z" />
<glyph unicode="7" horiz-adv-x="980" d="M542 1242q-106 0 -211 -1t-211 -15q-32 -4 -56 23t-24 57q0 36 24 56t56 24q106 14 211 14h211h138t138 -4q40 0 64 -31t14 -69q-78 -276 -162 -552q-32 -106 -65 -211t-69 -209q-26 -70 -51 -144t-65 -138q-18 -34 -49 -38t-57 11t-38 44t8 63l24 48q2 4 5 12t5 10 q2 12 10 26q16 40 30 81t30 83q68 204 132 414q34 112 66 222t64 222q-44 0 -87 1t-85 1z" />
<glyph unicode="8" horiz-adv-x="1036" d="M642 -60q-56 -14 -117 -15t-120 11t-113 40t-92 74q-46 54 -67 115t-21 124t17 128t45 125q40 86 92 164t110 154q-40 28 -78 56t-74 62q-42 40 -80 91t-42 115q-2 56 26 94t71 64t94 41t95 23q86 16 171 22t171 10q6 22 11 44t11 44q10 36 39 48t58 4t48 -33t9 -61 l-12 -48q24 -12 33 -37t4 -50t-24 -45t-51 -20q-18 -48 -38 -86q-38 -88 -95 -163t-119 -149q12 -6 22 -16q60 -52 105 -117t83 -135q40 -72 69 -152t33 -164q6 -132 -69 -231t-205 -131zM286 1144q22 -26 45 -47t51 -43q48 -38 94 -70l12 12t10 14q44 52 87 106t75 116 q4 10 10 22t10 22q-80 -2 -158 -12q-48 -4 -100 -14t-102 -28q-18 -8 -23 -9t-9 -5q-16 -10 -18 -10l-6 -20q4 -10 10 -19t12 -15zM338 136q82 -54 180 -52q46 0 90 11t84 39l23 23t21 31q14 32 16 46q6 26 6 56q-4 76 -34 148t-68 136q-18 32 -38 66t-48 62l-32 32t-34 30 q-4 -6 -10 -12t-10 -12q-36 -48 -75 -103t-71 -113t-52 -119t-18 -121q2 -42 21 -84t49 -64z" />
<glyph unicode="9" horiz-adv-x="960" d="M844 1162q-6 -88 -21 -175t-11 -175l8 -192t2 -194q-4 -102 -6 -204t0 -204q0 -38 -25 -57t-55 -19t-55 19t-25 57q-2 144 4 286t4 286q-140 -40 -296 -14q-36 6 -76 13t-78 19t-72 32t-58 52q-22 32 -29 72t-2 81t16 81t25 74q38 94 92 178t124 154q52 52 114 92t132 62 q46 16 96 18t92 -24q40 -24 62 -61t31 -81t9 -89t-2 -87zM688 1206v40t-2 40q-2 0 -3 11t-3 15q-8 24 -12 26l-28 6q-64 -14 -114 -44t-94 -72q-114 -112 -178 -254q-14 -30 -25 -62t-15 -64q0 -14 -1 -27t1 -25l16 -22q20 -8 26 -10l12 -4q72 -18 144 -30q132 -22 244 24 q-2 30 -3 61t1 61l8 72t8 70q6 46 11 93t7 95z" />
<glyph unicode=":" horiz-adv-x="318" d="M198 140q26 -16 40 -48t4 -60q-12 -34 -40 -50q-22 -24 -56 -23t-56 23q-30 24 -38 40q-16 28 -9 56t31 48q4 4 10 9t12 9q18 8 21 8t23 4q16 0 24 -4q20 -4 34 -12zM230 724q26 -16 40 -47t4 -59q-8 -28 -38 -52q-22 -24 -56 -22t-56 24q-28 18 -40 38q-16 28 -8 57 t30 47q14 14 24 18q16 8 20 9t22 3q6 2 14 0t12 -2q10 -2 17 -6t15 -8z" />
<glyph unicode=";" horiz-adv-x="324" d="M214 708q26 -16 40 -47t4 -61q-8 -30 -38 -50q-22 -24 -56 -23t-56 23q-28 20 -40 40q-16 28 -8 57t30 47q6 4 11 9t13 9q16 8 20 8t22 4q14 0 26 -4q10 0 17 -4t15 -8zM96 130q10 38 39 50t58 4t48 -34t9 -62q-28 -112 -84 -205t-168 -137q-30 -12 -59 7t-39 49 q-10 34 8 59t48 39q34 14 57 40t39 57t26 66t18 67z" />
<glyph unicode="&#x3c;" horiz-adv-x="920" d="M802 942q38 0 57 -24t19 -54t-19 -56t-57 -26q-22 -4 -30 -8q-42 -10 -78 -24q-94 -32 -188 -72q-54 -26 -107 -53t-105 -59q-12 -8 -24 -15t-22 -15q120 -68 253 -117t261 -111q30 -16 38 -49t-8 -61q-18 -30 -49 -37t-61 9q-76 36 -155 68t-158 63t-157 65t-152 76 q-26 14 -37 48t9 60q36 48 82 86t98 70t107 58t107 50q58 26 116 49t116 45q34 10 71 21t73 13z" />
<glyph unicode="=" horiz-adv-x="1084" d="M134 642q-34 -4 -57 23t-23 57q0 34 23 54t57 24q102 12 205 14t207 1t207 -4t205 -1q38 2 57 -22t19 -54t-19 -56t-57 -26q-102 -4 -205 -1t-207 4t-207 0t-205 -13zM966 476q38 0 57 -24t19 -54t-19 -56t-57 -26q-106 -2 -212 2t-212 7t-212 3t-212 -6q-38 -2 -57 21 t-19 53t19 56t57 30q106 6 212 6t212 -3t212 -7t212 -2z" />
<glyph unicode="&#x3e;" horiz-adv-x="870" d="M488 818q94 -34 181 -79t157 -117q22 -22 24 -57t-24 -57q-78 -64 -169 -107t-181 -91q-70 -40 -138 -82l-136 -84q-34 -20 -63 -9t-44 37t-11 58t36 52q70 42 138 84t138 80q58 34 122 62t122 62q-48 34 -102 57t-112 43q-84 30 -163 61t-165 53q-38 10 -50 39t-4 57 t33 47t63 11q90 -22 175 -56t173 -64z" />
<glyph unicode="?" horiz-adv-x="930" d="M452 1452q62 -14 130 -38t128 -62t104 -91t56 -125q10 -48 8 -98t-34 -92q-28 -38 -67 -61t-85 -37q-42 -12 -84 -19t-84 -15q-22 -4 -43 -8t-43 -10q-10 -4 -19 -5t-19 -5q-26 -12 -38 -20q-12 -12 -13 -15t-3 -5q-2 -20 0 -26q0 -18 10 -41t16 -41q8 -22 16 -41t14 -41 q16 -42 24 -84t10 -88q0 -40 -24 -59t-54 -19t-55 20t-27 58q0 48 -15 93t-33 91q-12 32 -22 64t-15 65t-2 66t19 65q22 40 59 65t79 41q40 14 81 23t83 15t82 14t80 24q16 6 24 12q12 10 18 16q4 12 3 18t-1 12t1 11t3 -1q-4 14 -6 26t-6 24q-6 16 -21 33t-31 33 q-46 40 -110 63t-124 39q-80 18 -161 26t-163 10q-40 2 -59 27t-19 55t19 54t59 24q90 -4 178 -12t176 -28zM432 140q28 -16 41 -48t3 -60q-8 -32 -38 -50q-22 -24 -56 -23t-56 23q-30 24 -38 40q-16 28 -9 56t31 48q4 4 10 9t12 9q18 8 21 8t23 4q16 0 24 -4q16 -2 32 -12z " />
<glyph unicode="@" horiz-adv-x="1382" d="M782 -16q-70 -4 -142 -3t-142 15q-146 30 -256 128t-156 240q-60 182 -55 368t89 360q34 70 76 142t100 124q128 116 298 140q46 6 89 10t87 0q34 -2 75 -3t75 -13q32 -10 59 -27t55 -37q22 -14 43 -25t41 -25q62 -44 99 -107t61 -133q28 -80 46 -166t18 -174 q-4 -154 -60 -298q-22 -62 -53 -124t-83 -104q-64 -52 -136 -47t-138 47q-78 50 -110 122q-84 -14 -169 1t-147 83q-64 70 -83 162t-7 186q6 42 16 83t30 77t50 63t74 41q64 22 133 17t135 -15q8 48 40 64t60 8q34 -10 48 -38t8 -60q-16 -82 -21 -161t-9 -163 q-4 -66 -14 -123t-6 -121q0 -14 4 -31t12 -25q38 -42 88 -56q18 -4 22 -2q12 4 20 12q30 30 54 78q28 54 48 116t30 122q10 78 1 158t-31 156q-16 52 -36 107t-60 93q-16 16 -36 26t-38 22l-44 32t-46 28q-20 6 -32 8t-8 2l-78 6h-73t-73 -8q-70 -12 -138 -43t-112 -91 q-102 -138 -154 -300t-22 -336q14 -72 34 -142t64 -130q34 -52 86 -87t110 -51q62 -16 127 -20t129 0q58 2 119 11t107 41q26 20 59 9t49 -37q18 -30 9 -60t-37 -48q-58 -42 -130 -56t-142 -18zM762 756q4 46 6 90t6 88q-24 4 -47 6t-47 4q-16 2 -32 2h-32q-22 -4 -26 -4 t-8 -2q-18 -6 -26 -10q-14 -14 -14 -16q-10 -16 -12 -19t-6 -25q-4 -14 -6 -28t-4 -26q-6 -66 0 -127t46 -99q12 -12 18 -17t24 -15q-4 4 7 -1t15 -5q8 -2 14 -4t14 -2q20 -4 44 -1t46 7q2 14 3 26t3 24q4 32 8 73t6 81z" />
<glyph unicode="A" horiz-adv-x="1104" d="M220 26q0 -38 -25 -57t-55 -19t-54 19t-24 57q0 156 36 300t90 286q-14 26 -8 58q12 42 52 52q40 96 83 191t83 191t74 194t56 200q6 30 25 52t53 22q32 0 58 -23t22 -57q-6 -116 4 -213t30 -192t45 -190t47 -189q22 -90 40 -180t58 -174q20 -42 42 -81t48 -79 q24 -36 44 -75t28 -85q4 -32 -9 -60t-47 -38q-28 -8 -60 8t-38 48q-8 46 -31 82t-47 74q-28 44 -51 89t-41 93q-20 50 -34 101t-26 103q-90 6 -177 9t-175 13q-48 -128 -81 -260t-35 -270zM408 734q-4 -6 -5 -13t-5 -13q64 -6 126 -7t126 -5q-22 96 -47 191t-45 193 q-36 -88 -74 -173t-76 -173z" />
<glyph unicode="B" horiz-adv-x="1022" d="M150 706q-32 -4 -55 22t-23 56q0 36 23 56t57 24q18 130 23 258t9 258q-26 8 -43 27t-17 49t23 57t57 23q74 -8 149 -17t150 -23t148 -36t139 -56q46 -22 87 -57t68 -78t34 -93t-15 -104q-40 -98 -109 -165t-165 -107q-20 -10 -40 -16t-40 -14q30 -16 62 -42 q70 -58 122 -131t92 -155q22 -46 45 -94t25 -100q2 -64 -39 -109t-95 -69q-144 -62 -293 -73t-303 3q-26 -14 -56 -11t-46 29q-18 10 -30 27t-12 41q0 14 5 27t13 23q-2 62 8 123t20 123q14 80 17 161t7 161zM342 1360q-4 -120 -9 -241t-11 -241q76 8 153 23t147 43 q28 10 63 30t53 36q28 28 43 48t33 60q-4 -6 -1 4t5 18q0 2 1 9t1 13q-6 20 -9 26t-7 10q0 2 -7 10t-11 10q-10 10 -22 18q-16 10 -35 21t-35 17q-84 34 -173 54t-179 32zM290 384q-10 -56 -21 -113t-11 -115q122 -10 243 -3t237 53q24 8 48 24q10 20 6 28q-10 32 -23 61 t-31 63q-16 34 -34 65t-40 61l-20 24l-24 30q-14 14 -31 29t-27 21q-58 42 -120 64t-130 28q-4 -80 -7 -160t-15 -160z" />
<glyph unicode="C" horiz-adv-x="1014" d="M114 324q-48 116 -66 238q-10 70 -17 141t13 141q10 44 26 85t32 83q12 32 17 64t15 66q20 72 60 125t106 87q62 34 128 54t134 32q62 12 125 18t127 -2q34 -4 57 -24t23 -54q0 -30 -23 -57t-57 -23q-6 0 -12 1t-12 1q-60 4 -121 -3t-119 -21q-34 -10 -68 -19t-66 -23 q-22 -10 -44 -22q-16 -8 -22 -14q-38 -32 -50 -60t-19 -59t-13 -63t-16 -60q-16 -40 -32 -82t-26 -86q-6 -30 -4 -60t6 -60q4 -52 13 -108t25 -108t43 -99t67 -83q50 -42 114 -61t128 -27q80 -12 156 -2t144 56q32 20 61 9t44 -36t12 -58t-35 -53q-96 -64 -205 -75t-219 5 q-74 10 -144 31t-130 67q-104 76 -156 198z" />
<glyph unicode="D" horiz-adv-x="1140" d="M1046 494q-10 -122 -72 -217t-164 -161q-68 -42 -146 -76t-156 -52q-70 -16 -137 -14t-135 10q-16 -18 -39 -25t-45 -1q-46 12 -56 58q-24 24 -24 58q0 44 40 70q12 80 19 160t11 162q6 96 10 190t2 190q0 60 -4 124t-4 127t7 125t29 120q-10 32 4 66t54 42q24 26 57 24 t55 -22q98 -8 191 -37t171 -93q96 -76 154 -183t94 -221q16 -50 33 -102t30 -106t19 -108t2 -108zM712 244q26 16 47 32t43 38q18 20 28 32t24 36q34 70 32 158q0 50 -8 93t-24 97q-16 56 -33 111t-39 107q-16 44 -43 95t-55 85q-70 84 -158 121t-192 43q-22 -56 -27 -117 t-3 -123t7 -124t3 -120q-8 -170 -15 -336t-29 -334q36 -4 73 -6t73 2q76 8 153 39t143 71z" />
<glyph unicode="E" horiz-adv-x="1040" d="M92 1204q-40 12 -48 52q-10 28 6 61t50 37q194 30 389 33t391 5q38 0 58 -24t20 -54t-20 -55t-58 -25q-156 -4 -314 -4t-316 -16q4 -80 10 -159t12 -159q152 8 303 20t303 4q38 -2 58 -28t20 -56t-20 -54t-58 -22q-150 8 -297 -4t-297 -20q12 -144 23 -287t15 -287 q70 16 142 31t144 24t144 9t144 -12q32 -6 48 -38t8 -60q-10 -34 -38 -48t-62 -8q-64 12 -130 8t-130 -14q-74 -12 -147 -28t-145 -34q-34 -8 -64 12q-28 4 -50 22t-22 54q-4 170 -15 336t-25 334q-22 22 -25 55t17 57q-16 170 -24 342z" />
<glyph unicode="F" horiz-adv-x="934" d="M162 -64q-30 0 -57 24t-23 56q32 320 32 640t-2 642q-16 24 -17 55t21 53q12 36 48 46t68 -6q94 20 190 23t192 0t193 -6t193 3q38 2 57 -21t19 -53t-19 -57t-57 -29q-90 -6 -182 -2t-184 7t-182 1t-180 -20q0 -138 1 -274t1 -274q62 0 126 2t127 2t126 -5t125 -19 q38 -10 50 -38t4 -57t-33 -49t-63 -10q-114 26 -231 20t-233 -6q-4 -142 -10 -283t-20 -285q-4 -32 -25 -56t-55 -24z" />
<glyph unicode="G" horiz-adv-x="1200" d="M312 -34q-60 38 -108 94t-84 122t-60 136t-36 140q-12 66 -14 135t18 135q16 52 43 100t59 92q78 108 174 204t210 168q52 34 109 60t116 38t119 7t120 -33q30 -14 38 -48t-8 -60q-18 -30 -49 -36t-61 8q-34 16 -86 12q-20 0 -49 -7t-57 -19q-58 -22 -115 -61t-107 -81 q-88 -76 -165 -165t-129 -193q-6 -14 -12 -42t-8 -48q-4 -58 6 -114q12 -66 33 -131t55 -123q32 -54 75 -107t107 -69q68 -18 140 8q16 6 30 13l30 15l12 8l12 8q46 40 82 84t68 92q16 28 33 57t27 57q10 26 16 47t6 43q-20 8 -40 8h-42q-56 -2 -111 -8t-113 -6 q-38 0 -57 25t-19 55t19 54t57 24q54 0 108 6t108 8t106 -4t104 -28q52 -20 88 -72q22 -34 19 -76t-3 -82q-4 -86 -5 -171t-3 -169q0 -40 -26 -59t-56 -19t-54 19t-24 59q2 40 2 80t2 80q-58 -92 -130 -170q-48 -52 -112 -89t-133 -53t-141 -8t-134 50z" />
<glyph unicode="H" horiz-adv-x="1084" d="M112 682q2 170 -3 337t-45 333q-10 38 10 63t49 33t57 -4t38 -50q42 -170 46 -343t2 -349q62 -6 124 -13t124 -10t123 0t121 19q16 6 34 2q6 90 16 177t12 177q4 96 -4 190t-18 190q-4 32 22 56t58 24q34 0 54 -24t24 -56q10 -96 19 -190t5 -190t-15 -187t-15 -187 q-10 -156 -14 -313t6 -313q2 -40 -22 -59t-54 -19t-56 19t-28 59q-8 120 -7 242t7 244q-64 -16 -128 -19t-128 0t-129 10t-129 13q2 -112 11 -222t37 -220q10 -38 -9 -63t-48 -33t-58 4t-37 50q-34 128 -42 257t-10 261q-16 22 -16 52t16 52z" />
<glyph unicode="I" horiz-adv-x="910" d="M36 0q-36 10 -48 40t-4 58t33 47t61 9q80 -24 160 -30t164 -2q-34 142 -34 285t11 286t22 287t1 288q-76 2 -153 7t-153 15q-34 4 -57 24t-23 54q0 30 23 57t57 23q92 -10 185 -17t185 -5t183 16t181 46q30 10 59 -8t39 -48q10 -34 -7 -61t-49 -37q-150 -52 -312 -62 q12 -142 0 -286t-24 -286t-11 -284t37 -282q64 6 126 12t124 10q38 2 57 -21t19 -53t-19 -56t-57 -28q-98 -6 -195 -17t-194 -16t-194 1t-193 34z" />
<glyph unicode="J" horiz-adv-x="942" d="M352 -74q-64 20 -120 57t-105 83t-91 99t-76 109q-20 32 -8 61t38 44t57 11t51 -36q26 -42 59 -86t74 -84t87 -69t96 -41q22 -4 44 -4t46 10q20 6 32 18q36 46 47 86t15 78q12 110 6 220t-18 220q-14 124 -18 248t-28 246q-96 -4 -188 -1t-188 19q-32 6 -48 38t-8 60 q10 34 38 48t62 8q106 -18 212 -17t213 5t213 4t212 -18q34 -6 50 -38t6 -60q-10 -34 -37 -48t-61 -8q-78 14 -157 16t-159 -2q16 -90 21 -179t11 -179q4 -52 9 -101t11 -101q10 -120 15 -246t-29 -244q-14 -54 -42 -104t-74 -84q-58 -40 -130 -50t-140 12z" />
<glyph unicode="K" horiz-adv-x="980" d="M108 680q-8 168 -26 333t-40 331q-4 34 9 61t47 37q28 8 61 -7t37 -49q22 -162 40 -322t28 -324q18 6 32 4q84 30 164 71t148 97q50 42 87 90t67 106q28 58 59 115t75 105q26 28 57 25t52 -24t26 -53t-21 -60q-46 -52 -74 -114t-62 -120q-66 -112 -172 -198 q-54 -42 -112 -77t-120 -63q42 -24 81 -53t71 -69q36 -46 68 -95t72 -95q38 -40 78 -77t80 -75q28 -26 24 -57t-25 -52t-53 -26t-60 21l-80 76t-76 78q-40 44 -72 91t-66 93q-44 60 -106 95t-124 73q-12 -54 -12 -102t-2 -96q-2 -84 -3 -166t13 -166q4 -32 -9 -60t-47 -38 q-28 -8 -60 8t-38 48q-24 144 -19 291t5 293q-22 38 -2 78v18z" />
<glyph unicode="L" horiz-adv-x="880" d="M170 -16q-32 0 -51 17t-25 40t1 47t27 40q16 68 8 137t-16 137q-10 84 -6 165t16 165t26 167t24 167q10 90 17 178t11 178q0 38 26 58t56 20t54 -20t22 -58q-4 -94 -11 -186t-17 -188q-10 -88 -25 -172t-27 -172q-12 -84 -12 -165t10 -165q6 -58 11 -116t-3 -116 q150 -4 300 -15t300 -17q38 -2 57 -28t19 -56t-19 -54t-57 -22q-182 8 -359 21t-357 13z" />
<glyph unicode="M" horiz-adv-x="1298" d="M282 40q0 -38 -25 -57t-55 -19t-55 19t-25 57q0 320 8 637t38 635q4 34 25 54t46 23t50 -10t37 -45q40 -114 74 -229t67 -231t68 -231t77 -227q104 262 189 526t137 542q6 30 28 44t49 14t49 -14t28 -44q16 -90 11 -177t-5 -177q0 -96 11 -188t19 -186q16 -188 24 -376 t14 -376q0 -40 -24 -59t-54 -19t-56 19t-26 59q-4 188 -13 376t-25 376q-4 34 -7 70t-7 70q-58 -182 -125 -358t-139 -352q-10 -24 -29 -41t-47 -17q-20 0 -40 11t-30 29q-80 176 -136 358t-110 368q-10 -214 -13 -427t-3 -427z" />
<glyph unicode="N" horiz-adv-x="1022" d="M88 1172q-4 4 -7 8t-7 8q-24 24 -23 51t16 48t40 32t51 1q32 4 61 -15t29 -61q102 -122 192 -240t164 -250q34 -60 63 -123t55 -127q0 82 7 162t17 164q22 172 43 343t23 347q0 38 25 57t55 19t55 -19t25 -57q-2 -180 -25 -355t-45 -351q-10 -90 -16 -177t-4 -177 q2 -86 5 -170t-1 -170q-2 -30 -19 -49t-41 -25t-48 2t-40 32q-46 70 -78 147t-60 153q-28 74 -58 143t-68 137q-50 90 -107 172t-121 160v-161t4 -161q4 -144 20 -285t34 -283q4 -34 -23 -57t-55 -23q-36 0 -56 23t-24 57q-20 142 -36 283t-20 285q-4 126 -3 251t1 251z" />
<glyph unicode="O" horiz-adv-x="1118" d="M300 98q-46 34 -83 77t-67 91q-28 42 -54 90t-46 98t-31 102t-7 104q6 102 21 201t41 195q8 36 20 80t31 85t45 75t66 52q60 26 120 19t117 -33t109 -63t98 -73q42 -34 83 -71t85 -71q52 -46 105 -92t87 -106q40 -68 46 -137t-10 -136t-50 -131t-74 -124 q-36 -52 -83 -110t-104 -106t-122 -76t-137 -20q-42 6 -62 32q-38 6 -74 16t-70 32zM172 674q-4 -50 5 -92t31 -94q28 -58 62 -117t80 -107q40 -44 92 -54q34 -6 66 -11t64 -15q12 4 24 9t24 15q34 22 62 48t54 54q50 56 97 122t75 136t22 132t-58 120q-48 54 -105 99 t-111 91q-46 40 -90 76t-96 68q-48 32 -94 48q-6 2 -11 3t-11 3l-30 2q-16 -4 -20 -8q-14 -16 -16 -16q-14 -24 -18 -34t-12 -32q-20 -58 -34 -117t-24 -117t-17 -106t-11 -106z" />
<glyph unicode="P" horiz-adv-x="816" d="M100 1158q-4 32 -9 62t-7 60q-4 36 -1 76t16 76t37 64t66 40q64 18 130 -5t124 -51q56 -28 110 -60t112 -60q30 -14 60 -30t53 -37t38 -50t17 -67q2 -40 -13 -78t-31 -74q-90 -200 -230 -374q-52 -64 -117 -119t-147 -71q18 -114 41 -224t53 -222q10 -38 -9 -63t-47 -33 t-58 4t-40 50q-64 244 -98 489t-44 499q-2 34 -2 66t-2 66v27t-2 25v14zM242 1352q-2 -44 4 -94q2 -22 3 -28t1 -10l6 -36q6 -60 6 -122q4 -88 7 -175t11 -175q2 -24 3 -48t5 -46q20 6 28 11t16 9q12 8 18 14q50 40 84 80t64 82q66 92 118 190q10 22 20 41t20 41q4 10 8 18 t8 18q10 24 14 40q0 14 -6 20q-28 16 -42 22q-58 28 -112 57t-112 61q-28 16 -57 30t-61 24q-6 2 -13 4t-13 2q-14 2 -16 1t-4 -1q-4 -6 -5 -12t-3 -10v-8z" />
<glyph unicode="Q" horiz-adv-x="1128" d="M340 76q-94 54 -157 138t-97 184t-42 209t6 215q8 62 21 128t35 130t55 122t79 104q80 78 184 96t208 -24q108 -44 198 -127t140 -189q58 -120 65 -253t-27 -261q-34 -132 -102 -248q22 -28 45 -55t49 -55t21 -60t-26 -53t-52 -24t-57 25q-38 40 -74 86q-40 -48 -94 -96 q-26 -22 -57 -49t-67 -48t-73 -32t-75 -1q-52 12 -74 52t-32 86zM250 998q-38 -120 -48 -247t18 -247q22 -84 62 -155t108 -117q6 2 20 2q26 0 44 -13t28 -35q44 -18 50 -62q26 18 42 30t32 28q30 28 57 56t49 60q-26 38 -53 75t-55 73q-22 26 -24 57t24 55q22 22 56 24 t56 -24q22 -28 43 -57t43 -57q32 70 52 142t23 145t-10 143t-49 132q-24 42 -55 82t-70 72t-83 55t-92 31q-34 8 -75 0t-69 -34q-48 -42 -77 -98t-47 -116z" />
<glyph unicode="R" horiz-adv-x="932" d="M868 50q-16 -28 -49 -38t-61 10q-54 40 -104 83t-108 77q-52 32 -104 59t-100 63q-58 44 -108 96q-2 -100 2 -199t12 -199q4 -34 -22 -57t-56 -23q-36 0 -56 23t-24 57q-12 144 -14 283t6 281q-16 22 -32 45t-30 47q-12 24 -9 46t16 38t32 26t41 8q4 46 10 93t12 93 q6 32 11 63t9 63q4 16 5 30t5 30q0 8 4 20q2 26 2 51t2 51q2 32 7 69t16 72t31 65t54 46q32 14 65 16t66 -4t65 -17t62 -23q70 -26 139 -59t123 -85q52 -52 90 -123t34 -147q-4 -46 -19 -81t-41 -71q-64 -90 -138 -172t-158 -150q-40 -32 -87 -64t-99 -54l36 -32t38 -28 q52 -34 105 -63t103 -63q48 -34 94 -72t92 -72q28 -18 37 -48t-7 -60zM328 644q48 26 87 55t77 63q40 36 78 76t74 80q14 18 26 32t22 27t21 28t23 35l8 12l8 12q2 56 -24 104q-34 58 -85 94t-113 60q-36 16 -72 28t-76 22q-10 4 -30 8q-12 -4 -16 -12q-8 -26 -8 -36 q-2 -6 -6 -22q-2 -20 -3 -31t-1 -23q-6 -138 -29 -272t-37 -272q-4 -22 -5 -45t-3 -45q18 -2 20 0q22 4 35 9t29 13z" />
<glyph unicode="S" horiz-adv-x="842" d="M478 548q-48 50 -102 93t-107 86t-103 90t-92 103q-44 58 -69 127t-9 143q16 80 78 140t134 94q78 34 158 47t162 16t165 0t165 1q38 2 57 -22t19 -54t-19 -55t-57 -27q-58 -4 -115 -3t-115 3q-78 2 -157 -2t-155 -32q-26 -10 -56 -25t-55 -37t-41 -48t-14 -56 q2 -28 14 -55t31 -53t41 -50t42 -44q46 -46 96 -84t100 -78q52 -42 105 -93t92 -110t58 -125t5 -140q-14 -70 -53 -119t-92 -88t-112 -70t-113 -63q-34 -20 -63 -8t-44 38t-12 57t37 51q48 28 96 52t94 54q44 28 77 67t33 91q-2 52 -33 100t-71 88z" />
<glyph unicode="T" horiz-adv-x="784" d="M28 1236q-32 -4 -56 22t-24 58q0 34 24 55t56 25q100 8 198 8t198 -6q28 10 60 -4q186 -14 376 -48q32 -6 48 -38t6 -60q-10 -34 -37 -47t-61 -9q-76 14 -150 24t-150 16q-28 -140 -33 -280t9 -284q14 -148 40 -293t54 -291q6 -34 -7 -61t-47 -37q-30 -10 -61 6t-37 48 q-32 162 -61 321t-43 321q-12 142 -6 282t32 278q-164 6 -328 -6z" />
<glyph unicode="U" horiz-adv-x="990" d="M80 544q-22 200 -30 397t-30 395q-4 34 23 57t57 23q36 0 56 -23t24 -57q14 -120 21 -237t13 -237q8 -174 30 -352q2 -22 5 -50t5 -42q4 -28 9 -54t11 -52q12 -50 27 -91t45 -69l18 -10q16 -4 28 -4q14 2 41 11t47 23q54 36 92 90t66 112q32 64 56 132t40 138 q40 176 35 354t-27 354q-4 32 23 56t55 24q36 0 56 -24t24 -56q26 -192 28 -389t-48 -385q-18 -68 -42 -140t-57 -139t-77 -128t-100 -105t-124 -70t-138 -12q-54 10 -97 47t-69 83q-52 100 -68 211t-28 219z" />
<glyph unicode="V" horiz-adv-x="940" d="M360 -6q-72 166 -122 341t-87 352t-69 356t-70 355q-8 38 12 64t49 34t57 -4t36 -50q38 -176 70 -351t70 -351q28 -134 61 -267t79 -265q16 28 30 57t28 59q78 170 138 348t107 364t53 374q0 38 26 57t56 19t54 -19t22 -57q-4 -202 -54 -401t-114 -391q-34 -98 -72 -193 t-82 -191q-34 -68 -70 -133t-82 -123q-12 -14 -30 -20t-37 -3t-35 13t-24 26z" />
<glyph unicode="W" horiz-adv-x="1696" d="M416 56q-18 -26 -42 -34t-47 -1t-41 26t-20 49q-4 28 -4 36q-4 16 -6 32t-6 32q-8 40 -15 80t-17 80q-22 102 -46 201t-46 199q-22 90 -44 181t-44 181q-8 30 -14 60t-14 60q-4 16 -8 35t-2 35q4 34 25 57t55 23q30 0 57 -23t23 -57q2 -12 3 -20t5 -18q6 -32 13 -62 t13 -60q22 -94 45 -185t45 -183q22 -100 45 -198t45 -198q4 -20 8 -38l8 -36q66 102 127 207t115 215q66 134 118 278t62 294q2 32 24 52t48 24t51 -9t33 -47q34 -128 61 -260t56 -262t66 -258t93 -250q58 76 102 159t72 177q48 156 65 317t33 323q4 32 25 56t55 24 q30 0 57 -23t23 -57q-18 -178 -36 -353t-72 -345q-46 -138 -117 -254t-167 -224q-26 -28 -67 -23t-59 39q-54 96 -94 198t-70 206t-54 211t-46 213q-52 -138 -118 -272q-78 -160 -170 -311t-190 -299z" />
<glyph unicode="X" horiz-adv-x="998" d="M432 652q-96 174 -189 345t-191 343q-18 32 -6 61t37 44t56 11t51 -36q88 -154 171 -307t167 -307q102 164 187 334t147 352q12 36 42 48t59 4t46 -33t5 -61q-70 -212 -169 -407t-219 -383q66 -148 141 -278t159 -260q20 -32 9 -61t-37 -44t-58 -11t-52 36 q-72 112 -139 225t-131 229l-108 -150q-22 -28 -46 -61t-45 -67t-34 -70t-13 -72q0 -40 -24 -59t-54 -19t-56 19t-26 59q0 90 43 171t95 151q46 64 92 127t90 127z" />
<glyph unicode="Y" horiz-adv-x="796" d="M-104 1340q-34 18 -38 49t11 57t44 38t63 -6q106 -56 176 -141t116 -193q30 -70 59 -138t75 -126q74 64 134 142t112 163t99 173t95 170q20 32 51 36t57 -11t38 -44t-8 -63q-52 -88 -103 -179t-106 -179t-118 -169t-139 -151q-8 -182 -11 -361t11 -361q2 -32 -24 -55 t-56 -23q-34 0 -56 23t-24 55q-12 164 -11 326t7 326q-18 12 -30 30q-68 74 -108 156t-78 172t-93 163t-145 121z" />
<glyph unicode="Z" horiz-adv-x="1066" d="M946 380q30 10 59 -8t39 -48q10 -34 -8 -61t-48 -37q-110 -40 -216 -85t-220 -75q-56 -16 -114 -25t-115 -9t-113 14t-108 44q-30 16 -37 48t7 60q78 162 179 305t217 279q94 110 186 218t176 228q-78 34 -164 51t-173 20t-174 -5t-167 -24q-32 -6 -60 8t-38 48 q-8 30 7 61t49 37q106 20 220 29t228 0t223 -40t205 -87q28 -16 37 -48t-7 -60q-94 -144 -202 -272t-218 -258q-98 -116 -185 -236t-159 -252q72 -18 148 -5t146 35q102 30 200 71t200 79z" />
<glyph unicode="[" horiz-adv-x="620" d="M542 -102q-90 -12 -179 -9t-179 5q-28 2 -55 24t-23 56q18 168 16 334t-6 336q-4 138 -4 274t-6 274q-4 56 -4 112t4 114q4 42 11 94t35 88q36 48 86 64t106 16t112 -9t108 -9q38 0 57 -26t19 -56t-19 -54t-57 -24q-52 2 -101 9t-99 9h-42t-38 -8q-18 -54 -21 -100 t-3 -94t3 -96t5 -92q4 -60 2 -120t0 -120q0 -76 2 -154t6 -154q4 -134 4 -266t-10 -264q68 -4 135 -4t135 10q32 4 56 -24t24 -56q0 -36 -24 -56t-56 -24z" />
<glyph unicode="\" horiz-adv-x="696" d="M138 1478q64 -186 145 -366t161 -360t152 -363t118 -375q8 -38 -11 -63t-48 -33t-58 4t-37 50q-46 192 -117 375t-152 363l-162 360t-145 366q-12 36 5 61t46 33t60 -4t43 -48z" />
<glyph unicode="]" horiz-adv-x="620" d="M58 1658q90 12 178 10t178 -6q30 -2 57 -24t23 -56q-18 -168 -17 -334t7 -336q4 -138 4 -274t6 -274q2 -56 3 -112t-3 -112q-4 -44 -11 -96t-35 -88q-36 -48 -86 -64t-106 -16t-113 9t-107 9q-38 0 -57 26t-19 56t19 54t57 24q52 -2 101 -9t99 -9q24 0 42 1t36 7 q30 96 26 194t-8 190q-4 58 -2 118t0 120q-2 76 -3 154t-5 156q-4 132 -4 265t10 265q-68 2 -135 2t-135 -8q-34 -4 -57 23t-23 57q0 34 23 54t57 24z" />
<glyph unicode="^" horiz-adv-x="794" d="M652 1148q12 -44 18 -92t14 -95t21 -92t37 -85q20 -34 9 -63t-37 -44t-58 -11t-52 38q-26 42 -41 88t-24 93t-16 95t-19 94q-12 54 -30 110t-46 104q-26 -52 -43 -109t-43 -109q-16 -34 -39 -69t-45 -71t-38 -74t-20 -78q-4 -34 -24 -57t-56 -23q-30 0 -56 23t-22 57 q4 54 22 101t42 92t51 89t49 92q18 42 34 85t32 84t38 81t52 76q22 26 56 23t58 -23q72 -62 112 -151t64 -179z" />
<glyph unicode="_" horiz-adv-x="1690" d="M1614 104q38 0 57 -25t19 -55t-19 -54t-57 -24q-192 2 -384 7t-384 7t-383 -2t-383 -20q-34 -2 -57 24t-23 56q0 34 23 55t57 25q192 16 383 20t383 2t384 -8t384 -8z" />
<glyph unicode="`" horiz-adv-x="1126" d="M476 1480q64 -50 131 -90t139 -76q34 -18 39 -48t-11 -56t-46 -39t-64 5q-156 80 -300 190q-26 22 -24 57t24 57q26 26 56 23t56 -23z" />
<glyph unicode="a" horiz-adv-x="994" d="M234 54q-68 30 -107 83t-54 117t-9 133t28 133q18 50 41 104t55 100t76 79t104 43q62 10 125 7t125 -13q28 -4 54 -13t52 -19q2 30 27 50t53 20q34 0 55 -23t25 -55q10 -92 9 -184t-6 -184t-8 -184t1 -184q2 -38 -23 -57t-55 -19t-55 19t-27 57q-114 -48 -242 -55 t-244 45zM248 488q-12 -36 -22 -82t-6 -88t26 -77t72 -49q102 -32 205 -18t193 72q8 98 13 190t3 186q-34 22 -69 39t-77 23t-89 9t-91 -1q-4 0 -21 -5t-19 -7q-20 -10 -36 -32q-26 -36 -46 -77t-36 -83z" />
<glyph unicode="b" horiz-adv-x="1030" d="M92 1492q-2 38 22 58t54 20t56 -20t28 -58q8 -162 26 -322t14 -322q106 32 217 45t217 -15q64 -16 123 -52t89 -100q26 -58 35 -118t5 -124q-6 -74 -29 -138t-69 -122q-42 -54 -95 -103t-117 -79q-38 -16 -75 -17t-73 10t-70 28t-66 37t-62 39t-58 45l-12 -40 q0 -40 -25 -59t-55 -19t-55 19t-25 59q-2 132 10 260t22 258q-24 36 -20 66t26 48q2 18 2 36v36q4 162 -14 322t-26 322zM282 672q-4 -70 -10 -138t-12 -138q46 -34 86 -73t90 -67q12 -8 33 -23t44 -29t46 -21t39 3q42 22 80 53t69 70t50 83t21 92q4 42 1 88t-23 84 q-22 38 -63 54t-85 22q-92 14 -185 -5t-181 -55z" />
<glyph unicode="c" horiz-adv-x="756" d="M664 156q8 -28 -8 -60t-48 -38q-108 -18 -214 3t-196 91q-88 70 -125 179t-13 219q22 98 92 170t160 112q80 38 168 60t176 14q34 -4 57 -25t23 -55q0 -30 -23 -56t-57 -24q-64 6 -126 -6t-120 -38q-34 -16 -67 -34t-57 -40q-26 -24 -43 -48t-25 -56t-6 -68t13 -71 t31 -64t48 -49q58 -42 127 -57t135 -3q32 6 60 -8t38 -48z" />
<glyph unicode="d" horiz-adv-x="918" d="M304 730q72 44 155 76t169 30q-8 170 -13 338t-7 338q0 38 24 57t54 19t55 -19t25 -57q2 -198 10 -397t16 -397t12 -397t-2 -397q-2 -38 -28 -58t-56 -20t-54 19t-22 59v28t2 28q-20 2 -39 3t-37 1h-48t-46 2q-52 4 -104 10t-102 24q-50 20 -94 49t-72 77q-32 50 -53 108 t-17 120t28 114t61 96t84 80t99 66zM646 138q0 268 -12 538q-66 4 -131 -23t-119 -61q-30 -18 -65 -41t-64 -52t-47 -63t-18 -74q2 -36 16 -77t38 -67t54 -39t64 -21q40 -8 77 -10t77 -4q32 0 64 -3t66 -3z" />
<glyph unicode="e" d="M150 776q38 52 91 92t113 63t124 24t128 -25q62 -24 112 -65t78 -105q22 -48 26 -104t-30 -102q-30 -42 -73 -64t-92 -32t-100 -10t-97 2q-52 2 -103 8t-103 12q16 -90 64 -160t130 -106q22 -8 34 -12q6 -2 11 -3t11 -1q16 -2 27 -3t21 1q14 2 19 3t11 3q22 6 39 14 t41 26q12 10 32 30t34 36q20 28 49 38t59 -8q26 -16 37 -49t-9 -61q-58 -78 -137 -133t-181 -59q-82 -4 -158 29t-134 89q-72 70 -114 162t-46 188q-18 14 -27 35t-6 43t15 41t36 25q22 74 68 138zM630 728q-22 28 -68 50q-38 16 -89 16t-87 -18q-46 -22 -82 -61t-58 -87 l96 -12t96 -8h52t52 2q8 0 15 1t15 1q18 4 27 5t19 5q8 2 20 6q10 4 12 6t6 4l6 24q-4 8 -5 15t-5 13q-2 6 -9 18t-13 20z" />
<glyph unicode="f" horiz-adv-x="664" d="M182 1168q20 128 91 236t173 186q58 46 122 58t132 -26q52 -30 105 -64t83 -88q20 -34 8 -63t-38 -44t-57 -11t-49 38q-10 18 -28 31t-34 23q-18 10 -40 26t-44 20q-18 6 -36 -3t-35 -24t-32 -32t-27 -29q-72 -76 -109 -164t-35 -194q2 -72 12 -144q58 4 117 8t117 8 q34 4 57 -22t23 -58q0 -34 -23 -55t-57 -23q-52 -4 -105 -8t-105 -8l12 -68l12 -68q24 -142 49 -280t37 -282q4 -34 -22 -57t-58 -23q-34 0 -55 23t-25 57q-12 160 -42 315t-56 311q-4 16 -5 32t-5 32q-58 -4 -117 -6t-119 -2q-38 0 -57 25t-19 55t19 55t57 25q106 0 212 6 q-10 70 -12 138t8 138z" />
<glyph unicode="g" horiz-adv-x="840" d="M106 -512q44 -42 102 -59t116 -11t110 34t86 78q72 102 93 225t17 247q-96 -16 -197 -7t-191 43q-46 18 -87 43t-65 71q-42 78 -36 172q4 90 31 175t61 169q18 40 39 85t55 81q34 38 78 58t94 24q-8 28 0 53t34 41t61 8t49 -36q8 -18 15 -36t13 -36q40 -108 73 -218 t63 -222q36 -132 54 -268t14 -276q-2 -78 -13 -160t-37 -158t-68 -145t-108 -119q-62 -48 -137 -69t-152 -17t-150 34t-129 84q-28 26 -24 57t25 52t52 25t59 -22zM328 178q70 -18 145 -25t145 9q-12 102 -35 196t-51 190q-16 56 -33 110t-35 108q-6 -4 -14 -5t-18 -3 q-60 0 -92 -54q-22 -34 -36 -72q-4 -10 -8 -19t-8 -19q-30 -72 -51 -139t-25 -131v-36q2 -14 4 -22q4 -18 5 -22t11 -20q12 -10 22 -16t12 -8q16 -6 31 -12t31 -10z" />
<glyph unicode="h" horiz-adv-x="988" d="M120 40q-28 10 -47 39t-7 59q34 94 46 190t16 196q2 30 2 59t2 59q-6 24 4 46q4 58 8 117t12 117q10 88 21 175t15 177q4 82 9 163t41 155q18 34 48 39t56 -10t39 -45t-5 -64q-16 -34 -22 -70t-7 -74t-1 -76t-2 -74q-10 -90 -20 -179t-20 -179q84 42 186 46q80 2 163 -27 t135 -93q30 -38 48 -83t29 -94t15 -98t8 -95q6 -94 5 -187t-5 -189q0 -38 -26 -57t-56 -19t-54 19t-22 57l4 160t-2 160q-4 40 -6 82t-10 84q-4 20 -7 39t-9 39q-2 16 -10 34q-6 18 -8 20q-4 6 -6 11t-6 11q-18 20 -22 22q-8 6 -14 9t-12 7q-22 12 -50 20t-54 8 q-68 4 -127 -24t-105 -86q-4 -138 -14 -273t-58 -267q-10 -30 -37 -48t-61 -8z" />
<glyph unicode="i" horiz-adv-x="460" d="M94 20q16 96 37 189t31 189q8 94 3 185t11 185q4 32 37 48t61 8q34 -10 47 -38t9 -60q-8 -46 -7 -94t3 -96q0 -92 -12 -184q-12 -96 -31 -188t-35 -186q-6 -32 -38 -48t-60 -8q-34 10 -48 38t-8 60zM190 940q-14 4 -28 13t-20 23q-6 16 -10 28t-4 28q0 18 6 36 q8 36 32 52q8 12 22 18q22 14 50 15t50 -15q10 -8 20 -17t16 -23q4 -10 9 -22t3 -24q-2 -14 -4 -26t-10 -22q-10 -14 -16 -20t-20 -16q-8 -8 -24 -12q-42 -24 -72 -16z" />
<glyph unicode="j" horiz-adv-x="462" d="M-424 -572q-30 26 -26 56t25 51t53 26t60 -21q80 -70 189 -112t217 -32q40 4 79 20t61 50q28 40 37 86t11 94q2 134 -31 265t-63 261q-34 142 -56 286t-6 288q4 34 24 57t56 23q30 0 57 -23t23 -57q-16 -162 13 -320t67 -316q18 -70 35 -144t28 -149t12 -150t-15 -147 q-14 -64 -45 -119t-83 -95q-50 -38 -113 -55t-125 -17q-134 2 -260 54t-224 140zM170 1054q-22 14 -32 36t-6 46q-4 50 21 73t57 23h19t19 -4q6 -2 11 -4t11 -4q36 -12 48 -38q8 -12 11 -29t-3 -31q-6 -18 -12 -30q-10 -26 -36 -40t-54 -8q-32 -4 -54 10z" />
<glyph unicode="k" horiz-adv-x="892" d="M130 432q-8 24 -2 50q-14 242 -30 481t2 481q4 34 25 57t55 23q32 0 58 -23t22 -57q-16 -218 -4 -431t26 -431q112 70 225 136t221 140q32 22 61 11t44 -37t11 -58t-36 -54q-108 -74 -219 -139t-223 -133q134 -90 266 -182t258 -194q26 -22 24 -57t-24 -57 q-26 -24 -57 -22t-57 22q-116 94 -236 178t-244 168q2 -76 1 -154t-5 -154q-2 -40 -27 -59t-55 -19t-54 19t-22 59q4 108 3 217t-7 219z" />
<glyph unicode="l" horiz-adv-x="430" d="M214 1570q36 0 56 -24t24 -56q20 -190 22 -380t-5 -380t-21 -380t-28 -378q-4 -34 -25 -57t-55 -23q-30 0 -56 23t-24 57q14 188 29 378t22 380t5 380t-22 380q-4 32 22 56t56 24z" />
<glyph unicode="m" horiz-adv-x="1496" d="M262 -26q-28 -10 -61 6t-37 48q-28 176 -35 349t-7 349q0 30 16 48t38 24t46 2t40 -20q46 38 98 66t105 37t105 -6t98 -63q38 -40 66 -85t50 -95q30 76 84 140t138 86q62 16 98 -7t68 -71q34 -50 63 -102t55 -106t50 -108t48 -106q28 -58 49 -115t27 -121q4 -34 -23 -57 t-57 -23q-34 0 -55 23t-25 57q-4 48 -25 93t-41 89q-22 46 -43 94t-43 94t-47 92t-53 90l-8 12l-8 12q-40 -22 -58 -42t-34 -54q-14 -30 -23 -63t-15 -67q-12 -64 -18 -134q-4 -52 1 -100t-5 -100q-6 -32 -37 -48t-61 -8q-28 8 -41 29t-17 49q-8 64 -18 132t-26 135t-41 130 t-65 117q-28 36 -57 48t-71 -10q-46 -24 -90 -58t-78 -76q2 -128 9 -255t27 -253q4 -34 -9 -61t-47 -37z" />
<glyph unicode="n" horiz-adv-x="832" d="M104 192q0 86 12 174q14 106 28 211t12 213q0 38 24 58t54 20t56 -20t26 -58q78 6 148 6q80 -2 136 -46t84 -118q24 -68 28 -140t6 -144q2 -102 6 -203t4 -203q0 -40 -25 -59t-54 -19t-54 19t-25 59q0 96 -3 188t-7 188q-4 52 -3 107t-9 101q-6 28 -12 49t-22 41 q-4 8 -17 14t-23 6q-30 0 -56 -4t-54 -12l-24 -8t-22 -10q-20 -72 -29 -137t-17 -131q-6 -48 -7 -97t-4 -97t-12 -96t-31 -92q-18 -34 -48 -39t-55 10t-38 45t3 64q18 36 20 78t4 82z" />
<glyph unicode="o" horiz-adv-x="1094" d="M578 922q64 8 134 5t134 -24t116 -63t80 -110q20 -48 21 -97t-14 -94t-44 -86t-67 -75q-82 -74 -180 -126t-206 -80q-46 -12 -95 -21t-99 -9t-98 11t-90 37q-30 18 -36 48q-12 34 -26 64t-27 62t-21 64t-8 66q0 68 29 129t79 107q84 80 194 128t224 64zM804 750 q-54 20 -116 20q-66 2 -132 -13t-126 -41q-56 -22 -115 -61t-87 -95q-16 -30 -15 -61t10 -62t24 -62t27 -61q32 -8 40 -8q4 -2 10 -2h10q40 -4 72 2q22 0 56 8q52 10 100 27t88 37q46 22 90 48t74 54q20 18 38 38q10 10 14 16q10 14 16 21t10 17q8 14 8 22q2 4 3 10t3 10v22 q-2 8 -2 12t-2 8q-6 14 -11 21t-11 15q2 -2 -5 6t-9 10l-16 16q-10 6 -22 14t-24 12z" />
<glyph unicode="p" horiz-adv-x="948" d="M308 -576q2 -38 -21 -57t-53 -19t-56 19t-28 57q-22 320 -26 639t-18 639q-28 44 -4 84q-2 22 -3 41t-3 41q-2 36 20 55t51 21t55 -15t32 -51q34 16 65 30t65 28q28 12 62 23t70 17t71 6t65 -12q60 -24 99 -72t65 -106q24 -56 46 -113t24 -117q2 -62 -18 -116t-55 -98 t-83 -78t-102 -58q-58 -26 -120 -46t-126 -26q-28 -4 -53 2t-47 16q4 -186 9 -368t17 -366zM266 706q4 -92 6 -183t6 -183q12 -8 24 -15t26 -15q16 -10 26 -11t32 3q44 10 88 21t84 31q38 18 72 39t62 55q18 22 28 51t6 63q-2 40 -19 82t-33 78q-10 18 -19 37t-21 35 q-18 18 -28 22q-56 4 -98 -6t-83 -27t-81 -37t-78 -40z" />
<glyph unicode="q" horiz-adv-x="902" d="M1058 -558q-54 -22 -109 -5t-103 41q-40 22 -76 47t-60 65q-22 36 -34 76t-18 80q-24 120 -30 242q0 32 -2 63t-4 63q-102 10 -204 31t-188 73q-58 36 -95 84t-61 110q-18 50 -22 106t8 110t39 102t69 82q52 40 112 64t122 40q66 18 134 29t138 15q6 48 38 63t62 7 q34 -10 47 -37t9 -61q-18 -108 -25 -216t-15 -218q-4 -54 -9 -108t-5 -108q-2 -54 2 -108l8 -108q4 -90 9 -185t37 -181l5 -10t7 -12q18 -24 27 -31t25 -15q26 -12 58 -30t62 -6t59 -8t39 -48q10 -34 -8 -60t-48 -38zM630 482q4 80 9 159t13 159q-50 -4 -98 -12t-96 -22 q-46 -12 -94 -28t-88 -44q-30 -22 -45 -52t-19 -64t2 -68t16 -62q6 -10 7 -13t5 -7q4 -6 12 -19t4 -9l15 -15t15 -13q18 -14 23 -16t11 -6q32 -18 62 -28t70 -20t81 -17t81 -11q2 52 6 104z" />
<glyph unicode="r" horiz-adv-x="838" d="M118 814q2 38 28 57t56 19t53 -19t21 -57q0 -12 -1 -25t-1 -25q64 32 135 55t142 29t138 -11t123 -65q28 -26 25 -56t-24 -51t-53 -26t-62 19q-22 18 -49 26t-58 7t-62 -7t-59 -14q-106 -34 -198 -90q4 -98 12 -196q8 -82 14 -169t34 -165q12 -36 -5 -61t-46 -33t-60 4 t-43 48q-16 46 -22 94l-12 96q-4 46 -9 93t-9 93q-10 108 -13 215t5 215z" />
<glyph unicode="s" horiz-adv-x="974" d="M166 444q-52 38 -74 95t-2 121q20 58 62 104t96 74q60 32 128 50t138 20t139 -13t131 -47q34 -18 38 -48t-11 -56t-45 -38t-64 6q-48 26 -108 34t-121 1t-115 -31t-90 -62q-10 -10 -13 -14t-9 -18l-4 -22q6 -18 10 -22q40 -26 83 -33t87 -9q62 -4 127 -7t126 -17t113 -46 t88 -94q40 -70 37 -145t-59 -135t-130 -83t-150 -33q-68 -8 -141 -4t-140 23t-125 58t-96 103q-18 32 -6 61t37 44t56 11t51 -36q28 -46 78 -70t109 -33t119 -4t108 15q26 6 53 17t46 27t27 37t-2 47q-20 50 -67 72t-99 26t-106 4t-108 5t-106 19t-96 46z" />
<glyph unicode="t" horiz-adv-x="796" d="M698 698q38 0 57 -24t19 -54t-19 -55t-57 -25q-48 -2 -95 1t-93 7q2 -158 -5 -316t-33 -314q-4 -34 -36 -50t-62 -6q-34 10 -47 37t-7 61q24 152 27 304t-1 306q-76 12 -154 25t-154 23q-34 4 -49 37t-7 61q10 34 38 47t60 9q66 -10 132 -21t134 -21q-2 10 -2 30 q0 180 -1 356t17 356q4 32 25 56t55 24q30 0 57 -24t23 -56q-20 -192 -19 -381t5 -383q48 -4 96 -7t96 -3z" />
<glyph unicode="u" horiz-adv-x="1090" d="M946 706q2 -172 24 -344t58 -340q8 -38 -13 -63t-49 -33t-56 4t-36 50q-24 114 -42 224q-8 -10 -14 -19t-14 -19q-40 -48 -92 -83t-111 -54t-121 -21t-122 14q-106 30 -162 104t-80 169t-28 198t-6 191q0 38 24 57t54 19t55 -19t27 -57q2 -80 3 -162t17 -154 q8 -40 18 -69t32 -61q10 -14 11 -16t5 -4q30 -24 40 -29t24 -9q84 -24 170 5t138 105q30 48 45 100t21 105t9 108t11 109q0 60 31 79t65 13q20 -6 32 -14l16 -14q22 -36 16 -70z" />
<glyph unicode="v" horiz-adv-x="794" d="M222 290q-16 52 -29 106t-29 106q-22 86 -66 172q-22 44 -44 89t-32 93q-8 38 13 63t49 33t56 -4t36 -50q10 -48 33 -90t45 -86q22 -46 38 -94t30 -96q16 -52 29 -107t31 -107q6 -20 13 -39t15 -39q20 58 32 101t28 83q22 60 42 119t36 121q16 58 24 117t24 117 q10 36 40 48t58 4t47 -33t9 -61q-20 -66 -28 -133t-28 -131q-18 -64 -41 -127t-45 -127q-14 -44 -28 -91t-33 -91t-47 -82t-70 -64q-38 -22 -70 -4t-48 52q-24 58 -47 116t-43 116z" />
<glyph unicode="w" horiz-adv-x="1324" d="M1292 770q-12 -56 -28 -111t-36 -109q-22 -56 -42 -111t-48 -107q-26 -50 -56 -97t-52 -99q-20 -46 -41 -91t-53 -85q-16 -20 -36 -24t-39 3t-36 23t-23 34q-34 94 -50 189t-42 191q-6 28 -13 54t-15 52q-16 -46 -35 -90t-41 -90q-24 -46 -48 -94t-50 -94 q-22 -46 -52 -85t-72 -67q-34 -22 -69 -4t-47 52q-30 90 -54 183l-48 186t-50 184t-60 181q-12 30 7 59t47 39q34 10 61 -8t37 -48q56 -144 92 -290t76 -294l12 24l43 86l43 86q24 46 43 95t35 99q16 48 30 96t18 100q2 32 23 52t48 24t51 -9t34 -47q28 -102 58 -202 t54 -202q10 -42 18 -83t18 -81q22 48 51 93t53 93q44 90 77 189t53 197q6 34 37 50t61 6q34 -10 48 -38t8 -60z" />
<glyph unicode="x" horiz-adv-x="902" d="M66 190q80 76 158 151t146 163q-64 76 -125 154t-121 156q-22 28 -24 58t24 56q22 22 57 24t55 -24l112 -144t114 -142q40 70 76 142t74 144q18 34 49 38t56 -11t38 -45t-5 -64q-46 -86 -88 -170t-94 -166q76 -96 154 -192l156 -192q22 -26 24 -57t-24 -57 q-22 -22 -56 -24t-56 24q-74 92 -148 183t-148 183q-66 -82 -140 -155t-152 -145q-28 -26 -60 -22t-53 25t-24 52t25 57z" />
<glyph unicode="y" d="M848 900q28 -16 38 -48t-10 -60q-50 -72 -75 -158t-57 -168q-34 -88 -75 -170t-87 -166q-4 -10 -9 -17t-9 -17q8 -32 -9 -57t-45 -35q-82 -140 -165 -277t-165 -277q-20 -34 -51 -38t-57 11t-38 44t8 63q84 144 170 285t170 285q-90 162 -172 327t-168 329q-18 34 -5 63 t38 44t56 11t49 -38q74 -144 146 -287t148 -285q74 136 132 286q30 82 57 167t77 155q18 28 48 37t60 -9z" />
<glyph unicode="z" horiz-adv-x="938" d="M808 234q38 0 58 -24t20 -54t-20 -55t-58 -25q-84 -2 -168 0t-168 2t-165 -1t-165 9q-30 4 -49 21t-25 39t2 46t32 42q84 64 156 140t154 142q44 36 89 68t85 72q8 8 16 14t18 14q-126 10 -251 14t-251 32q-38 8 -50 36t-4 56t34 48t64 12q78 -16 157 -23t159 -11l160 -8 t158 -16q14 -2 27 -13t21 -25t11 -30t-3 -30q-22 -54 -59 -92t-79 -76q-44 -40 -88 -75t-90 -71q-52 -40 -99 -85t-93 -91q32 0 64 1t64 -1q84 0 168 -1t168 -1z" />
<glyph unicode="{" horiz-adv-x="722" d="M772 -12q18 -30 8 -60t-36 -50q-84 -62 -169 -54t-154 59t-118 132t-61 165q-10 58 -6 111t16 109q10 46 18 95t-10 95q-10 28 -31 45t-45 33q-32 20 -62 39t-58 45q-18 16 -22 36t2 40t21 35t35 21q20 8 37 14t33 14q10 4 18 9t16 11l26 22q4 4 5 9t5 9q8 24 9 31t3 13 q-2 0 0 14t2 18v38q-2 22 -3 44t-3 44q-4 46 -8 93t0 93q4 74 24 143t82 115q32 24 69 33t76 11t78 -3t75 -11q34 -4 49 -36t7 -62q-10 -34 -38 -47t-60 -9q-20 4 -39 6t-39 4h-17t-17 -2q-30 -4 -40 -8l-20 -12q-8 -10 -13 -21t-3 -5q-2 -4 -3 -10t-3 -10q-2 -10 -6 -26 q0 -2 -1 -11t-1 -13q-4 -40 -3 -81t5 -81q2 -40 6 -82t4 -84t-7 -83t-25 -79q-16 -34 -42 -59t-56 -45q28 -18 54 -40t46 -52q28 -46 38 -91t8 -91t-11 -93t-17 -95q-14 -74 3 -151t69 -133q46 -50 91 -60t99 30q28 20 61 9t49 -37z" />
<glyph unicode="|" horiz-adv-x="472" d="M190 1442q0 38 25 58t55 20t54 -20t24 -58q0 -182 -16 -363t-20 -363q-2 -90 0 -179t-10 -179q-10 -84 -25 -165t-15 -165q0 -40 -25 -59t-55 -19t-55 19t-25 59q2 88 18 173t26 173q10 86 7 171t1 171q4 182 20 363t16 363z" />
<glyph unicode="}" horiz-adv-x="782" d="M-10 1540q-18 30 -8 59t38 49q84 62 168 55t153 -58t118 -132t61 -165q10 -58 6 -111t-16 -109q-10 -48 -18 -96t10 -94q12 -30 32 -47t46 -33q30 -18 60 -38t58 -44q18 -16 22 -36t-2 -40t-21 -36t-35 -22t-37 -12t-33 -14q-10 -4 -18 -9t-16 -11l-24 -22l-12 -18 q-8 -26 -9 -32t-1 -14q0 2 -1 -12t-1 -18q-2 -20 0 -38q0 -46 6 -90q4 -46 7 -92t1 -92q-4 -74 -24 -143t-84 -115q-32 -24 -69 -34t-76 -11t-78 3t-75 10q-32 6 -48 38t-8 60q10 34 38 48t60 8q20 -4 39 -6t39 -2h34l40 8q16 10 20 14q8 10 13 20t3 4q2 6 3 11t3 11 q4 16 6 26q0 14 1 17t1 5q4 40 3 82t-5 82t-7 82t-3 83t7 82t25 79q16 34 42 60t58 46q-30 18 -56 40t-46 52q-28 44 -38 89t-9 92t10 94t19 95q14 72 -3 149t-69 135q-46 48 -91 59t-99 -29q-28 -20 -61 -9t-49 37z" />
<glyph unicode="~" horiz-adv-x="1082" d="M906 682q26 28 57 24t52 -25t25 -52t-22 -59q-44 -46 -92 -87t-102 -67t-114 -31t-126 23q-60 26 -112 68t-114 64q-56 20 -103 7t-97 -45q-32 -22 -61 -10t-44 37t-11 57t36 54q56 34 119 57t131 13q64 -8 122 -37t110 -69q44 -32 91 -51t97 -1q46 18 85 56t73 74z" />
<glyph unicode="&#xa1;" horiz-adv-x="424" d="M248 1328q-26 14 -40 46t-4 60q12 32 38 50q22 24 57 23t57 -23q24 -18 38 -38q16 -28 9 -57t-31 -47l-11 -11t-13 -9q-16 -8 -20 -8t-22 -2q-6 -2 -14 0t-12 2q-14 2 -32 14zM266 36q0 -38 -25 -57t-55 -19t-55 19t-25 57q0 132 -2 265t1 266t16 264t45 261q8 38 37 50 t57 4t47 -33t11 -63q-30 -124 -42 -251t-15 -254t1 -255t4 -254z" />
<glyph unicode="&#xa2;" horiz-adv-x="842" d="M690 536q28 22 61 10t49 -38q18 -30 8 -59t-36 -49q-56 -42 -123 -54t-137 -4q-16 -148 -24 -294q-2 -38 -28 -58t-56 -20t-53 19t-21 59q4 84 10 165t16 165q-16 4 -31 11t-31 13q-56 26 -111 66t-95 92t-59 114t-1 130q12 46 42 85t64 73q84 78 174 136l24 16l24 16 q-10 70 -22 139t-24 139q-4 32 9 60t47 38q28 8 60 -7t38 -49l42 -240q42 18 86 30t90 12q38 0 57 -25t19 -55t-19 -55t-57 -25q-28 -2 -36 -4t-18 -4q-16 -6 -34 -12t-28 -12q-10 -4 -18 -8t-18 -8q10 -76 15 -153t5 -153q-2 -60 -7 -119t-13 -119h20q42 -2 75 5t65 31z M376 540q6 48 10 97t4 101q0 54 -3 108t-7 108q-30 -20 -58 -41t-54 -45l-49 -49t-35 -51q-2 -22 -3 -28t3 -14q4 -22 12 -42t24 -36q64 -72 154 -108h2z" />
<glyph unicode="&#xa3;" horiz-adv-x="1256" d="M1136 188q32 -4 56 -25t24 -55q0 -30 -24 -56t-56 -22q-132 10 -265 10t-266 2t-265 12t-262 44q-26 6 -42 28t-16 48q0 30 17 49t41 29q12 4 23 8t21 8q46 18 107 44t115 60t94 79t44 103q2 30 -1 58t-7 56h-298q-40 0 -59 25t-19 55t19 55t59 25h250q-22 64 -40 127 t-20 129q-2 74 22 147t82 123q60 52 133 81t153 33q68 4 138 -8t128 -54q56 -42 91 -100t63 -122q14 -30 8 -61t-36 -47q-26 -16 -61 -9t-49 37q-14 32 -29 64t-35 62q-14 18 -28 33t-34 25q-46 22 -110 23t-116 -15q-62 -20 -106 -58t-54 -102q-8 -58 8 -119t32 -115 l12 -36t12 -38h282q38 0 57 -25t19 -55t-19 -55t-57 -25h-240q14 -76 4 -150t-60 -144q-40 -52 -90 -92t-108 -72q188 -16 378 -12t380 -10z" />
<glyph unicode="&#xa4;" horiz-adv-x="1044" d="M894 1148q32 20 61 8t44 -38t11 -57t-36 -51q-50 -32 -98 -65t-94 -69q42 -76 52 -168q4 -58 -7 -117t-39 -109q40 -42 73 -91t73 -91q26 -28 22 -59t-25 -52t-52 -25t-57 24q-44 44 -77 94t-77 92q-70 -30 -145 -44t-151 14q-18 8 -36 17t-34 23q-44 -38 -88 -75 t-94 -67q-34 -20 -63 -8t-44 38t-12 57t37 51q46 28 84 59t78 65q-8 18 -14 40q-16 64 -6 130t34 126q10 22 20 46t24 48q-42 40 -78 88t-58 100q-14 30 -8 61t36 49q28 16 62 8t48 -38q18 -40 47 -81t61 -75q52 26 117 32t121 -14q18 -6 35 -14t33 -18q54 42 108 81t112 75 zM676 694q-2 18 -4 20q-2 10 -4 21t-6 21q0 4 -6 16t-2 6q-6 20 -18 34l-12 16q-4 6 -14 16q-24 18 -34 22q-16 8 -26 8l-24 4h-24q-20 -2 -27 -3t-13 -3q-22 -10 -25 -12t-7 -6q-14 -14 -19 -20t-9 -14q-28 -42 -45 -92t-19 -96q-2 -38 15 -73t57 -57q32 -18 80 -16 q30 2 58 11t54 21q20 12 24 16l32 42q14 40 16 56q0 10 1 13t1 7v42z" />
<glyph unicode="&#xa5;" horiz-adv-x="1112" d="M942 1382q20 32 52 36t57 -11t36 -44t-9 -61q-50 -80 -99 -162t-101 -162t-112 -153t-132 -135q-2 -24 -3 -49t-1 -49q52 2 104 6t104 10q34 4 61 -8t37 -46q8 -28 -7 -61t-49 -37q-64 -10 -127 -14t-127 -8q-2 -28 -2 -54v-54q40 -4 78 -6t78 -4q38 -2 58 -28t20 -56 t-20 -54t-58 -22q-78 4 -152 12q0 -60 6 -120q2 -32 -24 -56t-56 -24q-34 0 -55 24t-25 56q-6 66 -6 132q-46 4 -89 6t-87 2q-38 0 -57 25t-19 55t19 54t57 24q88 0 172 -6q0 22 1 46t1 46q-34 2 -69 2t-71 2q-38 2 -57 28t-19 56t19 54t57 22q36 -2 72 -3t72 -1q0 10 1 17 t1 17q-8 4 -13 11t-9 15q-58 64 -101 136t-79 152q-16 38 -34 76t-46 70q-60 72 -150 118q-34 18 -39 48t10 56t45 39t64 -5q98 -52 166 -128t114 -176q28 -62 56 -121t70 -111q68 56 124 125t105 145t94 154t93 152z" />
<glyph unicode="&#xa6;" horiz-adv-x="410" d="M148 1442q0 38 25 58t55 20t55 -20t25 -58q0 -132 -3 -264t-19 -264q-4 -34 -24 -57t-56 -23q-30 0 -57 23t-23 57q16 132 19 264t3 264zM112 564q0 38 24 57t54 19t56 -19t26 -57q2 -68 -6 -135t-18 -133t-19 -133t-9 -135q0 -40 -25 -59t-55 -19t-54 19t-24 59 q0 68 8 135t18 133t18 133t6 135z" />
<glyph unicode="&#xa7;" horiz-adv-x="1016" d="M852 -58q-56 -46 -122 -68t-138 -14t-137 31t-128 54t-124 66t-123 69q-34 18 -38 49t11 57t44 38t63 -6q94 -52 189 -108t201 -82q52 -12 104 -9t92 43q22 22 42 51t26 61q2 16 0 26t0 0q-4 14 -4 17t-10 17q-4 8 -15 17t-21 19q-8 6 -21 14t-23 14q-52 28 -120 50 q-70 22 -140 42t-138 50q-52 22 -93 57t-63 89q-20 54 -14 120t28 118q26 64 65 111t91 81q-58 18 -112 42t-90 72t-33 116t37 116t81 82t101 58q122 56 260 89t274 23q38 -2 57 -28t19 -56t-19 -54t-57 -22q-70 4 -140 -5t-138 -25q-62 -16 -122 -36t-114 -54q-8 -4 -15 -9 t-15 -11q-14 -10 -18 -14l-8 -8q-14 -16 -15 -19t-5 -17l-2 -28q10 -16 12 -16l18 -12q16 -8 40 -15t48 -15q42 -12 84 -26t82 -30q22 8 42 13t42 11q28 6 49 -3t34 -28t15 -42t-6 -43q42 -28 79 -64t62 -78t34 -89t-5 -99q-22 -80 -81 -128t-133 -76q52 -18 103 -43t93 -58 t69 -78t31 -103q2 -36 -7 -73t-26 -72t-40 -65t-49 -54zM620 636q30 10 52 24q16 10 22 14t14 14q16 16 18 20t6 8q6 16 7 18t1 6q0 20 -1 24t-1 6q-4 14 -9 23t-5 11l-12 18q-24 26 -32 32q-22 22 -47 38t-53 32q-10 6 -21 11t-21 9q-78 -28 -140 -78t-78 -132 q-4 -16 -6 -28t-2 -26v-26q4 -10 6 -17t0 -3l7 -7t6 -7t5 -7t0 -1q16 -10 34 -20t36 -18q22 22 58 26q80 8 156 36z" />
<glyph unicode="&#xa8;" horiz-adv-x="1126" d="M488 1424q18 -14 22 -40q4 -16 4 -24t-4 -24l-20 -54q-16 -30 -49 -37t-61 9q-26 14 -36 46q-2 18 -6 22q-16 30 -8 60q8 28 38 48q12 10 28 16t32 4t23 -3t19 -9t18 -14zM760 1408q28 -16 36 -49t-8 -61q-10 -16 -22 -28q-18 -18 -40 -26q-28 -10 -55 3t-43 37 q-12 20 -15 41t-3 43q0 34 23 57t57 23q46 0 70 -40z" />
<glyph unicode="&#xa9;" horiz-adv-x="1412" d="M918 668q32 6 60 -7t38 -47q8 -30 -7 -62t-49 -36q-54 -10 -113 -16t-117 -5t-115 12t-107 39q-66 34 -108 98t-38 140q6 86 48 159t106 129t143 93t157 53q38 8 63 -12t33 -49t-4 -57t-50 -36q-72 -16 -135 -45t-109 -73q-10 -10 -20 -21t-20 -23q0 -2 -6 -9t-8 -11 l-8 -12l-8 -12q-2 -4 -6 -14t-2 -6q-10 -28 -14 -44v-30q2 -14 6 -22q8 -18 12 -22q12 -14 20 -20q20 -14 34 -18q26 -10 34 -12t18 -4q22 -6 34 -7t38 -3q50 -4 100 0t100 12zM1124 1330q54 -52 99 -113t78 -130t51 -143t18 -148q0 -146 -66 -280t-190 -218 q-72 -48 -155 -74t-171 -34t-176 1t-168 31q-100 32 -172 99t-124 145q-56 88 -88 190t-12 208q20 104 63 202t109 178t152 138t194 86q152 40 298 6t260 -144zM1044 442q90 74 136 185t28 229q-10 62 -36 126t-63 121t-86 105t-105 78q-58 30 -124 40t-133 1t-129 -35 t-112 -68q-54 -46 -95 -102t-69 -120q-28 -58 -45 -124t-9 -130q8 -56 34 -115t65 -112t86 -92t99 -53q78 -22 159 -29t161 9q62 10 125 28t113 58z" />
<glyph unicode="&#xaa;" horiz-adv-x="818" d="M750 1280q8 -76 7 -152t-4 -152t-7 -153t0 -153q2 -36 -20 -55t-49 -21t-53 13t-34 47q-92 -38 -193 -43t-193 33q-62 26 -99 71t-52 101t-11 117t24 119q16 44 36 90t49 86t67 68t90 36q74 10 146 4t140 -32q6 24 29 40t47 16q36 0 56 -23t24 -57zM588 832q2 74 6 147 t4 147q-26 16 -53 29t-59 17q-34 4 -70 7t-70 -1q-16 -2 -31 -7t-25 -21q-42 -60 -66 -130q-10 -30 -18 -66t-5 -70t20 -60t59 -38q82 -22 160 -11t148 57z" />
<glyph unicode="&#xab;" horiz-adv-x="920" d="M174 390q58 -62 122 -118t124 -116q26 -28 22 -60t-25 -53t-53 -25t-58 24q-70 70 -144 135t-138 141q-14 16 -21 36t1 42q44 118 131 215t183 175q26 22 57 24t55 -24q22 -22 24 -56t-24 -56q-30 -26 -60 -54t-58 -56q-38 -38 -75 -83t-63 -91zM696 566q-44 -34 -87 -74 t-75 -86q76 -70 154 -131t154 -127q30 -26 26 -57t-25 -52t-53 -26t-60 21q-86 76 -177 146t-173 154q-22 22 -23 46t9 50q34 78 97 141t127 115q42 32 84 62t86 58q32 20 61 9t44 -37t11 -58t-36 -52q-38 -22 -74 -48t-70 -54z" />
<glyph unicode="&#xac;" horiz-adv-x="1078" d="M858 516q-84 4 -178 8t-188 6t-184 -2t-166 -18q-34 -6 -61 7t-37 47q-10 30 6 62t50 36q92 16 200 21t219 3t219 -7t200 -7q34 -2 53 -20t23 -44q2 -6 2 -20q2 -68 -1 -107t-8 -73t-9 -73t-4 -107q0 -40 -25 -59t-55 -19t-55 19t-25 59q0 56 4 93t8 66t7 58t5 71z" />
<glyph unicode="&#xad;" horiz-adv-x="954" d="M836 672q38 -2 58 -27t20 -55t-20 -54t-58 -24q-86 2 -173 8t-174 9t-174 -1t-173 -18q-34 -6 -61 7t-37 47q-10 30 6 62t50 36q92 16 184 21t184 3t184 -7t184 -7z" />
<glyph unicode="&#xae;" horiz-adv-x="1400" d="M972 674q32 -20 36 -52t-11 -57t-44 -37t-61 10q-80 48 -156 98t-158 92q-4 -36 -7 -73t-7 -73q-4 -34 -24 -57t-56 -23q-30 0 -57 23t-23 57q14 142 27 281t29 281q4 32 24 56t56 24q78 2 143 -5t123 -29q54 -18 107 -52t69 -98q8 -36 -2 -68t-31 -60t-50 -49t-59 -35 q-16 -8 -34 -14l-36 -12q52 -30 101 -62t101 -66zM598 928q34 6 70 13t70 17q20 6 40 15t34 25q0 16 -3 18t-7 4q-18 10 -36 16t-42 12q-28 8 -56 11t-56 5q-4 -34 -7 -68t-7 -68zM1122 1318q86 -76 150 -184t80 -222t-6 -229t-88 -211q-90 -132 -233 -201t-301 -75 q-150 -6 -279 52t-237 160q-12 12 -14 13t-4 5q-42 46 -68 94q-50 92 -69 196t-9 208t50 202t108 178q86 100 205 146t247 44t251 -48t217 -128zM1110 536q52 74 74 152t16 166q0 6 -1 11t-1 11q-2 16 -4 24t-6 18q-4 16 -11 39t-11 31q-20 44 -44 85t-54 75 q-90 98 -212 145t-252 41q-46 -4 -92 -15t-84 -33q-12 -8 -24 -14t-22 -16q-12 -10 -17 -13t-9 -7l-17 -17t-15 -17q-10 -10 -14 -16q-64 -88 -88 -172t-22 -178q2 -14 2 -27t2 -27q2 -18 3 -23t1 -9q8 -40 24 -88q8 -22 14 -35t22 -39q8 -18 24 -36q10 -12 18 -24 q80 -76 177 -126t211 -48q56 2 115 13t114 34t102 56t81 79z" />
<glyph unicode="&#xaf;" horiz-adv-x="1126" d="M754 1448q38 -2 58 -28t20 -56t-20 -54t-58 -20q-96 6 -190 1t-190 -13q-32 -2 -55 24t-23 56q0 34 23 55t55 25q96 8 190 12t190 -2z" />
<glyph unicode="&#xb0;" horiz-adv-x="596" d="M206 1590q50 24 104 22t100 -25t82 -65t52 -96q12 -42 11 -92t-15 -96t-44 -84t-74 -58q-52 -22 -113 -22t-116 22t-95 64t-52 104q-2 16 -3 17t-1 3q-4 42 7 88t33 89t54 77t70 52zM396 1354q0 2 -2 11t-2 11q-4 12 -6 20q0 -2 -5 7t-5 11q-16 16 -28 25t-22 13 q-38 10 -62 -14q-18 -16 -31 -38t-19 -42q-8 -18 -12 -40q-2 -18 0 -22q6 -28 22 -38t48 -18q16 -4 22 -6q16 -2 28 -1t2 -3q18 4 20 5t18 11q10 12 14 18t6 8q8 22 12 38z" />
<glyph unicode="&#xb1;" horiz-adv-x="872" d="M746 698q38 0 57 -25t19 -55t-19 -55t-57 -25q-58 -2 -118 0t-118 4q2 -56 3 -110t1 -110q0 -40 -25 -59t-55 -19t-54 19t-24 59q0 56 -2 111t-4 111q-64 0 -125 -4t-125 -14q-32 -4 -60 9t-38 47q-8 28 8 60t48 38q74 12 147 16t149 6q2 48 6 97t8 99q4 32 25 56t55 24 q30 0 57 -24t23 -56q-4 -50 -8 -99t-8 -99q58 -2 117 -3t117 1zM798 162q38 -2 58 -27t20 -55t-20 -54t-58 -24q-86 2 -173 8t-174 9t-174 -1t-173 -18q-34 -6 -61 7t-37 47q-10 30 6 62t50 36q92 16 184 21t184 3t184 -7t184 -7z" />
<glyph unicode="&#xb2;" horiz-adv-x="718" d="M578 762q-114 -12 -224 -1t-224 23q-28 4 -48 17t-28 41q-8 26 2 52t34 38q46 22 90 46t86 50q22 14 43 29t43 31q16 14 35 32t27 30q10 18 12 23t2 7q-2 26 -14 34q-4 4 -10 9t-16 11q-36 18 -79 25t-75 -3q-38 -12 -63 7t-32 47t5 58t48 40q66 22 142 9t134 -47 q32 -18 58 -44t42 -57t20 -67t-8 -72q-24 -70 -78 -120t-112 -90q44 -6 92 -5t96 7q32 4 56 -23t24 -57q0 -34 -24 -55t-56 -25z" />
<glyph unicode="&#xb3;" horiz-adv-x="686" d="M334 1264q4 2 12 11t6 5q-4 20 -12 24q-12 4 -25 7t-5 3q-10 0 -22 1t-22 1q-4 -2 -18 -3t-6 1q-8 -2 -15 -3t-17 -3q-44 -20 -75 -13t-49 37q-16 26 -8 60t38 48q50 24 116 31t126 -7t105 -53t51 -109q6 -52 -16 -92t-60 -70q30 -10 62 -23t59 -32t48 -44t31 -57 q12 -46 0 -84t-39 -70t-64 -55t-73 -37q-70 -28 -143 -38t-147 -10q-38 0 -57 24t-19 54t19 55t57 25q58 2 110 8t110 26q24 8 46 19t38 29q-6 22 -6 24q-6 4 -13 7t-13 7q-66 24 -118 36l-60 12q-8 0 -24 4q-34 4 -53 6t-37 4q-34 2 -57 24t-23 56q0 24 16 48t42 28 q36 6 73 16t67 26q16 6 36 17t28 19z" />
<glyph unicode="&#xb4;" horiz-adv-x="1126" d="M650 1480q26 20 56 23t56 -23q22 -22 24 -57t-24 -57q-144 -110 -300 -190q-34 -18 -64 -5t-45 39t-11 56t38 48q72 36 139 76t131 90z" />
<glyph unicode="&#xb5;" horiz-adv-x="1052" d="M78 556q0 34 -1 66t-3 62q0 38 24 57t54 19t56 -19t26 -57v-34t2 -34q2 -28 1 -43t-1 -31q2 -46 5 -90t13 -84t19 -69t31 -61q14 -18 18 -20q30 -24 39 -29t23 -9q84 -24 170 5t138 105q32 48 46 100t21 105t9 108t10 109q0 60 31 80t65 12q22 -6 32 -14l16 -14 q22 -36 16 -70q2 -172 24 -344t58 -340q8 -38 -12 -63t-49 -33t-57 4t-36 50q-24 114 -42 224q-6 -10 -13 -19t-15 -19q-40 -48 -92 -83t-110 -54t-121 -21t-123 14q-84 26 -138 78q-4 -64 -8 -129t-7 -123t-5 -107t-2 -81q0 -38 -25 -57t-55 -19t-55 19t-25 57q0 42 4 109 t9 149t11 172t11 176t9 161t4 129z" />
<glyph unicode="&#xb6;" horiz-adv-x="1206" d="M372 780q-60 14 -120 40t-107 67t-76 95t-29 124q0 50 20 93t52 78t72 62t82 47q106 52 220 77t230 33q64 4 131 4t131 -16q14 0 34 -8q26 -6 49 -16t45 -22q30 -18 36 -45t-4 -51t-33 -40t-51 -12q-4 -302 -13 -600t-9 -600q0 -40 -25 -59t-55 -19t-55 19t-25 59 q0 312 10 622t12 624q-38 4 -76 5t-76 -1q0 -154 6 -304q4 -84 8 -165t4 -165q0 -156 -12 -311t-14 -311q0 -38 -25 -57t-55 -19t-54 19t-24 57q0 160 13 318t11 320v38q-58 -2 -115 3t-113 17zM200 1118q0 -24 2 -32q12 -46 36 -70q32 -30 74 -50t89 -31t97 -14t98 -3 q-4 102 -8 202t-4 202q-78 -14 -154 -38t-138 -64q-10 -4 -26 -16q-16 -14 -22 -19t-12 -11l-14 -18q-2 -2 -4 -6t-5 -9t-4 -7t1 2z" />
<glyph unicode="&#xb7;" horiz-adv-x="326" d="M218 774q26 -16 40 -47t4 -61q-14 -34 -40 -50q-22 -24 -56 -23t-56 23q-26 20 -38 40q-16 28 -9 57t31 47q14 14 24 18q16 8 20 9t22 3q6 2 14 0t12 -2q8 -2 16 -6z" />
<glyph unicode="&#xb8;" horiz-adv-x="1126" d="M616 -114q38 -4 76 -16t67 -35t46 -56t15 -79q-4 -76 -53 -138t-113 -104q-28 -18 -62 -33t-69 -21t-69 0t-64 30q-28 20 -38 49t8 59q16 26 50 38t60 -10l18 -10q12 2 16 2t20 6q18 8 41 22t39 30q14 14 22 20q18 24 22 32q12 24 14 40q-16 8 -42 12t-48 6q-28 2 -56 -2 t-56 -4q-40 4 -73 26t-49 58q-16 34 -15 71t-13 71q-10 30 8 59t48 39q34 10 61 -8t37 -48q10 -24 11 -48t3 -50q36 -8 69 -6t69 -2z" />
<glyph unicode="&#xb9;" horiz-adv-x="412" d="M102 1410q0 38 25 57t55 19t55 -19t25 -57q0 -130 12 -258t34 -258q4 -32 -9 -60t-47 -38q-28 -8 -60 8t-38 48q-22 138 -36 277t-16 281z" />
<glyph unicode="&#xba;" horiz-adv-x="864" d="M508 1330q78 2 147 -27t117 -93q34 -44 45 -98t1 -108q-12 -54 -40 -100t-67 -85t-86 -71t-93 -54q-42 -20 -93 -38t-104 -25t-104 1t-93 38q-30 20 -36 50q-10 34 -23 68t-23 67t-14 68t2 73q14 74 62 135t113 105t141 68t148 26zM664 1050q0 20 -1 22t-1 4 q-10 20 -10 28q-10 16 -24 31t-38 25q-46 20 -99 11t-99 -25q-48 -20 -96 -51t-76 -77q-16 -28 -18 -56t4 -56t17 -56t21 -56q24 -6 33 -6h19q4 0 17 2t9 0q44 10 81 22t71 32q44 22 74 45t64 59l20 26q4 8 9 15t9 17q6 10 7 16t3 10z" />
<glyph unicode="&#xbb;" horiz-adv-x="920" d="M614 786q70 -70 143 -135t139 -141q14 -16 21 -36t-1 -40q-44 -118 -131 -216t-183 -176q-26 -22 -57 -23t-57 23q-22 22 -24 57t24 57q62 50 120 108q36 40 74 84t64 90q-58 62 -122 118t-124 118q-28 28 -23 59t26 52t52 25t59 -24zM540 496q22 -22 23 -47t-11 -51 q-34 -78 -96 -141t-128 -115q-40 -32 -82 -62t-86 -58q-34 -20 -63 -9t-44 37t-11 58t36 52q40 22 76 48t70 54q44 36 87 75t73 87q-74 68 -153 129t-155 129q-28 26 -25 56t24 51t53 26t62 -21q86 -76 177 -146t173 -152z" />
<glyph unicode="&#xbc;" horiz-adv-x="1398" d="M136 78q-26 -22 -57 -23t-55 23q-22 22 -24 56t24 56q156 132 304 272t280 296q262 310 434 670q14 30 48 38t60 -8q30 -18 37 -49t-7 -61q-90 -190 -205 -362t-248 -329t-283 -301t-308 -278zM1254 48q0 -38 -26 -57t-56 -19t-54 19t-24 57q0 82 12 160l-104 -4t-104 -2 q-42 0 -61 29t-15 61q0 82 15 160t23 158q4 34 25 57t55 23q30 0 57 -23t23 -57q-6 -62 -17 -123t-19 -125q38 2 74 4l72 4q10 64 19 126t13 126q2 38 29 58t57 20t53 -20t21 -58q-4 -64 -14 -129t-20 -131q20 -12 30 -34t7 -45t-18 -43t-41 -26q-12 -82 -12 -166zM210 1410 q0 38 24 57t54 19t55 -19t25 -57q2 -130 13 -258t33 -258q6 -32 -8 -60t-48 -38q-28 -8 -60 8t-38 48q-22 138 -36 277t-14 281z" />
<glyph unicode="&#xbd;" horiz-adv-x="1326" d="M238 1410q0 38 25 57t55 19t55 -19t25 -57q0 -130 12 -258t34 -258q4 -32 -9 -60t-47 -38q-28 -8 -61 8t-37 48q-22 138 -37 277t-15 281zM1072 1410q-36 -114 -86 -220t-108 -210q-50 -92 -102 -180t-118 -170q-62 -76 -131 -147t-136 -144t-125 -151t-98 -170 q-14 -30 -49 -38t-61 8q-30 18 -36 49t8 61q40 92 98 172t125 153t136 144t133 147t114 161t98 173q54 98 102 197t82 207q12 36 42 48t59 4t47 -33t6 -61zM1204 -4q-114 -14 -223 -3t-223 23q-28 4 -48 18t-28 42q-8 24 2 50t34 40q44 22 88 45t86 51l44 28t42 30 q16 14 36 33t28 31q10 18 12 22t2 6q-4 26 -14 36q-8 8 -26 18q-36 20 -79 26t-77 -4q-36 -12 -61 7t-33 48t4 58t48 41q66 20 142 8t136 -46q30 -18 56 -44t43 -57t21 -67t-8 -72q-24 -70 -78 -121t-112 -91q44 -4 91 -3t95 5q34 4 57 -23t23 -55q0 -36 -23 -56t-57 -24z " />
<glyph unicode="&#xbe;" horiz-adv-x="1478" d="M334 1264q4 2 12 11t6 5q-4 20 -12 24q-12 4 -25 7t-5 3q-10 0 -22 1t-22 1q-4 -2 -18 -3t-6 1q-8 -2 -15 -3t-17 -3q-44 -20 -75 -13t-49 37q-16 26 -8 60t38 48q50 24 116 31t126 -7t105 -53t51 -109q6 -52 -16 -92t-60 -70q30 -10 62 -23t59 -32t48 -44t31 -57 q12 -46 0 -84t-39 -70t-64 -55t-73 -37q-70 -28 -143 -38t-147 -10q-38 0 -57 24t-19 54t19 55t57 25q58 2 110 8t110 26q24 8 46 19t38 29q-6 22 -6 24q-6 4 -13 7t-13 7q-66 24 -118 36l-60 12q-8 0 -24 4q-34 4 -53 6t-37 4q-34 2 -57 24t-23 56q0 24 16 48t42 28 q36 6 73 16t67 26q16 6 36 17t28 19zM216 78q-26 -22 -57 -23t-55 23q-22 22 -24 56t24 56q156 132 304 272t280 296q262 310 434 670q14 30 48 38t60 -8q30 -18 37 -49t-7 -61q-90 -190 -205 -362t-248 -329t-283 -301t-308 -278zM1334 48q0 -38 -26 -57t-56 -19t-54 19 t-24 57q0 82 12 160l-104 -4t-104 -2q-42 0 -61 29t-15 61q0 82 15 160t23 158q4 34 25 57t55 23q30 0 57 -23t23 -57q-6 -62 -17 -123t-17 -125l72 4l72 4q10 64 19 126t13 126q2 38 29 58t57 20t53 -20t21 -58q-4 -64 -14 -129t-20 -131q20 -12 30 -34t7 -45t-18 -43 t-41 -26q-12 -82 -12 -166z" />
<glyph unicode="&#xbf;" horiz-adv-x="930" d="M478 0q-62 14 -131 38t-129 62t-104 90t-56 124q-8 50 -6 99t34 91q28 40 67 63t85 37q40 12 83 19t85 15q22 4 43 8t43 8l36 12q16 4 20 8q6 2 18 10q16 16 16 20l2 26q-2 18 -11 41t-17 43t-15 40t-15 40q-14 42 -23 85t-9 89q-2 38 22 57t54 19t56 -19t26 -57 q2 -50 17 -95t31 -91q24 -64 39 -129t-19 -129q-22 -40 -59 -66t-79 -42q-40 -14 -80 -22t-82 -14t-83 -15t-81 -23q-12 -6 -15 -8t-7 -4q-14 -12 -16 -14t-2 -4q-6 -14 -5 -19t1 -11t-1 -10t-1 0q4 -28 12 -50q14 -34 52 -66q46 -40 109 -63t125 -37q80 -18 160 -26 t164 -12q38 0 57 -26t19 -56t-19 -54t-57 -24q-90 4 -179 12t-175 30zM496 1312q-26 16 -40 47t-4 59q12 32 40 52q22 24 56 22t56 -24q24 -18 38 -38q16 -28 9 -57t-31 -47q-14 -14 -24 -18q-16 -8 -20 -9t-22 -3q-6 -2 -14 0t-12 2q-14 2 -32 14z" />
<glyph unicode="&#xc0;" horiz-adv-x="1104" d="M220 26q0 -38 -25 -57t-55 -19t-54 19t-24 57q0 156 36 300t90 286q-14 26 -8 58q12 42 52 52q40 96 83 191t83 191t74 194t56 200q6 30 25 52t53 22q32 0 58 -23t22 -57q-6 -116 4 -213t30 -192t45 -190t47 -189q22 -90 40 -180t58 -174q20 -42 42 -81t48 -79 q24 -36 44 -75t28 -85q4 -32 -9 -60t-47 -38q-28 -8 -60 8t-38 48q-8 46 -31 82t-47 74q-28 44 -51 89t-41 93q-20 50 -34 101t-26 103q-90 6 -177 9t-175 13q-48 -128 -81 -260t-35 -270zM408 734q-4 -6 -5 -13t-5 -13q64 -6 126 -7t126 -5q-22 96 -47 191t-45 193 q-36 -88 -74 -173t-76 -173zM396 2012q64 -50 131 -90t139 -76q34 -18 39 -48t-11 -56t-46 -39t-64 5q-156 80 -300 190q-26 22 -24 57t24 57q26 26 56 23t56 -23z" />
<glyph unicode="&#xc1;" horiz-adv-x="1104" d="M220 26q0 -38 -25 -57t-55 -19t-54 19t-24 57q0 156 36 300t90 286q-14 26 -8 58q12 42 52 52q40 96 83 191t83 191t74 194t56 200q6 30 25 52t53 22q32 0 58 -23t22 -57q-6 -116 4 -213t30 -192t45 -190t47 -189q22 -90 40 -180t58 -174q20 -42 42 -81t48 -79 q24 -36 44 -75t28 -85q4 -32 -9 -60t-47 -38q-28 -8 -60 8t-38 48q-8 46 -31 82t-47 74q-28 44 -51 89t-41 93q-20 50 -34 101t-26 103q-90 6 -177 9t-175 13q-48 -128 -81 -260t-35 -270zM408 734q-4 -6 -5 -13t-5 -13q64 -6 126 -7t126 -5q-22 96 -47 191t-45 193 q-36 -88 -74 -173t-76 -173zM834 2012q26 20 56 23t56 -23q22 -22 24 -57t-24 -57q-144 -110 -300 -190q-34 -18 -64 -5t-45 39t-11 56t38 48q72 36 139 76t131 90z" />
<glyph unicode="&#xc2;" horiz-adv-x="1104" d="M220 26q0 -38 -25 -57t-55 -19t-54 19t-24 57q0 156 36 300t90 286q-14 26 -8 58q12 42 52 52q40 96 83 191t83 191t74 194t56 200q6 30 25 52t53 22q32 0 58 -23t22 -57q-6 -116 4 -213t30 -192t45 -190t47 -189q22 -90 40 -180t58 -174q20 -42 42 -81t48 -79 q24 -36 44 -75t28 -85q4 -32 -9 -60t-47 -38q-28 -8 -60 8t-38 48q-8 46 -31 82t-47 74q-28 44 -51 89t-41 93q-20 50 -34 101t-26 103q-90 6 -177 9t-175 13q-48 -128 -81 -260t-35 -270zM408 734q-4 -6 -5 -13t-5 -13q64 -6 126 -7t126 -5q-22 96 -47 191t-45 193 q-36 -88 -74 -173t-76 -173zM876 1784q26 -22 24 -57t-24 -57q-24 -24 -55 -22t-57 22q-42 34 -79 71t-79 71q-42 -34 -82 -68t-80 -72q-28 -26 -60 -22t-53 25t-24 52t25 59q54 52 112 100t122 92q16 10 39 10t41 -10q66 -40 119 -94t111 -100z" />
<glyph unicode="&#xc3;" horiz-adv-x="1104" d="M220 26q0 -38 -25 -57t-55 -19t-54 19t-24 57q0 156 36 300t90 286q-14 26 -8 58q12 42 52 52q40 96 83 191t83 191t74 194t56 200q6 30 25 52t53 22q32 0 58 -23t22 -57q-6 -116 4 -213t30 -192t45 -190t47 -189q22 -90 40 -180t58 -174q20 -42 42 -81t48 -79 q24 -36 44 -75t28 -85q4 -32 -9 -60t-47 -38q-28 -8 -60 8t-38 48q-8 46 -31 82t-47 74q-28 44 -51 89t-41 93q-20 50 -34 101t-26 103q-90 6 -177 9t-175 13q-48 -128 -81 -260t-35 -270zM408 734q-4 -6 -5 -13t-5 -13q64 -6 126 -7t126 -5q-22 96 -47 191t-45 193 q-36 -88 -74 -173t-76 -173zM816 1678q-42 -16 -87 -9t-81 35q-28 22 -54 49t-62 33q-34 6 -65 -12t-53 -40q-28 -28 -59 -24t-52 25t-26 52t23 59q34 34 76 58t89 35t94 4t91 -33q38 -26 66 -56q10 -10 18 -17t18 -11q12 -2 24 7t24 22t22 28t16 23q22 26 56 24t56 -24 q26 -24 24 -55t-24 -57q-28 -34 -58 -67t-76 -49z" />
<glyph unicode="&#xc4;" horiz-adv-x="1104" d="M220 26q0 -38 -25 -57t-55 -19t-54 19t-24 57q0 156 36 300t90 286q-14 26 -8 58q12 42 52 52q40 96 83 191t83 191t74 194t56 200q6 30 25 52t53 22q32 0 58 -23t22 -57q-6 -116 4 -213t30 -192t45 -190t47 -189q22 -90 40 -180t58 -174q20 -42 42 -81t48 -79 q24 -36 44 -75t28 -85q4 -32 -9 -60t-47 -38q-28 -8 -60 8t-38 48q-8 46 -31 82t-47 74q-28 44 -51 89t-41 93q-20 50 -34 101t-26 103q-90 6 -177 9t-175 13q-48 -128 -81 -260t-35 -270zM408 734q-4 -6 -5 -13t-5 -13q64 -6 126 -7t126 -5q-22 96 -47 191t-45 193 q-36 -88 -74 -173t-76 -173zM550 1874q18 -14 22 -40q4 -16 4 -24t-4 -24l-20 -54q-16 -30 -49 -37t-61 9q-26 14 -36 46q-2 18 -6 22q-16 30 -8 60q8 28 38 48q12 10 28 16t32 4t23 -3t19 -9t18 -14zM822 1858q28 -16 36 -49t-8 -61q-10 -16 -22 -28q-18 -18 -40 -26 q-28 -10 -55 3t-43 37q-12 20 -15 41t-3 43q0 34 23 57t57 23q46 0 70 -40z" />
<glyph unicode="&#xc5;" horiz-adv-x="1104" d="M408 734l-10 -26q64 -6 126 -7t126 -5q-22 96 -47 191t-45 193q-36 -88 -74 -173t-76 -173zM532 1958q52 24 106 22t100 -25t81 -65t51 -96q12 -42 12 -92t-15 -96t-44 -83t-73 -57q-30 -14 -66 -20q-4 -94 7 -187t31 -185t44 -184t46 -182t40 -180t58 -174 q20 -42 42 -81t48 -79q24 -36 44 -75t28 -85q4 -32 -9 -60t-47 -38q-28 -8 -60 8t-38 48q-8 46 -31 82t-47 74q-28 44 -51 89t-41 93q-20 50 -34 101t-26 103q-90 6 -177 9t-175 13q-48 -128 -81 -260t-35 -270q0 -38 -25 -57t-55 -19t-54 19t-24 57q0 156 36 300t90 286 q-14 26 -8 58q12 42 52 52q38 92 79 184t80 184t72 185t57 189q-56 22 -96 64t-52 104l-2 22q-6 40 5 86t33 89t54 77t70 52zM722 1696q2 14 0 28t-3 16t-1 4q-2 8 -6 20q0 -2 -4 7t-6 11q-14 18 -27 26t-23 12q-36 12 -62 -12q-16 -18 -30 -39t-20 -41l-12 -42v-20 q8 -30 23 -40t49 -18q4 -2 10 -3t10 -3q18 -2 29 -1t1 -1q18 4 21 4t17 10q10 12 14 18t6 8q12 28 12 38z" />
<glyph unicode="&#xc6;" horiz-adv-x="1806" d="M-22 28q-26 16 -36 49t8 61q118 170 248 328t258 320q132 166 247 340t205 366q14 30 48 38t62 -8q32 -20 38 -58q76 -2 153 -4t153 -4q90 -2 182 -1t182 19q32 6 60 -8t38 -48q8 -30 -8 -61t-48 -37q-84 -16 -168 -22t-169 -6t-170 4t-169 8q-22 -108 -37 -219t-25 -225 q138 -22 278 -22h280q38 0 57 -25t19 -55t-19 -55t-57 -25q-142 0 -284 2t-284 22q-2 -114 7 -227t33 -225q136 -2 270 -5t270 -5q38 0 57 -25t19 -54t-19 -54t-57 -25q-126 0 -249 3t-249 5q4 -32 -16 -52t-48 -26t-55 7t-39 47q-2 6 -4 13t-4 15q-28 2 -43 20t-20 40t2 45 t25 37q-20 98 -30 200q-126 -8 -250 -20t-250 -36q-20 -4 -38 0q-64 -80 -125 -159t-119 -163q-20 -28 -50 -37t-60 7zM586 696q-28 -34 -55 -69t-55 -69q96 14 192 22t194 16q-4 138 8 276t34 276q-72 -120 -152 -232t-166 -220z" />
<glyph unicode="&#xc7;" horiz-adv-x="1014" d="M748 -84q38 -12 72 -33t57 -49t32 -64t-3 -80q-22 -76 -83 -124t-131 -74q-32 -12 -68 -19t-72 -5t-69 15t-57 43q-20 24 -24 55t22 57q20 22 55 26t57 -22q28 -18 33 -18t21 4q18 2 43 11t45 21q8 4 14 8l12 8q16 12 21 16t9 8l12 21t8 15q-12 12 -36 22t-46 16 q-28 8 -55 10t-55 10q-40 10 -67 39t-35 69q-8 36 1 70t5 70q-52 12 -102 31t-94 53q-104 76 -156 198q-48 116 -66 238q-10 70 -17 141t13 141q10 44 26 85t32 83q12 32 17 64t15 66q20 72 60 125t106 87q62 34 128 54t134 32q62 12 125 18t127 -2q34 -4 57 -24t23 -54 q0 -30 -23 -57t-57 -23q-6 0 -12 1t-12 1q-60 4 -121 -3t-119 -21q-34 -10 -68 -19t-66 -23q-22 -10 -44 -22q-16 -8 -22 -14q-38 -32 -50 -60t-19 -59t-13 -63t-16 -60q-16 -40 -32 -82t-26 -86q-6 -30 -4 -60t6 -60q4 -52 13 -108t25 -108t43 -99t67 -83q50 -42 114 -61 t128 -27q80 -12 156 -2t144 56q32 20 61 9t44 -36t12 -58t-35 -53q-78 -52 -165 -68t-177 -12q-2 -16 -4 -31t-4 -31q32 -18 64 -23t66 -17z" />
<glyph unicode="&#xc8;" horiz-adv-x="1040" d="M92 1204q-40 12 -48 52q-10 28 6 61t50 37q194 30 389 33t391 5q38 0 58 -24t20 -54t-20 -55t-58 -25q-156 -4 -314 -4t-316 -16q4 -80 10 -159t12 -159q152 8 303 20t303 4q38 -2 58 -28t20 -56t-20 -54t-58 -22q-150 8 -297 -4t-297 -20q12 -144 23 -287t15 -287 q70 16 142 31t144 24t144 9t144 -12q32 -6 48 -38t8 -60q-10 -34 -38 -48t-62 -8q-64 12 -130 8t-130 -14q-74 -12 -147 -28t-145 -34q-34 -8 -64 12q-28 4 -50 22t-22 54q-4 170 -15 336t-25 334q-22 22 -25 55t17 57q-16 170 -24 342zM376 1828q64 -50 131 -90t139 -76 q34 -18 39 -48t-11 -56t-46 -39t-64 5q-156 80 -300 190q-26 22 -24 57t24 57q26 26 56 23t56 -23z" />
<glyph unicode="&#xc9;" horiz-adv-x="1040" d="M92 1204q-40 12 -48 52q-10 28 6 61t50 37q194 30 389 33t391 5q38 0 58 -24t20 -54t-20 -55t-58 -25q-156 -4 -314 -4t-316 -16q4 -80 10 -159t12 -159q152 8 303 20t303 4q38 -2 58 -28t20 -56t-20 -54t-58 -22q-150 8 -297 -4t-297 -20q12 -144 23 -287t15 -287 q70 16 142 31t144 24t144 9t144 -12q32 -6 48 -38t8 -60q-10 -34 -38 -48t-62 -8q-64 12 -130 8t-130 -14q-74 -12 -147 -28t-145 -34q-34 -8 -64 12q-28 4 -50 22t-22 54q-4 170 -15 336t-25 334q-22 22 -25 55t17 57q-16 170 -24 342zM650 1870q26 20 56 23t56 -23 q22 -22 24 -57t-24 -57q-144 -110 -300 -190q-34 -18 -64 -5t-45 39t-11 56t38 48q72 36 139 76t131 90z" />
<glyph unicode="&#xca;" horiz-adv-x="1040" d="M92 1204q-40 12 -48 52q-10 28 6 61t50 37q194 30 389 33t391 5q38 0 58 -24t20 -54t-20 -55t-58 -25q-156 -4 -314 -4t-316 -16q4 -80 10 -159t12 -159q152 8 303 20t303 4q38 -2 58 -28t20 -56t-20 -54t-58 -22q-150 8 -297 -4t-297 -20q12 -144 23 -287t15 -287 q70 16 142 31t144 24t144 9t144 -12q32 -6 48 -38t8 -60q-10 -34 -38 -48t-62 -8q-64 12 -130 8t-130 -14q-74 -12 -147 -28t-145 -34q-34 -8 -64 12q-28 4 -50 22t-22 54q-4 170 -15 336t-25 334q-22 22 -25 55t17 57q-16 170 -24 342zM776 1680q26 -22 24 -57t-24 -57 q-24 -24 -55 -22t-57 22q-42 34 -79 71t-79 71q-42 -34 -82 -68t-80 -72q-28 -26 -60 -22t-53 25t-24 52t25 59q54 52 112 100t122 92q16 10 39 10t41 -10q66 -40 119 -94t111 -100z" />
<glyph unicode="&#xcb;" horiz-adv-x="1040" d="M92 1204q-40 12 -48 52q-10 28 6 61t50 37q194 30 389 33t391 5q38 0 58 -24t20 -54t-20 -55t-58 -25q-156 -4 -314 -4t-316 -16q4 -80 10 -159t12 -159q152 8 303 20t303 4q38 -2 58 -28t20 -56t-20 -54t-58 -22q-150 8 -297 -4t-297 -20q12 -144 23 -287t15 -287 q70 16 142 31t144 24t144 9t144 -12q32 -6 48 -38t8 -60q-10 -34 -38 -48t-62 -8q-64 12 -130 8t-130 -14q-74 -12 -147 -28t-145 -34q-34 -8 -64 12q-28 4 -50 22t-22 54q-4 170 -15 336t-25 334q-22 22 -25 55t17 57q-16 170 -24 342zM428 1732q18 -14 22 -40q4 -16 4 -24 t-4 -24l-20 -54q-16 -30 -49 -37t-61 9q-26 14 -36 46q-2 18 -6 22q-16 30 -8 60q8 28 38 48q12 10 28 16t32 4t23 -3t19 -9t18 -14zM700 1716q28 -16 36 -49t-8 -61q-10 -16 -22 -28q-18 -18 -40 -26q-28 -10 -55 3t-43 37q-12 20 -15 41t-3 43q0 34 23 57t57 23 q46 0 70 -40z" />
<glyph unicode="&#xcc;" horiz-adv-x="910" d="M36 0q-36 10 -48 40t-4 58t33 47t61 9q80 -24 160 -30t164 -2q-34 142 -34 285t11 286t22 287t1 288q-76 2 -153 7t-153 15q-34 4 -57 24t-23 54q0 30 23 57t57 23q92 -10 185 -17t185 -5t183 16t181 46q30 10 59 -8t39 -48q10 -34 -7 -61t-49 -37q-150 -52 -312 -62 q12 -142 0 -286t-24 -286t-11 -284t37 -282q64 6 126 12t124 10q38 2 57 -21t19 -53t-19 -56t-57 -28q-98 -6 -195 -17t-194 -16t-194 1t-193 34zM314 1910q64 -50 131 -90t139 -76q34 -18 39 -48t-11 -56t-46 -39t-64 5q-156 80 -300 190q-26 22 -24 57t24 57q26 26 56 23 t56 -23z" />
<glyph unicode="&#xcd;" horiz-adv-x="910" d="M36 0q-36 10 -48 40t-4 58t33 47t61 9q80 -24 160 -30t164 -2q-34 142 -34 285t11 286t22 287t1 288q-76 2 -153 7t-153 15q-34 4 -57 24t-23 54q0 30 23 57t57 23q92 -10 185 -17t185 -5t183 16t181 46q30 10 59 -8t39 -48q10 -34 -7 -61t-49 -37q-150 -52 -312 -62 q12 -142 0 -286t-24 -286t-11 -284t37 -282q64 6 126 12t124 10q38 2 57 -21t19 -53t-19 -56t-57 -28q-98 -6 -195 -17t-194 -16t-194 1t-193 34zM650 1890q26 20 56 23t56 -23q22 -22 24 -57t-24 -57q-144 -110 -300 -190q-34 -18 -64 -5t-45 39t-11 56t38 48q72 36 139 76 t131 90z" />
<glyph unicode="&#xce;" horiz-adv-x="910" d="M36 0q-36 10 -48 40t-4 58t33 47t61 9q80 -24 160 -30t164 -2q-34 142 -34 285t11 286t22 287t1 288q-76 2 -153 7t-153 15q-34 4 -57 24t-23 54q0 30 23 57t57 23q92 -10 185 -17t185 -5t183 16t181 46q30 10 59 -8t39 -48q10 -34 -7 -61t-49 -37q-150 -52 -312 -62 q12 -142 0 -286t-24 -286t-11 -284t37 -282q64 6 126 12t124 10q38 2 57 -21t19 -53t-19 -56t-57 -28q-98 -6 -195 -17t-194 -16t-194 1t-193 34zM736 1702q26 -22 24 -57t-24 -57q-24 -24 -55 -22t-57 22q-42 34 -79 71t-79 71q-42 -34 -82 -68t-80 -72q-28 -26 -60 -22 t-53 25t-24 52t25 59q54 52 112 100t122 92q16 10 39 10t41 -10q66 -40 119 -94t111 -100z" />
<glyph unicode="&#xcf;" horiz-adv-x="910" d="M36 0q-36 10 -48 40t-4 58t33 47t61 9q80 -24 160 -30t164 -2q-34 142 -34 285t11 286t22 287t1 288q-76 2 -153 7t-153 15q-34 4 -57 24t-23 54q0 30 23 57t57 23q92 -10 185 -17t185 -5t183 16t181 46q30 10 59 -8t39 -48q10 -34 -7 -61t-49 -37q-150 -52 -312 -62 q12 -142 0 -286t-24 -286t-11 -284t37 -282q64 6 126 12t124 10q38 2 57 -21t19 -53t-19 -56t-57 -28q-98 -6 -195 -17t-194 -16t-194 1t-193 34zM388 1772q18 -14 22 -40q4 -16 4 -24t-4 -24l-20 -54q-16 -30 -49 -37t-61 9q-26 14 -36 46q-2 18 -6 22q-16 30 -8 60 q8 28 38 48q12 10 28 16t32 4t23 -3t19 -9t18 -14zM660 1756q28 -16 36 -49t-8 -61q-10 -16 -22 -28q-18 -18 -40 -26q-28 -10 -55 3t-43 37q-12 20 -15 41t-3 43q0 34 23 57t57 23q46 0 70 -40z" />
<glyph unicode="&#xd0;" horiz-adv-x="1140" d="M154 788v58q0 60 -4 124t-4 127t7 125t29 120q-10 32 4 66t54 42q24 26 57 24t55 -22q98 -8 191 -37t171 -93q96 -76 154 -183t94 -221q16 -50 33 -102t30 -106t19 -108t2 -108q-10 -122 -72 -217t-164 -161q-68 -42 -146 -76t-156 -52q-70 -16 -137 -14t-135 10 q-16 -18 -39 -25t-45 -1q-46 12 -56 58q-24 24 -24 58q0 44 40 70q12 80 19 160t11 162q4 40 5 82t3 84q-30 -4 -67 -8t-85 -12q-32 -6 -60 8t-38 48q-8 28 8 60t48 38q64 10 111 16t87 6zM488 774q38 0 58 -26t20 -56t-20 -54t-58 -24q-58 4 -102 6t-80 6q-4 -124 -12 -245 t-24 -243q36 -4 73 -6t73 2q76 8 153 39t143 71q26 16 47 32t43 38q18 20 28 32t24 36q34 70 32 158q0 50 -8 93t-24 97q-16 56 -33 111t-39 107q-16 44 -43 95t-55 85q-70 84 -158 121t-192 43q-22 -56 -27 -117t-3 -123t7 -124t3 -120l-2 -24q36 -4 79 -6t97 -4z" />
<glyph unicode="&#xd1;" horiz-adv-x="1022" d="M88 1172q-4 4 -7 8t-7 8q-24 24 -23 51t16 48t40 32t51 1q32 4 61 -15t29 -61q102 -122 192 -240t164 -250q34 -60 63 -123t55 -127q0 82 7 162t17 164q22 172 43 343t23 347q0 38 25 57t55 19t55 -19t25 -57q-2 -180 -25 -355t-45 -351q-10 -90 -16 -177t-4 -177 q2 -86 5 -170t-1 -170q-2 -30 -19 -49t-41 -25t-48 2t-40 32q-46 70 -78 147t-60 153q-28 74 -58 143t-68 137q-50 90 -107 172t-121 160v-161t4 -161q4 -144 20 -285t34 -283q4 -34 -23 -57t-55 -23q-36 0 -56 23t-24 57q-20 142 -36 283t-20 285q-4 126 -3 251t1 251z M572 1494q-42 -16 -87 -9t-81 35q-28 22 -54 49t-62 33q-34 6 -65 -12t-53 -40q-28 -28 -59 -24t-52 25t-26 52t23 59q34 34 76 58t89 35t94 4t91 -33q38 -26 66 -56q10 -10 18 -17t18 -11q12 -2 24 7t24 22t22 28t16 23q22 26 56 24t56 -24q26 -24 24 -55t-24 -57 q-28 -34 -58 -67t-76 -49z" />
<glyph unicode="&#xd2;" horiz-adv-x="1118" d="M300 98q-46 34 -83 77t-67 91q-28 42 -54 90t-46 98t-31 102t-7 104q6 102 21 201t41 195q8 36 20 80t31 85t45 75t66 52q60 26 120 19t117 -33t109 -63t98 -73q42 -34 83 -71t85 -71q52 -46 105 -92t87 -106q40 -68 46 -137t-10 -136t-50 -131t-74 -124 q-36 -52 -83 -110t-104 -106t-122 -76t-137 -20q-42 6 -62 32q-38 6 -74 16t-70 32zM172 674q-4 -50 5 -92t31 -94q28 -58 62 -117t80 -107q40 -44 92 -54q34 -6 66 -11t64 -15q12 4 24 9t24 15q34 22 62 48t54 54q50 56 97 122t75 136t22 132t-58 120q-48 54 -105 99 t-111 91q-46 40 -90 76t-96 68q-48 32 -94 48q-6 2 -11 3t-11 3l-30 2q-16 -4 -20 -8q-14 -16 -16 -16q-14 -24 -18 -34t-12 -32q-20 -58 -34 -117t-24 -117t-17 -106t-11 -106zM396 1766q64 -50 131 -90t139 -76q34 -18 39 -48t-11 -56t-46 -39t-64 5q-156 80 -300 190 q-26 22 -24 57t24 57q26 26 56 23t56 -23z" />
<glyph unicode="&#xd3;" horiz-adv-x="1118" d="M300 98q-46 34 -83 77t-67 91q-28 42 -54 90t-46 98t-31 102t-7 104q6 102 21 201t41 195q8 36 20 80t31 85t45 75t66 52q60 26 120 19t117 -33t109 -63t98 -73q42 -34 83 -71t85 -71q52 -46 105 -92t87 -106q40 -68 46 -137t-10 -136t-50 -131t-74 -124 q-36 -52 -83 -110t-104 -106t-122 -76t-137 -20q-42 6 -62 32q-38 6 -74 16t-70 32zM172 674q-4 -50 5 -92t31 -94q28 -58 62 -117t80 -107q40 -44 92 -54q34 -6 66 -11t64 -15q12 4 24 9t24 15q34 22 62 48t54 54q50 56 97 122t75 136t22 132t-58 120q-48 54 -105 99 t-111 91q-46 40 -90 76t-96 68q-48 32 -94 48q-6 2 -11 3t-11 3l-30 2q-16 -4 -20 -8q-14 -16 -16 -16q-14 -24 -18 -34t-12 -32q-20 -58 -34 -117t-24 -117t-17 -106t-11 -106zM690 1766q26 20 56 23t56 -23q22 -22 24 -57t-24 -57q-144 -110 -300 -190q-34 -18 -64 -5 t-45 39t-11 56t38 48q72 36 139 76t131 90z" />
<glyph unicode="&#xd4;" horiz-adv-x="1118" d="M300 98q-46 34 -83 77t-67 91q-28 42 -54 90t-46 98t-31 102t-7 104q6 102 21 201t41 195q8 36 20 80t31 85t45 75t66 52q60 26 120 19t117 -33t109 -63t98 -73q42 -34 83 -71t85 -71q52 -46 105 -92t87 -106q40 -68 46 -137t-10 -136t-50 -131t-74 -124 q-36 -52 -83 -110t-104 -106t-122 -76t-137 -20q-42 6 -62 32q-38 6 -74 16t-70 32zM172 674q-4 -50 5 -92t31 -94q28 -58 62 -117t80 -107q40 -44 92 -54q34 -6 66 -11t64 -15q12 4 24 9t24 15q34 22 62 48t54 54q50 56 97 122t75 136t22 132t-58 120q-48 54 -105 99 t-111 91q-46 40 -90 76t-96 68q-48 32 -94 48q-6 2 -11 3t-11 3l-30 2q-16 -4 -20 -8q-14 -16 -16 -16q-14 -24 -18 -34t-12 -32q-20 -58 -34 -117t-24 -117t-17 -106t-11 -106zM776 1598q26 -22 24 -57t-24 -57q-24 -24 -55 -22t-57 22q-42 34 -79 71t-79 71 q-42 -34 -82 -68t-80 -72q-28 -26 -60 -22t-53 25t-24 52t25 59q54 52 112 100t122 92q16 10 39 10t41 -10q66 -40 119 -94t111 -100z" />
<glyph unicode="&#xd5;" horiz-adv-x="1118" d="M300 98q-46 34 -83 77t-67 91q-28 42 -54 90t-46 98t-31 102t-7 104q6 102 21 201t41 195q8 36 20 80t31 85t45 75t66 52q60 26 120 19t117 -33t109 -63t98 -73q42 -34 83 -71t85 -71q52 -46 105 -92t87 -106q40 -68 46 -137t-10 -136t-50 -131t-74 -124 q-36 -52 -83 -110t-104 -106t-122 -76t-137 -20q-42 6 -62 32q-38 6 -74 16t-70 32zM172 674q-4 -50 5 -92t31 -94q28 -58 62 -117t80 -107q40 -44 92 -54q34 -6 66 -11t64 -15q12 4 24 9t24 15q34 22 62 48t54 54q50 56 97 122t75 136t22 132t-58 120q-48 54 -105 99 t-111 91q-46 40 -90 76t-96 68q-48 32 -94 48q-6 2 -11 3t-11 3l-30 2q-16 -4 -20 -8q-14 -16 -16 -16q-14 -24 -18 -34t-12 -32q-20 -58 -34 -117t-24 -117t-17 -106t-11 -106zM754 1472q-42 -16 -87 -9t-81 35q-28 22 -54 49t-62 33q-34 6 -65 -12t-53 -40 q-28 -28 -59 -24t-52 25t-26 52t23 59q34 34 76 58t89 35t94 4t91 -33q38 -26 66 -56q10 -10 18 -17t18 -11q12 -2 24 7t24 22t22 28t16 23q22 26 56 24t56 -24q26 -24 24 -55t-24 -57q-28 -34 -58 -67t-76 -49z" />
<glyph unicode="&#xd6;" horiz-adv-x="1118" d="M300 98q-46 34 -83 77t-67 91q-28 42 -54 90t-46 98t-31 102t-7 104q6 102 21 201t41 195q8 36 20 80t31 85t45 75t66 52q60 26 120 19t117 -33t109 -63t98 -73q42 -34 83 -71t85 -71q52 -46 105 -92t87 -106q40 -68 46 -137t-10 -136t-50 -131t-74 -124 q-36 -52 -83 -110t-104 -106t-122 -76t-137 -20q-42 6 -62 32q-38 6 -74 16t-70 32zM172 674q-4 -50 5 -92t31 -94q28 -58 62 -117t80 -107q40 -44 92 -54q34 -6 66 -11t64 -15q12 4 24 9t24 15q34 22 62 48t54 54q50 56 97 122t75 136t22 132t-58 120q-48 54 -105 99 t-111 91q-46 40 -90 76t-96 68q-48 32 -94 48q-6 2 -11 3t-11 3l-30 2q-16 -4 -20 -8q-14 -16 -16 -16q-14 -24 -18 -34t-12 -32q-20 -58 -34 -117t-24 -117t-17 -106t-11 -106zM326 1690q18 -14 22 -40q4 -16 4 -24t-4 -24l-20 -54q-16 -30 -49 -37t-61 9q-26 14 -36 46 q-2 18 -6 22q-16 30 -8 60q8 28 38 48q12 10 28 16t32 4t23 -3t19 -9t18 -14zM598 1674q28 -16 36 -49t-8 -61q-10 -16 -22 -28q-18 -18 -40 -26q-28 -10 -55 3t-43 37q-12 20 -15 41t-3 43q0 34 23 57t57 23q46 0 70 -40z" />
<glyph unicode="&#xd7;" horiz-adv-x="776" d="M710 416q28 -26 25 -58t-23 -54t-50 -28t-58 22q-56 52 -109 106t-107 108q-52 -48 -101 -99t-93 -109q-20 -26 -50 -35t-60 9q-26 16 -35 50t11 60q48 64 102 121t112 109q-46 40 -92 75t-96 67q-28 18 -40 47t4 61q14 28 46 40t60 -6q64 -40 122 -85t114 -93 q52 42 102 84t102 86q28 26 59 20t52 -27t23 -52t-26 -57q-48 -42 -97 -82t-99 -82q52 -50 101 -99t101 -99z" />
<glyph unicode="&#xd8;" horiz-adv-x="1130" d="M858 1056q54 -46 106 -92t86 -106q40 -68 46 -137t-10 -136t-50 -131t-74 -124q-36 -52 -83 -110t-104 -106t-122 -76t-137 -20q-18 4 -35 11t-27 21q-32 6 -63 12t-59 22q-22 -50 -42 -100t-38 -102q-10 -30 -37 -48t-61 -8q-30 10 -48 39t-8 59q26 70 53 138t59 134 q-14 16 -26 34l-24 36q-28 42 -54 90t-46 98t-31 102t-7 104q6 102 22 201t40 195q8 36 20 80t31 85t45 75t66 52q60 26 120 19t117 -33t109 -63t98 -73q10 -8 19 -16t19 -16q28 52 53 104t49 104q14 30 49 38t61 -8q30 -18 36 -49t-8 -61q-28 -60 -56 -118t-60 -116z M288 360q86 170 180 333t184 329q-40 36 -83 70t-89 62q-48 32 -94 48q-6 2 -11 3t-11 3l-30 2q-12 -4 -20 -8q-14 -16 -16 -16q-14 -24 -18 -34t-12 -32q-20 -58 -34 -117t-24 -117t-17 -106t-11 -106q-4 -50 5 -92t31 -94q16 -34 33 -66t37 -62zM918 568q28 70 22 132 t-58 120q-24 28 -51 52t-55 48q-96 -174 -193 -343t-183 -347q12 -6 24 -11t28 -9q34 -6 66 -11t66 -15q10 4 22 9t24 15q34 22 62 48t54 54q50 56 97 122t75 136z" />
<glyph unicode="&#xd9;" horiz-adv-x="990" d="M80 544q-22 200 -30 397t-30 395q-4 34 23 57t57 23q36 0 56 -23t24 -57q14 -120 21 -237t13 -237q8 -174 30 -352q2 -22 5 -50t5 -42q4 -28 9 -54t11 -52q12 -50 27 -91t45 -69l18 -10q16 -4 28 -4q14 2 41 11t47 23q54 36 92 90t66 112q32 64 56 132t40 138 q40 176 35 354t-27 354q-4 32 23 56t55 24q36 0 56 -24t24 -56q26 -192 28 -389t-48 -385q-18 -68 -42 -140t-57 -139t-77 -128t-100 -105t-124 -70t-138 -12q-54 10 -97 47t-69 83q-52 100 -68 211t-28 219zM274 1788q64 -50 131 -90t139 -76q34 -18 39 -48t-11 -56 t-46 -39t-64 5q-156 80 -300 190q-26 22 -24 57t24 57q26 26 56 23t56 -23z" />
<glyph unicode="&#xda;" horiz-adv-x="990" d="M80 544q-22 200 -30 397t-30 395q-4 34 23 57t57 23q36 0 56 -23t24 -57q14 -120 21 -237t13 -237q8 -174 30 -352q2 -22 5 -50t5 -42q4 -28 9 -54t11 -52q12 -50 27 -91t45 -69l18 -10q16 -4 28 -4q14 2 41 11t47 23q54 36 92 90t66 112q32 64 56 132t40 138 q40 176 35 354t-27 354q-4 32 23 56t55 24q36 0 56 -24t24 -56q26 -192 28 -389t-48 -385q-18 -68 -42 -140t-57 -139t-77 -128t-100 -105t-124 -70t-138 -12q-54 10 -97 47t-69 83q-52 100 -68 211t-28 219zM612 1828q26 20 56 23t56 -23q22 -22 24 -57t-24 -57 q-144 -110 -300 -190q-34 -18 -64 -5t-45 39t-11 56t38 48q72 36 139 76t131 90z" />
<glyph unicode="&#xdb;" horiz-adv-x="990" d="M80 544q-22 200 -30 397t-30 395q-4 34 23 57t57 23q36 0 56 -23t24 -57q14 -120 21 -237t13 -237q8 -174 30 -352q2 -22 5 -50t5 -42q4 -28 9 -54t11 -52q12 -50 27 -91t45 -69l18 -10q16 -4 28 -4q14 2 41 11t47 23q54 36 92 90t66 112q32 64 56 132t40 138 q40 176 35 354t-27 354q-4 32 23 56t55 24q36 0 56 -24t24 -56q26 -192 28 -389t-48 -385q-18 -68 -42 -140t-57 -139t-77 -128t-100 -105t-124 -70t-138 -12q-54 10 -97 47t-69 83q-52 100 -68 211t-28 219zM716 1680q26 -22 24 -57t-24 -57q-24 -24 -55 -22t-57 22 q-42 34 -79 71t-79 71q-42 -34 -82 -68t-80 -72q-28 -26 -60 -22t-53 25t-24 52t25 59q54 52 112 100t122 92q16 10 39 10t41 -10q66 -40 119 -94t111 -100z" />
<glyph unicode="&#xdc;" horiz-adv-x="990" d="M80 544q-22 200 -30 397t-30 395q-4 34 23 57t57 23q36 0 56 -23t24 -57q14 -120 21 -237t13 -237q8 -174 30 -352q2 -22 5 -50t5 -42q4 -28 9 -54t11 -52q12 -50 27 -91t45 -69l18 -10q16 -4 28 -4q14 2 41 11t47 23q54 36 92 90t66 112q32 64 56 132t40 138 q40 176 35 354t-27 354q-4 32 23 56t55 24q36 0 56 -24t24 -56q26 -192 28 -389t-48 -385q-18 -68 -42 -140t-57 -139t-77 -128t-100 -105t-124 -70t-138 -12q-54 10 -97 47t-69 83q-52 100 -68 211t-28 219zM388 1732q18 -14 22 -40q4 -16 4 -24t-4 -24l-20 -54 q-16 -30 -49 -37t-61 9q-26 14 -36 46q-2 18 -6 22q-16 30 -8 60q8 28 38 48q12 10 28 16t32 4t23 -3t19 -9t18 -14zM660 1716q28 -16 36 -49t-8 -61q-10 -16 -22 -28q-18 -18 -40 -26q-28 -10 -55 3t-43 37q-12 20 -15 41t-3 43q0 34 23 57t57 23q46 0 70 -40z" />
<glyph unicode="&#xdd;" horiz-adv-x="796" d="M-104 1340q-34 18 -38 49t11 57t44 38t63 -6q106 -56 176 -141t116 -193q30 -70 59 -138t75 -126q74 64 134 142t112 163t99 173t95 170q20 32 51 36t57 -11t38 -44t-8 -63q-52 -88 -103 -179t-106 -179t-118 -169t-139 -151q-8 -182 -11 -361t11 -361q2 -32 -24 -55 t-56 -23q-34 0 -56 23t-24 55q-12 164 -11 326t7 326q-18 12 -30 30q-68 74 -108 156t-78 172t-93 163t-145 121zM632 1870q26 20 56 23t56 -23q22 -22 24 -57t-24 -57q-144 -110 -300 -190q-34 -18 -64 -5t-45 39t-11 56t38 48q72 36 139 76t131 90z" />
<glyph unicode="&#xde;" horiz-adv-x="886" d="M722 1128q58 -18 110 -52t62 -102q6 -40 -3 -77t-23 -75q-36 -102 -84 -203t-112 -191q-28 -40 -61 -80t-73 -74t-85 -57t-97 -25q18 -94 42 -178q10 -38 -9 -63t-48 -33t-58 4t-39 50q-58 216 -87 437t-49 441q-10 100 -16 197t-8 195q-2 52 -2 113t26 109q18 34 48 38 t56 -11t38 -45t-6 -64q2 -6 1 -18t-1 -16q-2 -22 -2 -41v-41q64 4 126 -16t120 -42q116 -44 234 -80zM738 948q-28 18 -53 25t-51 13q-52 16 -100 35t-100 37q-46 16 -93 32t-93 16q4 -70 9 -138t13 -138q10 -120 24 -240t34 -240h20q8 2 21 7t5 1q20 6 34 18q16 10 20 14 q36 32 64 65t52 69q28 44 54 88t48 90q22 44 35 75t29 75q6 16 11 31t9 31l4 12t4 14v8z" />
<glyph unicode="&#xdf;" horiz-adv-x="1232" d="M988 334q48 -28 98 -60t86 -78q38 -50 40 -110t-50 -102q-64 -54 -144 -81t-165 -30t-168 17t-153 60q-34 18 -38 49t11 56t44 37t63 -6q26 -14 51 -23t53 -17q76 -18 154 -12t148 44q18 8 30 18l-12 12t-14 12q-40 34 -92 62t-105 58t-102 65t-85 81q-30 40 -45 87t1 97 q14 44 40 81t58 69q36 38 74 73t74 71t66 76t52 86q22 44 29 106t3 118q-2 8 -4 20t-6 26l-6 24l-12 24t-10 16q2 -4 -7 6t-13 14q-12 10 -15 11t-7 5q-14 4 -16 5t-4 1q-16 4 -22 4h-30q-26 -6 -38 -10l-28 -10q-18 -10 -39 -23t-31 -21q-56 -48 -96 -110t-69 -131 t-49 -142t-38 -143q-90 -372 -48 -754q4 -34 -23 -57t-57 -23q-34 0 -54 23t-24 57q-34 298 12 594q-50 10 -98 18t-98 12q-34 4 -57 25t-23 55q0 30 23 57t57 23q58 -6 113 -15t113 -19q46 202 122 382q26 62 61 120t83 106q36 36 79 67t91 51t100 26t104 -6q54 -14 94 -45 t68 -74t43 -94t19 -103q8 -134 -37 -250t-135 -214q-34 -38 -72 -73t-74 -71l-31 -31t-29 -31q0 -2 -6 -11t-8 -13q-12 -22 -12 -30q0 -6 8 -19t4 -7q10 -16 28 -30q42 -36 96 -67t106 -61z" />
<glyph unicode="&#xe0;" horiz-adv-x="994" d="M234 54q-68 30 -107 83t-54 117t-9 133t28 133q18 50 41 104t55 100t76 79t104 43q62 10 125 7t125 -13q28 -4 54 -13t52 -19q2 30 27 50t53 20q34 0 55 -23t25 -55q10 -92 9 -184t-6 -184t-8 -184t1 -184q2 -38 -23 -57t-55 -19t-55 19t-27 57q-114 -48 -242 -55 t-244 45zM248 488q-12 -36 -22 -82t-6 -88t26 -77t72 -49q102 -32 205 -18t193 72q8 98 13 190t3 186q-34 22 -69 39t-77 23t-89 9t-91 -1q-4 0 -21 -5t-19 -7q-20 -10 -36 -32q-26 -36 -46 -77t-36 -83zM356 1298q64 -50 131 -90t139 -76q34 -18 39 -48t-11 -56t-46 -39 t-64 5q-156 80 -300 190q-26 22 -24 57t24 57q26 26 56 23t56 -23z" />
<glyph unicode="&#xe1;" horiz-adv-x="994" d="M234 54q-68 30 -107 83t-54 117t-9 133t28 133q18 50 41 104t55 100t76 79t104 43q62 10 125 7t125 -13q28 -4 54 -13t52 -19q2 30 27 50t53 20q34 0 55 -23t25 -55q10 -92 9 -184t-6 -184t-8 -184t1 -184q2 -38 -23 -57t-55 -19t-55 19t-27 57q-114 -48 -242 -55 t-244 45zM248 488q-12 -36 -22 -82t-6 -88t26 -77t72 -49q102 -32 205 -18t193 72q8 98 13 190t3 186q-34 22 -69 39t-77 23t-89 9t-91 -1q-4 0 -21 -5t-19 -7q-20 -10 -36 -32q-26 -36 -46 -77t-36 -83zM712 1318q26 20 56 23t56 -23q22 -22 24 -57t-24 -57 q-144 -110 -300 -190q-34 -18 -64 -5t-45 39t-11 56t38 48q72 36 139 76t131 90z" />
<glyph unicode="&#xe2;" horiz-adv-x="994" d="M234 54q-68 30 -107 83t-54 117t-9 133t28 133q18 50 41 104t55 100t76 79t104 43q62 10 125 7t125 -13q28 -4 54 -13t52 -19q2 30 27 50t53 20q34 0 55 -23t25 -55q10 -92 9 -184t-6 -184t-8 -184t1 -184q2 -38 -23 -57t-55 -19t-55 19t-27 57q-114 -48 -242 -55 t-244 45zM248 488q-12 -36 -22 -82t-6 -88t26 -77t72 -49q102 -32 205 -18t193 72q8 98 13 190t3 186q-34 22 -69 39t-77 23t-89 9t-91 -1q-4 0 -21 -5t-19 -7q-20 -10 -36 -32q-26 -36 -46 -77t-36 -83zM798 1150q26 -22 24 -57t-24 -57q-24 -24 -55 -22t-57 22 q-42 34 -79 71t-79 71q-42 -34 -82 -68t-80 -72q-28 -26 -60 -22t-53 25t-24 52t25 59q54 52 112 100t122 92q16 10 39 10t41 -10q66 -40 119 -94t111 -100z" />
<glyph unicode="&#xe3;" horiz-adv-x="994" d="M234 54q-68 30 -107 83t-54 117t-9 133t28 133q18 50 41 104t55 100t76 79t104 43q62 10 125 7t125 -13q28 -4 54 -13t52 -19q2 30 27 50t53 20q34 0 55 -23t25 -55q10 -92 9 -184t-6 -184t-8 -184t1 -184q2 -38 -23 -57t-55 -19t-55 19t-27 57q-114 -48 -242 -55 t-244 45zM248 488q-12 -36 -22 -82t-6 -88t26 -77t72 -49q102 -32 205 -18t193 72q8 98 13 190t3 186q-34 22 -69 39t-77 23t-89 9t-91 -1q-4 0 -21 -5t-19 -7q-20 -10 -36 -32q-26 -36 -46 -77t-36 -83zM694 1024q-42 -16 -87 -9t-81 35q-28 22 -54 49t-62 33 q-34 6 -65 -12t-53 -40q-28 -28 -59 -24t-52 25t-26 52t23 59q34 34 76 58t89 35t94 4t91 -33q38 -26 66 -56q10 -10 18 -17t18 -11q12 -2 24 7t24 22t22 28t16 23q22 26 56 24t56 -24q26 -24 24 -55t-24 -57q-28 -34 -58 -67t-76 -49z" />
<glyph unicode="&#xe4;" horiz-adv-x="994" d="M234 54q-68 30 -107 83t-54 117t-9 133t28 133q18 50 41 104t55 100t76 79t104 43q62 10 125 7t125 -13q28 -4 54 -13t52 -19q2 30 27 50t53 20q34 0 55 -23t25 -55q10 -92 9 -184t-6 -184t-8 -184t1 -184q2 -38 -23 -57t-55 -19t-55 19t-27 57q-114 -48 -242 -55 t-244 45zM248 488q-12 -36 -22 -82t-6 -88t26 -77t72 -49q102 -32 205 -18t193 72q8 98 13 190t3 186q-34 22 -69 39t-77 23t-89 9t-91 -1q-4 0 -21 -5t-19 -7q-20 -10 -36 -32q-26 -36 -46 -77t-36 -83zM428 1200q18 -14 22 -40q4 -16 4 -24t-4 -24l-20 -54 q-16 -30 -49 -37t-61 9q-26 14 -36 46q-2 18 -6 22q-16 30 -8 60q8 28 38 48q12 10 28 16t32 4t23 -3t19 -9t18 -14zM700 1184q28 -16 36 -49t-8 -61q-10 -16 -22 -28q-18 -18 -40 -26q-28 -10 -55 3t-43 37q-12 20 -15 41t-3 43q0 34 23 57t57 23q46 0 70 -40z" />
<glyph unicode="&#xe5;" horiz-adv-x="994" d="M248 488q-12 -36 -22 -82t-6 -88t26 -77t72 -49q102 -32 203 -15t195 69q8 98 13 190t3 186q-34 22 -69 39t-77 23t-89 9t-91 -1q-4 0 -21 -5t-19 -7q-20 -10 -36 -32q-26 -36 -46 -77t-36 -83zM388 1344q52 24 106 22t100 -25t81 -65t51 -96q12 -42 12 -92t-15 -96 t-44 -84t-73 -58q40 -14 66 -23t52 -19q2 30 27 50t53 20q34 0 55 -23t25 -55q10 -92 9 -184t-6 -184t-8 -184t1 -184q2 -38 -23 -57t-55 -19t-55 19t-27 57q-114 -48 -242 -55t-244 45q-68 30 -107 83t-54 117t-9 133t28 133q18 50 41 104t55 101t76 80t104 41 q-44 24 -86 66t-54 106q-2 16 -2 22q-6 40 5 86t34 89t55 77t68 52zM580 1082v26q-2 2 -3 11t-1 11q-2 4 -3 10t-3 10q0 -2 -5 7t-7 11q-14 16 -26 25t-22 13q-38 10 -62 -14q-18 -16 -31 -38t-21 -40q-4 -10 -6 -21t-4 -21l-2 -20q8 -30 24 -40t48 -18q6 -2 11 -3t11 -3 q16 -2 27 -1t3 -1q16 4 19 4t17 10l15 18t5 8q10 22 14 38z" />
<glyph unicode="&#xe6;" horiz-adv-x="1606" d="M1542 218q-58 -78 -137 -133t-181 -59q-82 -4 -158 29t-134 89q-32 32 -54 62v-71t2 -71q2 -38 -23 -57t-55 -19t-55 19t-27 57q-114 -48 -242 -55t-244 45q-68 30 -107 83t-54 117t-9 133t28 133q18 50 41 104t55 100t76 79t104 43q62 10 125 7t125 -13q28 -4 54 -13 t52 -19q2 30 27 50t53 20q34 0 54 -21t24 -51q40 46 90 80t107 51t117 17t120 -24t110 -65t78 -105q22 -48 26 -104t-30 -102q-30 -42 -73 -64t-92 -32t-100 -10t-97 2q-52 2 -103 8t-103 12q16 -90 65 -160t129 -106q22 -8 34 -12q6 -2 11 -3t11 -1q16 -2 28 -3t22 1 q22 4 28 6q22 6 39 14t41 26q12 10 32 30t34 36q20 28 49 38t59 -8q26 -16 38 -49t-10 -61zM1094 776q-46 -22 -82 -61t-58 -87l96 -12t96 -8h53t51 2q8 0 15 1t15 1q18 4 27 5t19 5q8 2 20 6q10 4 13 6t7 4l4 24q-4 8 -5 15t-3 13q-4 6 -11 18t-13 20q-10 14 -28 27t-40 23 q-36 16 -87 16t-89 -18zM720 248q4 96 9 188t3 186q-34 22 -69 39t-77 23t-89 9t-91 -1q-4 0 -21 -5t-19 -7q-20 -10 -36 -32q-26 -36 -46 -77t-36 -83q-12 -36 -22 -82t-6 -88t26 -77t72 -49q102 -32 205 -18t193 72z" />
<glyph unicode="&#xe7;" horiz-adv-x="756" d="M544 -64q36 -12 70 -33t58 -49t33 -64t-3 -80q-22 -74 -84 -123t-132 -75q-32 -12 -68 -19t-72 -5t-68 15t-56 43q-22 26 -25 56t21 56q22 22 57 26t57 -22q28 -16 32 -17t20 3q20 4 45 13t45 19l12 8l12 8q18 12 22 16l8 8q10 14 14 21t8 15q-14 12 -37 22t-45 16 q-28 10 -56 11t-56 9q-40 10 -66 40t-34 70q-8 36 0 71t4 71q-2 18 8 40q-18 10 -35 21t-35 25q-88 70 -125 179t-13 219q22 98 92 170t160 112q80 38 168 60t176 14q34 -4 57 -25t23 -55q0 -30 -23 -56t-57 -24q-64 6 -126 -6t-120 -38q-34 -16 -67 -34t-57 -40 q-26 -24 -43 -48t-25 -56t-6 -68t13 -71t31 -64t48 -49q58 -42 127 -57t135 -3q32 6 60 -8t38 -48q8 -28 -8 -60t-48 -38q-46 -8 -94 -9t-94 7q2 -20 -1 -40t-7 -40q34 -16 66 -22t66 -18z" />
<glyph unicode="&#xe8;" d="M150 776q38 52 91 92t113 63t124 24t128 -25q62 -24 112 -65t78 -105q22 -48 26 -104t-30 -102q-30 -42 -73 -64t-92 -32t-100 -10t-97 2q-52 2 -103 8t-103 12q16 -90 64 -160t130 -106q22 -8 34 -12q6 -2 11 -3t11 -1q16 -2 27 -3t21 1q14 2 19 3t11 3q22 6 39 14 t41 26q12 10 32 30t34 36q20 28 49 38t59 -8q26 -16 37 -49t-9 -61q-58 -78 -137 -133t-181 -59q-82 -4 -158 29t-134 89q-72 70 -114 162t-46 188q-18 14 -27 35t-6 43t15 41t36 25q22 74 68 138zM630 728q-22 28 -68 50q-38 16 -89 16t-87 -18q-46 -22 -82 -61t-58 -87 l96 -12t96 -8h52t52 2q8 0 15 1t15 1q18 4 27 5t19 5q8 2 20 6q10 4 12 6t6 4l6 24q-4 8 -5 15t-5 13q-2 6 -9 18t-13 20zM396 1380q64 -50 131 -90t139 -76q34 -18 39 -48t-11 -56t-46 -39t-64 5q-156 80 -300 190q-26 22 -24 57t24 57q26 26 56 23t56 -23z" />
<glyph unicode="&#xe9;" d="M150 776q38 52 91 92t113 63t124 24t128 -25q62 -24 112 -65t78 -105q22 -48 26 -104t-30 -102q-30 -42 -73 -64t-92 -32t-100 -10t-97 2q-52 2 -103 8t-103 12q16 -90 64 -160t130 -106q22 -8 34 -12q6 -2 11 -3t11 -1q16 -2 27 -3t21 1q14 2 19 3t11 3q22 6 39 14 t41 26q12 10 32 30t34 36q20 28 49 38t59 -8q26 -16 37 -49t-9 -61q-58 -78 -137 -133t-181 -59q-82 -4 -158 29t-134 89q-72 70 -114 162t-46 188q-18 14 -27 35t-6 43t15 41t36 25q22 74 68 138zM630 728q-22 28 -68 50q-38 16 -89 16t-87 -18q-46 -22 -82 -61t-58 -87 l96 -12t96 -8h52t52 2q8 0 15 1t15 1q18 4 27 5t19 5q8 2 20 6q10 4 12 6t6 4l6 24q-4 8 -5 15t-5 13q-2 6 -9 18t-13 20zM590 1380q26 20 56 23t56 -23q22 -22 24 -57t-24 -57q-144 -110 -300 -190q-34 -18 -64 -5t-45 39t-11 56t38 48q72 36 139 76t131 90z" />
<glyph unicode="&#xea;" d="M150 776q38 52 91 92t113 63t124 24t128 -25q62 -24 112 -65t78 -105q22 -48 26 -104t-30 -102q-30 -42 -73 -64t-92 -32t-100 -10t-97 2q-52 2 -103 8t-103 12q16 -90 64 -160t130 -106q22 -8 34 -12q6 -2 11 -3t11 -1q16 -2 27 -3t21 1q14 2 19 3t11 3q22 6 39 14 t41 26q12 10 32 30t34 36q20 28 49 38t59 -8q26 -16 37 -49t-9 -61q-58 -78 -137 -133t-181 -59q-82 -4 -158 29t-134 89q-72 70 -114 162t-46 188q-18 14 -27 35t-6 43t15 41t36 25q22 74 68 138zM630 728q-22 28 -68 50q-38 16 -89 16t-87 -18q-46 -22 -82 -61t-58 -87 l96 -12t96 -8h52t52 2q8 0 15 1t15 1q18 4 27 5t19 5q8 2 20 6q10 4 12 6t6 4l6 24q-4 8 -5 15t-5 13q-2 6 -9 18t-13 20zM756 1192q26 -22 24 -57t-24 -57q-24 -24 -55 -22t-57 22q-42 34 -79 71t-79 71q-42 -34 -82 -68t-80 -72q-28 -26 -60 -22t-53 25t-24 52t25 59 q54 52 112 100t122 92q16 10 39 10t41 -10q66 -40 119 -94t111 -100z" />
<glyph unicode="&#xeb;" d="M150 776q38 52 91 92t113 63t124 24t128 -25q62 -24 112 -65t78 -105q22 -48 26 -104t-30 -102q-30 -42 -73 -64t-92 -32t-100 -10t-97 2q-52 2 -103 8t-103 12q16 -90 64 -160t130 -106q22 -8 34 -12q6 -2 11 -3t11 -1q16 -2 27 -3t21 1q14 2 19 3t11 3q22 6 39 14 t41 26q12 10 32 30t34 36q20 28 49 38t59 -8q26 -16 37 -49t-9 -61q-58 -78 -137 -133t-181 -59q-82 -4 -158 29t-134 89q-72 70 -114 162t-46 188q-18 14 -27 35t-6 43t15 41t36 25q22 74 68 138zM630 728q-22 28 -68 50q-38 16 -89 16t-87 -18q-46 -22 -82 -61t-58 -87 l96 -12t96 -8h52t52 2q8 0 15 1t15 1q18 4 27 5t19 5q8 2 20 6q10 4 12 6t6 4l6 24q-4 8 -5 15t-5 13q-2 6 -9 18t-13 20zM408 1262q18 -14 22 -40q4 -16 4 -24t-4 -24l-20 -54q-16 -30 -49 -37t-61 9q-26 14 -36 46q-2 18 -6 22q-16 30 -8 60q8 28 38 48q12 10 28 16t32 4 t23 -3t19 -9t18 -14zM680 1246q28 -16 36 -49t-8 -61q-10 -16 -22 -28q-18 -18 -40 -26q-28 -10 -55 3t-43 37q-12 20 -15 41t-3 43q0 34 23 57t57 23q46 0 70 -40z" />
<glyph unicode="&#xec;" horiz-adv-x="460" d="M94 20q16 96 37 189t31 189q8 94 3 185t11 185q4 32 37 48t61 8q34 -10 47 -38t9 -60q-8 -46 -7 -94t3 -96q0 -92 -12 -184q-12 -96 -31 -188t-35 -186q-6 -32 -38 -48t-60 -8q-34 10 -48 38t-8 60zM88 1298q64 -50 131 -90t139 -76q34 -18 39 -48t-11 -56t-46 -39t-64 5 q-156 80 -300 190q-26 22 -24 57t24 57q26 26 56 23t56 -23z" />
<glyph unicode="&#xed;" horiz-adv-x="460" d="M94 20q16 96 37 189t31 189q8 94 3 185t11 185q4 32 37 48t61 8q34 -10 47 -38t9 -60q-8 -46 -7 -94t3 -96q0 -92 -12 -184q-12 -96 -31 -188t-35 -186q-6 -32 -38 -48t-60 -8q-34 10 -48 38t-8 60zM488 1318q26 20 56 23t56 -23q22 -22 24 -57t-24 -57 q-144 -110 -300 -190q-34 -18 -64 -5t-45 39t-11 56t38 48q72 36 139 76t131 90z" />
<glyph unicode="&#xee;" horiz-adv-x="460" d="M94 20q16 96 37 189t31 189q8 94 3 185t11 185q4 32 37 48t61 8q34 -10 47 -38t9 -60q-8 -46 -7 -94t3 -96q0 -92 -12 -184q-12 -96 -31 -188t-35 -186q-6 -32 -38 -48t-60 -8q-34 10 -48 38t-8 60zM530 1088q26 -22 24 -57t-24 -57q-24 -24 -55 -22t-57 22 q-42 34 -79 71t-79 71q-42 -34 -82 -68t-80 -72q-28 -26 -60 -22t-53 25t-24 52t25 59q54 52 112 100t122 92q16 10 39 10t41 -10q66 -40 119 -94t111 -100z" />
<glyph unicode="&#xef;" horiz-adv-x="460" d="M94 20q16 96 37 189t31 189q8 94 3 185t11 185q4 32 37 48t61 8q34 -10 47 -38t9 -60q-8 -46 -7 -94t3 -96q0 -92 -12 -184q-12 -96 -31 -188t-35 -186q-6 -32 -38 -48t-60 -8q-34 10 -48 38t-8 60zM182 1180q18 -14 22 -40q4 -16 4 -24t-4 -24l-20 -54q-16 -30 -49 -37 t-61 9q-26 14 -36 46q-2 18 -6 22q-16 30 -8 60q8 28 38 48q12 10 28 16t32 4t23 -3t19 -9t18 -14zM454 1164q28 -16 36 -49t-8 -61q-10 -16 -22 -28q-18 -18 -40 -26q-28 -10 -55 3t-43 37q-12 20 -15 41t-3 43q0 34 23 57t57 23q46 0 70 -40z" />
<glyph unicode="&#xf0;" horiz-adv-x="1070" d="M880 1278q36 12 61 -6t33 -47t-4 -59t-48 -42q-28 -10 -46 -15t-33 -10t-33 -10t-46 -13q22 -30 39 -62t33 -66q70 -140 106 -292q16 -66 26 -136t4 -140q-6 -64 -26 -124t-64 -110q-46 -52 -109 -82t-131 -40q-130 -18 -255 34t-213 150q-24 26 -47 57t-41 65t-28 70 t-6 74q6 70 37 137t89 113q60 48 132 66t149 14t153 -25t146 -51q-24 72 -58 140q-40 80 -96 158q-34 -12 -56 -20t-41 -16t-39 -19t-52 -29q-34 -18 -63 -6t-44 38t-11 57t38 49q28 16 45 25t32 17t34 15t49 19q-46 48 -98 91t-108 83q-28 20 -37 50t9 60q16 26 49 37 t59 -9q164 -112 292 -258q36 12 61 19t48 15t48 15t61 19zM766 548q-94 48 -196 74t-208 16q-30 -4 -56 -19t-47 -38t-34 -51t-13 -56q-2 -30 7 -52t29 -52q34 -52 88 -96q86 -74 202 -96q38 -6 94 4t100 40q34 24 55 65t25 85q6 80 -6 168q-16 -2 -40 8z" />
<glyph unicode="&#xf1;" horiz-adv-x="832" d="M104 192q0 86 12 174q14 106 28 211t12 213q0 38 24 58t54 20t56 -20t26 -58q78 6 148 6q80 -2 136 -46t84 -118q24 -68 28 -140t6 -144q2 -102 6 -203t4 -203q0 -40 -25 -59t-54 -19t-54 19t-25 59q0 96 -3 188t-7 188q-4 52 -3 107t-9 101q-6 28 -12 49t-22 41 q-4 8 -17 14t-23 6q-30 0 -56 -4t-54 -12l-24 -8t-22 -10q-20 -72 -29 -137t-17 -131q-6 -48 -7 -97t-4 -97t-12 -96t-31 -92q-18 -34 -48 -39t-55 10t-38 45t3 64q18 36 20 78t4 82zM612 1004q-42 -16 -87 -9t-81 35q-28 22 -54 49t-62 33q-34 6 -65 -12t-53 -40 q-28 -28 -59 -24t-52 25t-26 52t23 59q34 34 76 58t89 35t94 4t91 -33q38 -26 66 -56q10 -10 18 -17t18 -11q12 -2 24 7t24 22t22 28t16 23q22 26 56 24t56 -24q26 -24 24 -55t-24 -57q-28 -34 -58 -67t-76 -49z" />
<glyph unicode="&#xf2;" horiz-adv-x="1094" d="M578 922q64 8 134 5t134 -24t116 -63t80 -110q20 -48 21 -97t-14 -94t-44 -86t-67 -75q-82 -74 -180 -126t-206 -80q-46 -12 -95 -21t-99 -9t-98 11t-90 37q-30 18 -36 48q-12 34 -26 64t-27 62t-21 64t-8 66q0 68 29 129t79 107q84 80 194 128t224 64zM804 750 q-54 20 -116 20q-66 2 -132 -13t-126 -41q-56 -22 -115 -61t-87 -95q-16 -30 -15 -61t10 -62t24 -62t27 -61q32 -8 40 -8q4 -2 10 -2h10q40 -4 72 2q22 0 56 8q52 10 100 27t88 37q46 22 90 48t74 54q20 18 38 38q10 10 14 16q10 14 16 21t10 17q8 14 8 22q2 4 3 10t3 10v22 q-2 8 -2 12t-2 8q-6 14 -11 21t-11 15q2 -2 -5 6t-9 10l-16 16q-10 6 -22 14t-24 12zM476 1360q64 -50 131 -90t139 -76q34 -18 39 -48t-11 -56t-46 -39t-64 5q-156 80 -300 190q-26 22 -24 57t24 57q26 26 56 23t56 -23z" />
<glyph unicode="&#xf3;" horiz-adv-x="1094" d="M578 922q64 8 134 5t134 -24t116 -63t80 -110q20 -48 21 -97t-14 -94t-44 -86t-67 -75q-82 -74 -180 -126t-206 -80q-46 -12 -95 -21t-99 -9t-98 11t-90 37q-30 18 -36 48q-12 34 -26 64t-27 62t-21 64t-8 66q0 68 29 129t79 107q84 80 194 128t224 64zM804 750 q-54 20 -116 20q-66 2 -132 -13t-126 -41q-56 -22 -115 -61t-87 -95q-16 -30 -15 -61t10 -62t24 -62t27 -61q32 -8 40 -8q4 -2 10 -2h10q40 -4 72 2q22 0 56 8q52 10 100 27t88 37q46 22 90 48t74 54q20 18 38 38q10 10 14 16q10 14 16 21t10 17q8 14 8 22q2 4 3 10t3 10v22 q-2 8 -2 12t-2 8q-6 14 -11 21t-11 15q2 -2 -5 6t-9 10l-16 16q-10 6 -22 14t-24 12zM670 1338q26 20 56 23t56 -23q22 -22 24 -57t-24 -57q-144 -110 -300 -190q-34 -18 -64 -5t-45 39t-11 56t38 48q72 36 139 76t131 90z" />
<glyph unicode="&#xf4;" horiz-adv-x="1094" d="M578 922q64 8 134 5t134 -24t116 -63t80 -110q20 -48 21 -97t-14 -94t-44 -86t-67 -75q-82 -74 -180 -126t-206 -80q-46 -12 -95 -21t-99 -9t-98 11t-90 37q-30 18 -36 48q-12 34 -26 64t-27 62t-21 64t-8 66q0 68 29 129t79 107q84 80 194 128t224 64zM804 750 q-54 20 -116 20q-66 2 -132 -13t-126 -41q-56 -22 -115 -61t-87 -95q-16 -30 -15 -61t10 -62t24 -62t27 -61q32 -8 40 -8q4 -2 10 -2h10q40 -4 72 2q22 0 56 8q52 10 100 27t88 37q46 22 90 48t74 54q20 18 38 38q10 10 14 16q10 14 16 21t10 17q8 14 8 22q2 4 3 10t3 10v22 q-2 8 -2 12t-2 8q-6 14 -11 21t-11 15q2 -2 -5 6t-9 10l-16 16q-10 6 -22 14t-24 12zM876 1212q26 -22 24 -57t-24 -57q-24 -24 -55 -22t-57 22q-42 34 -79 71t-79 71q-42 -34 -82 -68t-80 -72q-28 -26 -60 -22t-53 25t-24 52t25 59q54 52 112 100t122 92q16 10 39 10 t41 -10q66 -40 119 -94t111 -100z" />
<glyph unicode="&#xf5;" horiz-adv-x="1094" d="M578 922q64 8 134 5t134 -24t116 -63t80 -110q20 -48 21 -97t-14 -94t-44 -86t-67 -75q-82 -74 -180 -126t-206 -80q-46 -12 -95 -21t-99 -9t-98 11t-90 37q-30 18 -36 48q-12 34 -26 64t-27 62t-21 64t-8 66q0 68 29 129t79 107q84 80 194 128t224 64zM804 750 q-54 20 -116 20q-66 2 -132 -13t-126 -41q-56 -22 -115 -61t-87 -95q-16 -30 -15 -61t10 -62t24 -62t27 -61q32 -8 40 -8q4 -2 10 -2h10q40 -4 72 2q22 0 56 8q52 10 100 27t88 37q46 22 90 48t74 54q20 18 38 38q10 10 14 16q10 14 16 21t10 17q8 14 8 22q2 4 3 10t3 10v22 q-2 8 -2 12t-2 8q-6 14 -11 21t-11 15q2 -2 -5 6t-9 10l-16 16q-10 6 -22 14t-24 12zM774 1044q-42 -16 -87 -9t-81 35q-28 22 -54 49t-62 33q-34 6 -65 -12t-53 -40q-28 -28 -59 -24t-52 25t-26 52t23 59q34 34 76 58t89 35t94 4t91 -33q38 -26 66 -56q10 -10 18 -17 t18 -11q12 -2 24 7t24 22t22 28t16 23q22 26 56 24t56 -24q26 -24 24 -55t-24 -57q-28 -34 -58 -67t-76 -49z" />
<glyph unicode="&#xf6;" horiz-adv-x="1094" d="M578 922q64 8 134 5t134 -24t116 -63t80 -110q20 -48 21 -97t-14 -94t-44 -86t-67 -75q-82 -74 -180 -126t-206 -80q-46 -12 -95 -21t-99 -9t-98 11t-90 37q-30 18 -36 48q-12 34 -26 64t-27 62t-21 64t-8 66q0 68 29 129t79 107q84 80 194 128t224 64zM804 750 q-54 20 -116 20q-66 2 -132 -13t-126 -41q-56 -22 -115 -61t-87 -95q-16 -30 -15 -61t10 -62t24 -62t27 -61q32 -8 40 -8q4 -2 10 -2h10q40 -4 72 2q22 0 56 8q52 10 100 27t88 37q46 22 90 48t74 54q20 18 38 38q10 10 14 16q10 14 16 21t10 17q8 14 8 22q2 4 3 10t3 10v22 q-2 8 -2 12t-2 8q-6 14 -11 21t-11 15q2 -2 -5 6t-9 10l-16 16q-10 6 -22 14t-24 12zM528 1242q18 -14 22 -40q4 -16 4 -24t-4 -24l-20 -54q-16 -30 -49 -37t-61 9q-26 14 -36 46q-2 18 -6 22q-16 30 -8 60q8 28 38 48q12 10 28 16t32 4t23 -3t19 -9t18 -14zM800 1226 q28 -16 36 -49t-8 -61q-10 -16 -22 -28q-18 -18 -40 -26q-28 -10 -55 3t-43 37q-12 20 -15 41t-3 43q0 34 23 57t57 23q46 0 70 -40z" />
<glyph unicode="&#xf7;" horiz-adv-x="1124" d="M990 802q46 -2 69 -32t23 -66t-23 -65t-69 -27q-102 2 -206 9t-208 10t-208 -1t-206 -22q-40 -8 -74 9t-44 57q-4 18 -2 37t11 36t24 29t33 16q110 20 220 25t220 3t220 -9t220 -9zM524 1036q-24 12 -36 34q-20 34 -11 69t37 57l12 12t16 10q20 8 24 9t26 3q8 2 17 0 t13 -2q10 -2 20 -7t20 -9q30 -18 47 -56t5 -72q-12 -38 -46 -60q-26 -28 -67 -27t-67 27zM662 462q30 -18 47 -56t5 -72q-12 -38 -46 -60q-26 -28 -67 -27t-67 27q-34 24 -46 48q-20 32 -11 67t37 57l12 12t16 10q20 8 24 9t26 5q8 0 17 -2t13 -2q10 -2 20 -7t20 -9z" />
<glyph unicode="&#xf8;" horiz-adv-x="1094" d="M776 920q86 -16 158 -60t108 -130q20 -48 21 -97t-14 -94t-44 -86t-67 -75q-82 -74 -180 -126t-206 -80q-24 -6 -50 -12t-54 -10q-44 -78 -98 -147t-128 -121q-28 -18 -61 -8t-49 38q-16 30 -7 59t37 49q36 26 66 60t56 72q-50 12 -94 38q-30 18 -36 48q-12 34 -26 64 t-27 62t-21 64t-8 66q0 68 29 129t79 107q84 80 194 128t224 64q6 0 12 1t14 1q28 70 63 134t87 116q26 28 57 24t52 -25t25 -52t-22 -59q-30 -30 -52 -66t-38 -76zM348 302q34 68 64 136t62 134q20 44 37 90t33 92q-30 -8 -58 -17t-56 -21q-56 -22 -115 -61t-87 -95 q-16 -30 -15 -61t10 -62t24 -62t27 -61q32 -8 40 -8q4 -2 10 -2h10zM906 636q-2 8 -2 12t-2 8q-6 14 -11 21t-11 15q2 -2 -5 6t-9 10l-16 16q-10 6 -22 14t-24 12q-38 14 -84 20q-30 -86 -61 -163t-67 -155q-12 -28 -25 -58t-27 -60q30 10 58 21t52 23q46 22 90 48t74 54 q20 18 38 38q10 10 14 16q10 14 16 21t10 17q8 14 8 22q2 4 3 10t3 10v22z" />
<glyph unicode="&#xf9;" horiz-adv-x="1090" d="M946 706q2 -172 24 -344t58 -340q8 -38 -13 -63t-49 -33t-56 4t-36 50q-24 114 -42 224q-8 -10 -14 -19t-14 -19q-40 -48 -92 -83t-111 -54t-121 -21t-122 14q-106 30 -162 104t-80 169t-28 198t-6 191q0 38 24 57t54 19t55 -19t27 -57q2 -80 3 -162t17 -154 q8 -40 18 -69t32 -61q10 -14 11 -16t5 -4q30 -24 40 -29t24 -9q84 -24 170 5t138 105q30 48 45 100t21 105t9 108t11 109q0 60 31 79t65 13q20 -6 32 -14l16 -14q22 -36 16 -70zM356 1134q64 -50 131 -90t139 -76q34 -18 39 -48t-11 -56t-46 -39t-64 5q-156 80 -300 190 q-26 22 -24 57t24 57q26 26 56 23t56 -23z" />
<glyph unicode="&#xfa;" horiz-adv-x="1090" d="M946 706q2 -172 24 -344t58 -340q8 -38 -13 -63t-49 -33t-56 4t-36 50q-24 114 -42 224q-8 -10 -14 -19t-14 -19q-40 -48 -92 -83t-111 -54t-121 -21t-122 14q-106 30 -162 104t-80 169t-28 198t-6 191q0 38 24 57t54 19t55 -19t27 -57q2 -80 3 -162t17 -154 q8 -40 18 -69t32 -61q10 -14 11 -16t5 -4q30 -24 40 -29t24 -9q84 -24 170 5t138 105q30 48 45 100t21 105t9 108t11 109q0 60 31 79t65 13q20 -6 32 -14l16 -14q22 -36 16 -70zM712 1134q26 20 56 23t56 -23q22 -22 24 -57t-24 -57q-144 -110 -300 -190q-34 -18 -64 -5 t-45 39t-11 56t38 48q72 36 139 76t131 90z" />
<glyph unicode="&#xfb;" horiz-adv-x="1090" d="M946 706q2 -172 24 -344t58 -340q8 -38 -13 -63t-49 -33t-56 4t-36 50q-24 114 -42 224q-8 -10 -14 -19t-14 -19q-40 -48 -92 -83t-111 -54t-121 -21t-122 14q-106 30 -162 104t-80 169t-28 198t-6 191q0 38 24 57t54 19t55 -19t27 -57q2 -80 3 -162t17 -154 q8 -40 18 -69t32 -61q10 -14 11 -16t5 -4q30 -24 40 -29t24 -9q84 -24 170 5t138 105q30 48 45 100t21 105t9 108t11 109q0 60 31 79t65 13q20 -6 32 -14l16 -14q22 -36 16 -70zM756 1028q26 -22 24 -57t-24 -57q-24 -24 -55 -22t-57 22q-42 34 -79 71t-79 71 q-42 -34 -82 -68t-80 -72q-28 -26 -60 -22t-53 25t-24 52t25 59q54 52 112 100t122 92q16 10 39 10t41 -10q66 -40 119 -94t111 -100z" />
<glyph unicode="&#xfc;" horiz-adv-x="1090" d="M946 706q2 -172 24 -344t58 -340q8 -38 -13 -63t-49 -33t-56 4t-36 50q-24 114 -42 224q-8 -10 -14 -19t-14 -19q-40 -48 -92 -83t-111 -54t-121 -21t-122 14q-106 30 -162 104t-80 169t-28 198t-6 191q0 38 24 57t54 19t55 -19t27 -57q2 -80 3 -162t17 -154 q8 -40 18 -69t32 -61q10 -14 11 -16t5 -4q30 -24 40 -29t24 -9q84 -24 170 5t138 105q30 48 45 100t21 105t9 108t11 109q0 60 31 79t65 13q20 -6 32 -14l16 -14q22 -36 16 -70zM428 1078q18 -14 22 -40q4 -16 4 -24t-4 -24l-20 -54q-16 -30 -49 -37t-61 9q-26 14 -36 46 q-2 18 -6 22q-16 30 -8 60q8 28 38 48q12 10 28 16t32 4t23 -3t19 -9t18 -14zM700 1062q28 -16 36 -49t-8 -61q-10 -16 -22 -28q-18 -18 -40 -26q-28 -10 -55 3t-43 37q-12 20 -15 41t-3 43q0 34 23 57t57 23q46 0 70 -40z" />
<glyph unicode="&#xfd;" d="M848 900q28 -16 38 -48t-10 -60q-50 -72 -75 -158t-57 -168q-34 -88 -75 -170t-87 -166q-4 -10 -9 -17t-9 -17q8 -32 -9 -57t-45 -35q-82 -140 -165 -277t-165 -277q-20 -34 -51 -38t-57 11t-38 44t8 63q84 144 170 285t170 285q-90 162 -172 327t-168 329q-18 34 -5 63 t38 44t56 11t49 -38q74 -144 146 -287t148 -285q74 136 132 286q30 82 57 167t77 155q18 28 48 37t60 -9zM690 1318q26 20 56 23t56 -23q22 -22 24 -57t-24 -57q-144 -110 -300 -190q-34 -18 -64 -5t-45 39t-11 56t38 48q72 36 139 76t131 90z" />
<glyph unicode="&#xfe;" horiz-adv-x="986" d="M852 792q24 -56 47 -113t25 -117q2 -62 -18 -116t-56 -98t-83 -78t-101 -58q-58 -26 -120 -46t-126 -26q-32 -4 -59 3t-51 19q12 -370 36 -738q4 -34 -22 -57t-58 -23q-34 0 -55 23t-25 57q-34 520 -47 1035t-47 1035q-2 34 23 57t57 23q34 0 55 -23t25 -57 q10 -156 18 -311t14 -311q34 18 68 34t70 30q28 12 62 23t70 17t71 6t65 -12q60 -24 99 -72t63 -106zM728 448q42 48 36 114q-4 40 -20 82t-32 78q-10 18 -19 37t-21 35q-18 18 -28 22q-60 4 -103 -7t-86 -29t-84 -40t-81 -42q4 -88 6 -175t6 -177q16 -10 32 -18t32 -18 t26 -11t32 3q44 10 87 21t83 31q40 18 73 39t61 55z" />
<glyph unicode="&#xff;" d="M848 900q28 -16 38 -48t-10 -60q-50 -72 -75 -158t-57 -168q-34 -88 -75 -170t-87 -166q-4 -10 -9 -17t-9 -17q8 -32 -9 -57t-45 -35q-82 -140 -165 -277t-165 -277q-20 -34 -51 -38t-57 11t-38 44t8 63q84 144 170 285t170 285q-90 162 -172 327t-168 329q-18 34 -5 63 t38 44t56 11t49 -38q74 -144 146 -287t148 -285q74 136 132 286q30 82 57 167t77 155q18 28 48 37t60 -9zM388 1200q18 -14 22 -40q4 -16 4 -24t-4 -24l-20 -54q-16 -30 -49 -37t-61 9q-26 14 -36 46q-2 18 -6 22q-16 30 -8 60q8 28 38 48q12 10 28 16t32 4t23 -3t19 -9 t18 -14zM660 1184q28 -16 36 -49t-8 -61q-10 -16 -22 -28q-18 -18 -40 -26q-28 -10 -55 3t-43 37q-12 20 -15 41t-3 43q0 34 23 57t57 23q46 0 70 -40z" />
<glyph unicode="&#x131;" horiz-adv-x="460" d="M94 20q16 96 37 189t31 189q8 94 3 185t11 185q4 32 37 48t61 8q34 -10 47 -38t9 -60q-8 -46 -7 -94t3 -96q0 -92 -12 -184q-12 -96 -31 -188t-35 -186q-6 -32 -38 -48t-60 -8q-34 10 -48 38t-8 60z" />
<glyph unicode="&#x152;" horiz-adv-x="1492" d="M554 -30q-62 8 -125 24t-121 42t-109 64t-89 92t-53 112t-16 118t8 122t19 122q22 120 56 237t100 221q78 126 192 210t254 132q40 18 68 23t58 7q52 4 105 4t105 -2q98 -4 195 -11t193 -9q38 0 58 -25t20 -55t-20 -55t-58 -25q-30 2 -61 3t-61 3q-114 8 -225 15t-223 1 q-10 -2 -20 -2t-20 -2q-16 -22 -16 -33v-21q0 -50 6 -100q10 -84 29 -176t35 -184q98 4 193 19t191 21q34 4 57 -22t23 -58q0 -34 -23 -55t-57 -23q-90 -8 -180 -22t-182 -18q4 -56 7 -111t9 -109l24 -300q98 16 193 35t193 35q32 6 60 -8t38 -48q8 -28 -8 -60t-48 -38 q-112 -18 -221 -40t-221 -38q-22 -18 -52 -18q-12 -4 -20 -4q-64 -4 -130 -2t-130 12zM210 550q-10 -56 -12 -107t14 -101q12 -40 40 -75t66 -57q90 -58 201 -76t223 -16q-8 114 -18 227t-18 227q-4 36 -6 69t-6 67q-14 32 -6 58q-2 10 -3 17t-3 17q-12 52 -22 106t-20 106 q-10 60 -19 119t-11 119q-182 -76 -278 -256q-52 -102 -78 -216t-44 -228z" />
<glyph unicode="&#x153;" horiz-adv-x="1762" d="M1670 328q26 -16 37 -49t-9 -61q-58 -78 -137 -133t-181 -59q-84 -4 -159 29t-133 89q-52 50 -88 111t-54 129q-90 -80 -188 -132t-206 -80q-46 -12 -95 -21t-99 -9t-98 11t-90 37q-30 18 -36 48q-12 34 -26 64t-27 62t-21 64t-8 66q0 68 29 129t79 107q84 80 194 128 t224 64q58 8 121 6t122 -18t110 -48t85 -82q38 52 90 91t112 61t124 23t128 -25q62 -24 111 -65t77 -105q22 -48 27 -104t-29 -102q-30 -42 -73 -64t-93 -32t-101 -10t-95 2q-52 2 -103 8t-103 12q16 -90 64 -160t130 -106q18 -8 24 -9t10 -3q16 -4 20 -4q18 -2 29 -3t21 1 q14 2 19 3t11 3q22 6 39 14t41 26q10 10 31 30t33 36q20 28 49 38t61 -8zM1250 776q-46 -22 -82 -61t-58 -87l96 -12t96 -8h51t53 2q8 0 15 1t15 1q30 6 46 10q4 2 10 3t10 3q10 4 12 6t6 4q6 22 4 24q-4 20 -8 28q-2 6 -9 18t-13 20q-10 14 -28 27t-40 23q-38 16 -89 16 t-87 -18zM906 636q-2 8 -2 12t-2 8q-6 14 -11 21t-11 15q2 -2 -5 6t-9 10l-16 16q-10 6 -22 14t-24 12q-54 20 -116 20q-66 2 -132 -13t-126 -41q-56 -22 -115 -61t-87 -95q-16 -30 -15 -61t10 -62t24 -62t27 -61q32 -8 40 -8q4 -2 10 -2h10q40 -4 72 2q22 0 56 8 q52 10 100 27t88 37q46 22 90 48t74 54q20 18 38 38q10 10 14 16q10 14 16 21t10 17l10 28l4 20v16z" />
<glyph unicode="&#x178;" horiz-adv-x="796" d="M-104 1340q-34 18 -38 49t11 57t44 38t63 -6q106 -56 176 -141t116 -193q30 -70 59 -138t75 -126q74 64 134 142t112 163t99 173t95 170q20 32 51 36t57 -11t38 -44t-8 -63q-52 -88 -103 -179t-106 -179t-118 -169t-139 -151q-8 -182 -11 -361t11 -361q2 -32 -24 -55 t-56 -23q-34 0 -56 23t-24 55q-12 164 -11 326t7 326q-18 12 -30 30q-68 74 -108 156t-78 172t-93 163t-145 121zM346 1710q18 -14 22 -40q4 -16 4 -24t-4 -24l-20 -54q-16 -30 -49 -37t-61 9q-26 14 -36 46q-2 18 -6 22q-16 30 -8 60q8 28 38 48q12 10 28 16t32 4t23 -3 t19 -9t18 -14zM618 1694q28 -16 36 -49t-8 -61q-10 -16 -22 -28q-18 -18 -40 -26q-28 -10 -55 3t-43 37q-12 20 -15 41t-3 43q0 34 23 57t57 23q46 0 70 -40z" />
<glyph unicode="&#x2c6;" horiz-adv-x="1126" d="M836 1312q26 -22 24 -57t-24 -57q-24 -24 -55 -22t-57 22q-42 34 -79 71t-79 71q-42 -34 -82 -68t-80 -72q-28 -26 -60 -22t-53 25t-24 52t25 59q54 52 112 100t122 92q16 10 39 10t41 -10q66 -40 119 -94t111 -100z" />
<glyph unicode="&#x2dc;" horiz-adv-x="1126" d="M754 1186q-42 -16 -87 -9t-81 35q-28 22 -54 49t-62 33q-34 6 -65 -12t-53 -40q-28 -28 -59 -24t-52 25t-26 52t23 59q34 34 76 58t89 35t94 4t91 -33q38 -26 66 -56q10 -10 18 -17t18 -11q12 -2 24 7t24 22t22 28t16 23q22 26 56 24t56 -24q26 -24 24 -55t-24 -57 q-28 -34 -58 -67t-76 -49z" />
<glyph unicode="&#x2000;" horiz-adv-x="1017" />
<glyph unicode="&#x2001;" horiz-adv-x="2035" />
<glyph unicode="&#x2002;" horiz-adv-x="1017" />
<glyph unicode="&#x2003;" horiz-adv-x="2035" />
<glyph unicode="&#x2004;" horiz-adv-x="678" />
<glyph unicode="&#x2005;" horiz-adv-x="508" />
<glyph unicode="&#x2006;" horiz-adv-x="339" />
<glyph unicode="&#x2007;" horiz-adv-x="339" />
<glyph unicode="&#x2008;" horiz-adv-x="254" />
<glyph unicode="&#x2009;" horiz-adv-x="407" />
<glyph unicode="&#x200a;" horiz-adv-x="113" />
<glyph unicode="&#x2010;" horiz-adv-x="954" d="M836 672q38 -2 58 -27t20 -55t-20 -54t-58 -24q-86 2 -173 8t-174 9t-174 -1t-173 -18q-34 -6 -61 7t-37 47q-10 30 6 62t50 36q92 16 184 21t184 3t184 -7t184 -7z" />
<glyph unicode="&#x2011;" horiz-adv-x="954" d="M836 672q38 -2 58 -27t20 -55t-20 -54t-58 -24q-86 2 -173 8t-174 9t-174 -1t-173 -18q-34 -6 -61 7t-37 47q-10 30 6 62t50 36q92 16 184 21t184 3t184 -7t184 -7z" />
<glyph unicode="&#x2012;" horiz-adv-x="954" d="M836 672q38 -2 58 -27t20 -55t-20 -54t-58 -24q-86 2 -173 8t-174 9t-174 -1t-173 -18q-34 -6 -61 7t-37 47q-10 30 6 62t50 36q92 16 184 21t184 3t184 -7t184 -7z" />
<glyph unicode="&#x2013;" horiz-adv-x="954" d="M836 672q38 -2 58 -27t20 -55t-20 -54t-58 -24q-86 2 -173 8t-174 9t-174 -1t-173 -18q-34 -6 -61 7t-37 47q-10 30 6 62t50 36q92 16 184 21t184 3t184 -7t184 -7z" />
<glyph unicode="&#x2014;" horiz-adv-x="1772" d="M1654 670q38 0 58 -26t20 -56t-20 -54t-58 -24q-192 2 -384 8t-384 8t-383 -2t-383 -20q-32 -4 -56 22t-24 58q0 34 24 55t56 25q192 16 383 20t383 1t384 -8t384 -7z" />
<glyph unicode="&#x2018;" horiz-adv-x="316" d="M232 1452q26 -24 24 -55t-24 -57q4 6 -2 -6t-8 -14q0 -2 -3 -13t-5 -15q-4 -20 -7 -38t-3 -38q-2 -18 -2 -38t4 -38q2 -10 3 -20t3 -20q2 -2 7 -15t1 -7q14 -30 8 -60t-36 -48q-28 -16 -62 -9t-48 37q-24 52 -34 112t-6 121t23 118t55 103q20 28 55 25t57 -25z" />
<glyph unicode="&#x2019;" horiz-adv-x="372" d="M206 1482q28 10 60 -6t38 -50q10 -54 5 -111t-23 -111q-16 -52 -41 -102t-67 -84q-26 -22 -57 -24t-57 24q-22 22 -24 56t24 56q28 22 44 52t26 66q4 18 9 36t7 38q0 10 1 20t1 20l-2 22q-6 34 8 61t48 37z" />
<glyph unicode="&#x201a;" horiz-adv-x="352" d="M122 186q-10 36 9 61t47 33t58 -4t40 -48q14 -50 15 -110t-11 -118t-38 -111t-64 -89q-28 -28 -59 -24t-52 25t-25 52t24 59q22 20 36 55t22 74t7 78t-9 67z" />
<glyph unicode="&#x201c;" horiz-adv-x="606" d="M430 1490q26 28 57 24t52 -25t26 -53t-21 -60q-18 -20 -30 -57t-16 -71q-12 -76 10 -138q12 -36 -5 -61t-46 -33t-60 4t-43 48q-18 48 -21 106t7 115t32 110t58 91zM232 1452q26 -24 24 -55t-24 -57q4 6 -2 -6t-8 -14q0 -2 -3 -13t-5 -15q-4 -20 -7 -38t-3 -38 q-2 -18 -2 -38t4 -38q2 -10 3 -20t3 -20q2 -2 7 -15t1 -7q14 -30 8 -60t-36 -48q-28 -16 -62 -9t-48 37q-24 52 -34 112t-6 121t23 118t55 103q20 28 55 25t57 -25z" />
<glyph unicode="&#x201d;" horiz-adv-x="664" d="M206 1482q28 10 60 -6t38 -50q10 -54 5 -111t-23 -111q-16 -52 -41 -102t-67 -84q-26 -22 -57 -24t-57 24q-22 22 -24 56t24 56q28 22 44 52t26 66q4 18 9 36t7 38q0 10 1 20t1 20l-2 22q-6 34 8 61t48 37zM434 1394q-10 36 9 61t47 33t58 -4t40 -48q14 -50 15 -110 t-11 -118t-38 -111t-64 -89q-28 -28 -60 -23t-53 26t-25 52t24 57q22 22 37 57t23 74t7 77t-9 66z" />
<glyph unicode="&#x201e;" horiz-adv-x="664" d="M206 274q28 8 60 -7t38 -49q10 -54 5 -111t-23 -111q-16 -52 -41 -103t-67 -85q-26 -20 -57 -22t-57 22q-22 22 -24 57t24 57q28 22 44 52t26 64q4 20 9 38t7 38q0 10 1 20t1 20l-2 22q-6 32 8 60t48 38zM434 186q-10 36 9 61t47 33t58 -4t40 -48q14 -50 15 -110 t-11 -118t-38 -111t-64 -89q-28 -28 -60 -24t-53 25t-25 52t24 59q22 20 37 55t23 74t7 78t-9 67z" />
<glyph unicode="&#x2022;" horiz-adv-x="500" d="M138 570q-20 8 -37 24t-21 38q-16 20 -18 46t10 48q4 12 10 25t16 23q-4 20 2 40t19 35t32 21t43 -2q20 -8 39 -17t35 -23q62 -6 102 -32q30 -20 48 -52t21 -65t-13 -63t-52 -48q-52 -26 -118 -23t-118 25z" />
<glyph unicode="&#x2026;" horiz-adv-x="900" d="M198 140q26 -16 40 -48t4 -60q-12 -34 -40 -50q-22 -24 -56 -23t-56 23q-30 24 -38 40q-16 28 -9 56t31 48q4 4 10 9t12 9q18 8 21 8t23 4q16 0 24 -4q20 -4 34 -12zM506 140q26 -16 40 -48t4 -60q-12 -34 -40 -50q-22 -24 -56 -23t-56 23q-30 24 -38 40q-16 28 -9 56 t31 48q4 4 10 9t12 9q18 8 21 8t23 4q16 0 24 -4q20 -4 34 -12zM812 140q26 -16 40 -48t4 -60q-12 -34 -40 -50q-22 -24 -56 -23t-56 23q-30 24 -38 40q-16 28 -9 56t31 48q4 4 10 9t12 9q18 8 21 8t23 4q16 0 24 -4q20 -4 34 -12z" />
<glyph unicode="&#x202f;" horiz-adv-x="407" />
<glyph unicode="&#x2039;" horiz-adv-x="562" d="M338 566q-44 -34 -86 -74t-74 -86q74 -70 153 -131t155 -127q28 -26 25 -57t-24 -52t-53 -26t-60 21q-88 76 -178 146t-174 154q-22 22 -22 46t10 50q34 78 97 141t127 115q40 32 82 62t88 58q32 20 61 9t44 -37t11 -58t-36 -52q-38 -22 -75 -48t-71 -54z" />
<glyph unicode="&#x203a;" horiz-adv-x="562" d="M540 496q22 -22 23 -47t-11 -51q-34 -78 -96 -141t-128 -115q-40 -32 -82 -62t-86 -58q-34 -20 -63 -9t-44 37t-11 58t36 52q40 22 76 48t70 54q44 36 86 75t74 87q-74 68 -153 129t-155 129q-28 26 -25 56t24 51t53 26t62 -21q86 -76 177 -146t173 -152z" />
<glyph unicode="&#x205f;" horiz-adv-x="508" />
<glyph unicode="&#x20ac;" horiz-adv-x="1258" d="M1136 1412q34 -4 57 -25t23 -55q0 -30 -23 -57t-57 -23q-132 12 -257 -37t-227 -131q-60 -46 -116 -104q70 4 140 6t140 -2q38 -2 58 -27t20 -55t-20 -54t-58 -22q-102 4 -202 -1t-202 -15q-30 -58 -42 -120q-2 -10 -3 -19t-1 -19q84 8 168 12t168 -2q38 -2 57 -28 t19 -56t-19 -53t-57 -21q-80 4 -158 1t-156 -11q38 -110 124 -184q46 -38 105 -62t119 -22q76 4 150 29t150 41q32 6 60 -8t38 -48q8 -30 -8 -61t-48 -37q-50 -10 -99 -26t-99 -28q-84 -22 -166 -19t-164 37q-138 54 -226 176q-66 84 -98 200q-70 -6 -138 -6q-38 0 -57 25 t-19 55t19 55t57 25q30 0 59 1t59 3q0 68 22 138q-40 8 -83 2t-85 -10q-34 -4 -57 23t-23 57q0 36 23 56t57 24l258 30q52 80 121 148t145 124q118 86 260 140t292 40z" />
<glyph unicode="&#x2212;" horiz-adv-x="954" d="M836 672q38 -2 58 -27t20 -55t-20 -54t-58 -24q-86 2 -173 8t-174 9t-174 -1t-173 -18q-34 -6 -61 7t-37 47q-10 30 6 62t50 36q92 16 184 21t184 3t184 -7t184 -7z" />
<glyph unicode="&#x25fc;" horiz-adv-x="970" d="M0 970h970v-970h-970v970z" />
<glyph unicode="&#xfb01;" horiz-adv-x="1304" d="M666 16q12 -32 -8 -61t-48 -37q-34 -10 -60 7t-38 47q-12 28 -23 57t-21 57q-56 146 -97 296t-67 306q-118 10 -238 6q-38 -2 -57 22t-19 54t19 55t57 27q54 4 108 2t108 -6q-8 70 -11 142t6 142t32 136t65 126q38 54 86 101t105 79t122 43t135 -3q68 -14 121 -51t91 -89 t57 -115t17 -131q0 -38 -26 -57t-56 -19t-54 19t-24 57q2 52 -13 98t-49 80q-64 60 -146 58q-20 -2 -41 -5t-37 -13q-48 -22 -82 -54q-40 -36 -71 -80t-49 -96q-30 -90 -32 -188t12 -194q38 -4 75 -10t75 -10q124 -18 245 -20t247 14q30 2 56 -24q22 -18 22 -56v-682 q0 -38 -25 -57t-54 -19t-54 19t-25 57v594q-112 -10 -221 -4t-221 22q-24 4 -47 6t-45 6q36 -182 85 -340t113 -314z" />
<glyph unicode="&#xfb02;" horiz-adv-x="1242" d="M466 -90q-34 -10 -60 7t-38 49q-50 138 -74 284t-34 290q-2 18 -3 37t-3 37l-108 8t-108 12q-34 4 -49 37t-7 61q10 34 38 47t60 9q42 -6 84 -10t84 -6q0 88 7 175t27 171q14 62 36 130t55 131t77 115t104 86q56 32 113 36t109 -14t99 -55t83 -85q54 -72 89 -157t55 -175 t28 -182t10 -180q2 -192 -14 -384t-22 -382q-2 -40 -28 -59t-56 -19t-54 19t-22 59q6 150 19 303t17 306t-8 304t-60 299q-20 60 -56 119t-88 99q-12 10 -26 17t-34 11h-26q-18 -4 -22 -5t-8 -3q-16 -10 -18 -10q-18 -10 -19 -12t-5 -4l-24 -22q-20 -20 -34 -41t-30 -47 q-32 -60 -55 -125t-35 -131q-14 -70 -19 -143t-5 -149q94 0 186 3t184 3q38 0 58 -25t20 -55t-20 -55t-58 -25q-92 0 -183 -2t-181 0l6 -84q12 -132 34 -263t68 -257q12 -32 -7 -61t-49 -37z" />
</font>
</defs>
</svg>
